<?xml version="1.0" encoding="UTF-8" standalone="no"?><svg xmlns="http://www.w3.org/2000/svg" xmlns:xlink="http://www.w3.org/1999/xlink" contentScriptType="application/ecmascript" contentStyleType="text/css" height="424px" preserveAspectRatio="none" style="width:484px;height:424px;background:#FFFFFF;" version="1.1" viewBox="0 0 484 424" width="484px" zoomAndPan="magnify"><defs><filter height="300%" id="f1aagdwd8sxpkp" width="300%" x="-1" y="-1"><feGaussianBlur result="blurOut" stdDeviation="2.0"/><feColorMatrix in="blurOut" result="blurOut2" type="matrix" values="0 0 0 0 0 0 0 0 0 0 0 0 0 0 0 0 0 0 .4 0"/><feOffset dx="4.0" dy="4.0" in="blurOut2" result="blurOut3"/><feBlend in="SourceGraphic" in2="blurOut3" mode="normal"/></filter></defs><g><rect fill="#FFFFFF" filter="url(#f1aagdwd8sxpkp)" height="291.9297" style="stroke:#A80036;stroke-width:1.0;" width="10" x="142" y="71.4297"/><rect fill="#FFFFFF" filter="url(#f1aagdwd8sxpkp)" height="57.1328" style="stroke:#A80036;stroke-width:1.0;" width="10" x="291" y="124.6953"/><rect fill="#FFFFFF" filter="url(#f1aagdwd8sxpkp)" height="131.3984" style="stroke:#A80036;stroke-width:1.0;" width="10" x="291" y="210.9609"/><rect fill="#FFFFFF" filter="url(#f1aagdwd8sxpkp)" height="14" style="stroke:#A80036;stroke-width:1.0;" width="10" x="416" y="153.8281"/><rect fill="#FFFFFF" filter="url(#f1aagdwd8sxpkp)" height="14" style="stroke:#A80036;stroke-width:1.0;" width="10" x="416" y="240.0938"/><rect fill="#FFFFFF" filter="url(#f1aagdwd8sxpkp)" height="14" style="stroke:#A80036;stroke-width:1.0;" width="10" x="416" y="307.3594"/><rect fill="#FFFFFF" filter="url(#f1aagdwd8sxpkp)" height="263.9297" style="stroke:#000000;stroke-width:2.0;" width="398" x="72.5" y="86.4297"/><rect fill="#FFFFFF" filter="url(#f1aagdwd8sxpkp)" height="60.2656" style="stroke:#000000;stroke-width:2.0;" width="204" x="256.5" y="269.0938"/><line style="stroke:#A80036;stroke-width:1.0;stroke-dasharray:5.0,5.0;" x1="32" x2="32" y1="40.2969" y2="381.3594"/><line style="stroke:#A80036;stroke-width:1.0;stroke-dasharray:5.0,5.0;" x1="146.5" x2="146.5" y1="40.2969" y2="381.3594"/><line style="stroke:#A80036;stroke-width:1.0;stroke-dasharray:5.0,5.0;" x1="295.5" x2="295.5" y1="40.2969" y2="381.3594"/><line style="stroke:#A80036;stroke-width:1.0;stroke-dasharray:5.0,5.0;" x1="420.5" x2="420.5" y1="40.2969" y2="381.3594"/><rect fill="#FEFECE" filter="url(#f1aagdwd8sxpkp)" height="30.2969" style="stroke:#A80036;stroke-width:1.5;" width="50" x="5" y="5"/><text fill="#000000" font-family="sans-serif" font-size="14" lengthAdjust="spacing" textLength="36" x="12" y="24.9951">Actor</text><rect fill="#FEFECE" filter="url(#f1aagdwd8sxpkp)" height="30.2969" style="stroke:#A80036;stroke-width:1.5;" width="50" x="5" y="380.3594"/><text fill="#000000" font-family="sans-serif" font-size="14" lengthAdjust="spacing" textLength="36" x="12" y="400.3545">Actor</text><rect fill="#FEFECE" filter="url(#f1aagdwd8sxpkp)" height="30.2969" style="stroke:#A80036;stroke-width:1.5;" width="125" x="82.5" y="5"/><text fill="#000000" font-family="sans-serif" font-size="14" lengthAdjust="spacing" textLength="111" x="89.5" y="24.9951">GameGenerator</text><rect fill="#FEFECE" filter="url(#f1aagdwd8sxpkp)" height="30.2969" style="stroke:#A80036;stroke-width:1.5;" width="125" x="82.5" y="380.3594"/><text fill="#000000" font-family="sans-serif" font-size="14" lengthAdjust="spacing" textLength="111" x="89.5" y="400.3545">GameGenerator</text><rect fill="#FEFECE" filter="url(#f1aagdwd8sxpkp)" height="30.2969" style="stroke:#A80036;stroke-width:1.5;" width="55" x="266.5" y="5"/><text fill="#000000" font-family="sans-serif" font-size="14" lengthAdjust="spacing" textLength="41" x="273.5" y="24.9951">Game</text><rect fill="#FEFECE" filter="url(#f1aagdwd8sxpkp)" height="30.2969" style="stroke:#A80036;stroke-width:1.5;" width="55" x="266.5" y="380.3594"/><text fill="#000000" font-family="sans-serif" font-size="14" lengthAdjust="spacing" textLength="41" x="273.5" y="400.3545">Game</text><rect fill="#FEFECE" filter="url(#f1aagdwd8sxpkp)" height="30.2969" style="stroke:#A80036;stroke-width:1.5;" width="55" x="391.5" y="5"/><text fill="#000000" font-family="sans-serif" font-size="14" lengthAdjust="spacing" textLength="41" x="398.5" y="24.9951">Player</text><rect fill="#FEFECE" filter="url(#f1aagdwd8sxpkp)" height="30.2969" style="stroke:#A80036;stroke-width:1.5;" width="55" x="391.5" y="380.3594"/><text fill="#000000" font-family="sans-serif" font-size="14" lengthAdjust="spacing" textLength="41" x="398.5" y="400.3545">Player</text><rect fill="#FFFFFF" filter="url(#f1aagdwd8sxpkp)" height="291.9297" style="stroke:#A80036;stroke-width:1.0;" width="10" x="142" y="71.4297"/><rect fill="#FFFFFF" filter="url(#f1aagdwd8sxpkp)" height="57.1328" style="stroke:#A80036;stroke-width:1.0;" width="10" x="291" y="124.6953"/><rect fill="#FFFFFF" filter="url(#f1aagdwd8sxpkp)" height="131.3984" style="stroke:#A80036;stroke-width:1.0;" width="10" x="291" y="210.9609"/><rect fill="#FFFFFF" filter="url(#f1aagdwd8sxpkp)" height="14" style="stroke:#A80036;stroke-width:1.0;" width="10" x="416" y="153.8281"/><rect fill="#FFFFFF" filter="url(#f1aagdwd8sxpkp)" height="14" style="stroke:#A80036;stroke-width:1.0;" width="10" x="416" y="240.0938"/><rect fill="#FFFFFF" filter="url(#f1aagdwd8sxpkp)" height="14" style="stroke:#A80036;stroke-width:1.0;" width="10" x="416" y="307.3594"/><polygon fill="#A80036" points="130,67.4297,140,71.4297,130,75.4297,134,71.4297" style="stroke:#A80036;stroke-width:1.0;"/><line style="stroke:#A80036;stroke-width:1.0;" x1="32" x2="136" y1="71.4297" y2="71.4297"/><text fill="#000000" font-family="sans-serif" font-size="13" lengthAdjust="spacing" textLength="91" x="39" y="66.3638">1:chooseColor</text><path d="M72.5,86.4297 L149.5,86.4297 L149.5,93.4297 L139.5,103.4297 L72.5,103.4297 L72.5,86.4297 " fill="#EEEEEE" style="stroke:#000000;stroke-width:1.0;"/><rect fill="none" height="263.9297" style="stroke:#000000;stroke-width:2.0;" width="398" x="72.5" y="86.4297"/><text fill="#000000" font-family="sans-serif" font-size="13" font-weight="bold" lengthAdjust="spacing" textLength="32" x="87.5" y="99.4966">loop</text><text fill="#000000" font-family="sans-serif" font-size="11" font-weight="bold" lengthAdjust="spacing" textLength="28" x="164.5" y="98.6401">[for]</text><polygon fill="#A80036" points="279,120.6953,289,124.6953,279,128.6953,283,124.6953" style="stroke:#A80036;stroke-width:1.0;"/><line style="stroke:#A80036;stroke-width:1.0;" x1="152" x2="285" y1="124.6953" y2="124.6953"/><text fill="#000000" font-family="sans-serif" font-size="13" lengthAdjust="spacing" textLength="120" x="159" y="119.6294">1.1:availableColors</text><polygon fill="#A80036" points="404,149.8281,414,153.8281,404,157.8281,408,153.8281" style="stroke:#A80036;stroke-width:1.0;"/><line style="stroke:#A80036;stroke-width:1.0;" x1="301" x2="410" y1="153.8281" y2="153.8281"/><text fill="#000000" font-family="sans-serif" font-size="13" lengthAdjust="spacing" textLength="96" x="308" y="148.7622">1.1.1:getPlayer</text><polygon fill="#A80036" points="312,163.8281,302,167.8281,312,171.8281,308,167.8281" style="stroke:#A80036;stroke-width:1.0;"/><line style="stroke:#A80036;stroke-width:1.0;stroke-dasharray:2.0,2.0;" x1="306" x2="420" y1="167.8281" y2="167.8281"/><polygon fill="#A80036" points="163,177.8281,153,181.8281,163,185.8281,159,181.8281" style="stroke:#A80036;stroke-width:1.0;"/><line style="stroke:#A80036;stroke-width:1.0;stroke-dasharray:2.0,2.0;" x1="157" x2="295" y1="181.8281" y2="181.8281"/><polygon fill="#A80036" points="279,206.9609,289,210.9609,279,214.9609,283,210.9609" style="stroke:#A80036;stroke-width:1.0;"/><line style="stroke:#A80036;stroke-width:1.0;" x1="152" x2="285" y1="210.9609" y2="210.9609"/><text fill="#000000" font-family="sans-serif" font-size="13" lengthAdjust="spacing" textLength="120" x="159" y="205.895">1.2:tryToAddPlayer</text><polygon fill="#A80036" points="404,236.0938,414,240.0938,404,244.0938,408,240.0938" style="stroke:#A80036;stroke-width:1.0;"/><line style="stroke:#A80036;stroke-width:1.0;" x1="301" x2="410" y1="240.0938" y2="240.0938"/><text fill="#000000" font-family="sans-serif" font-size="13" lengthAdjust="spacing" textLength="96" x="308" y="235.0278">1.2.1:getPlayer</text><polygon fill="#A80036" points="312,250.0938,302,254.0938,312,258.0938,308,254.0938" style="stroke:#A80036;stroke-width:1.0;"/><line style="stroke:#A80036;stroke-width:1.0;stroke-dasharray:2.0,2.0;" x1="306" x2="420" y1="254.0938" y2="254.0938"/><path d="M256.5,269.0938 L316.5,269.0938 L316.5,276.0938 L306.5,286.0938 L256.5,286.0938 L256.5,269.0938 " fill="#EEEEEE" style="stroke:#000000;stroke-width:1.0;"/><rect fill="none" height="60.2656" style="stroke:#000000;stroke-width:2.0;" width="204" x="256.5" y="269.0938"/><text fill="#000000" font-family="sans-serif" font-size="13" font-weight="bold" lengthAdjust="spacing" textLength="10" x="271.5" y="282.1606">if</text><text fill="#000000" font-family="sans-serif" font-size="11" font-weight="bold" lengthAdjust="spacing" textLength="92" x="331.5" y="281.3042">[player==null]</text><polygon fill="#A80036" points="404,303.3594,414,307.3594,404,311.3594,408,307.3594" style="stroke:#A80036;stroke-width:1.0;"/><line style="stroke:#A80036;stroke-width:1.0;" x1="301" x2="410" y1="307.3594" y2="307.3594"/><text fill="#000000" font-family="sans-serif" font-size="13" lengthAdjust="spacing" textLength="61" x="308" y="302.2935">1.2.2:new</text><polygon fill="#A80036" points="312,317.3594,302,321.3594,312,325.3594,308,321.3594" style="stroke:#A80036;stroke-width:1.0;"/><line style="stroke:#A80036;stroke-width:1.0;stroke-dasharray:2.0,2.0;" x1="306" x2="420" y1="321.3594" y2="321.3594"/><polygon fill="#A80036" points="163,338.3594,153,342.3594,163,346.3594,159,342.3594" style="stroke:#A80036;stroke-width:1.0;"/><line style="stroke:#A80036;stroke-width:1.0;stroke-dasharray:2.0,2.0;" x1="157" x2="295" y1="342.3594" y2="342.3594"/><polygon fill="#A80036" points="43,359.3594,33,363.3594,43,367.3594,39,363.3594" style="stroke:#A80036;stroke-width:1.0;"/><line style="stroke:#A80036;stroke-width:1.0;stroke-dasharray:2.0,2.0;" x1="37" x2="146" y1="363.3594" y2="363.3594"/><!--MD5=[f9a544cdc5a43473d39448bffad289ae]
@startuml
participant Actor
Actor -> GameGenerator : 1:chooseColor
loop for
activate GameGenerator
GameGenerator -> Game : 1.1:availableColors
activate Game
Game -> Player : 1.1.1:getPlayer
activate Player
Player - -> Game
deactivate Player
Game - -> GameGenerator
deactivate Game
GameGenerator -> Game : 1.2:tryToAddPlayer
activate Game
Game -> Player : 1.2.1:getPlayer
activate Player
Player - -> Game
deactivate Player
group if [player==null]
Game -> Player : 1.2.2:new
activate Player
Player - -> Game
deactivate Player
end
Game - -> GameGenerator
deactivate Game
end
return
@enduml

PlantUML version 1.2021.16(Wed Dec 08 17:25:22 UTC 2021)
(GPL source distribution)
Java Runtime: OpenJDK Runtime Environment
JVM: OpenJDK 64-Bit Server VM
Default Encoding: UTF-8
Language: en
Country: US
--></g></svg>