<?xml version="1.0" encoding="UTF-8" standalone="no"?><svg xmlns="http://www.w3.org/2000/svg" xmlns:xlink="http://www.w3.org/1999/xlink" contentScriptType="application/ecmascript" contentStyleType="text/css" height="380px" preserveAspectRatio="none" style="width:529px;height:380px;background:#FFFFFF;" version="1.1" viewBox="0 0 529 380" width="529px" zoomAndPan="magnify"><defs><filter height="300%" id="f1y1ohi2aw93mq" width="300%" x="-1" y="-1"><feGaussianBlur result="blurOut" stdDeviation="2.0"/><feColorMatrix in="blurOut" result="blurOut2" type="matrix" values="0 0 0 0 0 0 0 0 0 0 0 0 0 0 0 0 0 0 .4 0"/><feOffset dx="4.0" dy="4.0" in="blurOut2" result="blurOut3"/><feBlend in="SourceGraphic" in2="blurOut3" mode="normal"/></filter></defs><g><rect fill="#FFFFFF" filter="url(#f1y1ohi2aw93mq)" height="247.9297" style="stroke:#A80036;stroke-width:1.0;" width="10" x="147" y="71.4297"/><rect fill="#FFFFFF" filter="url(#f1y1ohi2aw93mq)" height="29.1328" style="stroke:#A80036;stroke-width:1.0;" width="10" x="414" y="124.6953"/><rect fill="#FFFFFF" filter="url(#f1y1ohi2aw93mq)" height="29.1328" style="stroke:#A80036;stroke-width:1.0;" width="10" x="414" y="182.9609"/><rect fill="#FFFFFF" filter="url(#f1y1ohi2aw93mq)" height="14" style="stroke:#A80036;stroke-width:1.0;" width="10" x="414" y="248.2266"/><rect fill="#FFFFFF" filter="url(#f1y1ohi2aw93mq)" height="14" style="stroke:#A80036;stroke-width:1.0;" width="10" x="484.5" y="291.3594"/><rect fill="#FFFFFF" filter="url(#f1y1ohi2aw93mq)" height="133.6641" style="stroke:#000000;stroke-width:2.0;" width="382.5" x="77.5" y="86.4297"/><line style="stroke:#A80036;stroke-width:1.0;stroke-dasharray:5.0,5.0;" x1="32" x2="32" y1="40.2969" y2="337.3594"/><line style="stroke:#A80036;stroke-width:1.0;stroke-dasharray:5.0,5.0;" x1="151.5" x2="151.5" y1="40.2969" y2="337.3594"/><line style="stroke:#A80036;stroke-width:1.0;stroke-dasharray:5.0,5.0;" x1="419" x2="419" y1="40.2969" y2="337.3594"/><line style="stroke:#A80036;stroke-width:1.0;stroke-dasharray:5.0,5.0;" x1="489" x2="489" y1="40.2969" y2="337.3594"/><rect fill="#FEFECE" filter="url(#f1y1ohi2aw93mq)" height="30.2969" style="stroke:#A80036;stroke-width:1.5;" width="50" x="5" y="5"/><text fill="#000000" font-family="sans-serif" font-size="14" lengthAdjust="spacing" textLength="36" x="12" y="24.9951">Actor</text><rect fill="#FEFECE" filter="url(#f1y1ohi2aw93mq)" height="30.2969" style="stroke:#A80036;stroke-width:1.5;" width="50" x="5" y="336.3594"/><text fill="#000000" font-family="sans-serif" font-size="14" lengthAdjust="spacing" textLength="36" x="12" y="356.3545">Actor</text><rect fill="#FEFECE" filter="url(#f1y1ohi2aw93mq)" height="30.2969" style="stroke:#A80036;stroke-width:1.5;" width="125" x="87.5" y="5"/><text fill="#000000" font-family="sans-serif" font-size="14" lengthAdjust="spacing" textLength="111" x="94.5" y="24.9951">GameGenerator</text><rect fill="#FEFECE" filter="url(#f1y1ohi2aw93mq)" height="30.2969" style="stroke:#A80036;stroke-width:1.5;" width="125" x="87.5" y="336.3594"/><text fill="#000000" font-family="sans-serif" font-size="14" lengthAdjust="spacing" textLength="111" x="94.5" y="356.3545">GameGenerator</text><rect fill="#FEFECE" filter="url(#f1y1ohi2aw93mq)" height="30.2969" style="stroke:#A80036;stroke-width:1.5;" width="58" x="388" y="5"/><text fill="#000000" font-family="sans-serif" font-size="14" lengthAdjust="spacing" textLength="44" x="395" y="24.9951">Shape</text><rect fill="#FEFECE" filter="url(#f1y1ohi2aw93mq)" height="30.2969" style="stroke:#A80036;stroke-width:1.5;" width="58" x="388" y="336.3594"/><text fill="#000000" font-family="sans-serif" font-size="14" lengthAdjust="spacing" textLength="44" x="395" y="356.3545">Shape</text><rect fill="#FEFECE" filter="url(#f1y1ohi2aw93mq)" height="30.2969" style="stroke:#A80036;stroke-width:1.5;" width="55" x="460" y="5"/><text fill="#000000" font-family="sans-serif" font-size="14" lengthAdjust="spacing" textLength="41" x="467" y="24.9951">Board</text><rect fill="#FEFECE" filter="url(#f1y1ohi2aw93mq)" height="30.2969" style="stroke:#A80036;stroke-width:1.5;" width="55" x="460" y="336.3594"/><text fill="#000000" font-family="sans-serif" font-size="14" lengthAdjust="spacing" textLength="41" x="467" y="356.3545">Board</text><rect fill="#FFFFFF" filter="url(#f1y1ohi2aw93mq)" height="247.9297" style="stroke:#A80036;stroke-width:1.0;" width="10" x="147" y="71.4297"/><rect fill="#FFFFFF" filter="url(#f1y1ohi2aw93mq)" height="29.1328" style="stroke:#A80036;stroke-width:1.0;" width="10" x="414" y="124.6953"/><rect fill="#FFFFFF" filter="url(#f1y1ohi2aw93mq)" height="29.1328" style="stroke:#A80036;stroke-width:1.0;" width="10" x="414" y="182.9609"/><rect fill="#FFFFFF" filter="url(#f1y1ohi2aw93mq)" height="14" style="stroke:#A80036;stroke-width:1.0;" width="10" x="414" y="248.2266"/><rect fill="#FFFFFF" filter="url(#f1y1ohi2aw93mq)" height="14" style="stroke:#A80036;stroke-width:1.0;" width="10" x="484.5" y="291.3594"/><polygon fill="#A80036" points="135,67.4297,145,71.4297,135,75.4297,139,71.4297" style="stroke:#A80036;stroke-width:1.0;"/><line style="stroke:#A80036;stroke-width:1.0;" x1="32" x2="141" y1="71.4297" y2="71.4297"/><text fill="#000000" font-family="sans-serif" font-size="13" lengthAdjust="spacing" textLength="96" x="39" y="66.3638">1:chooseBoard</text><path d="M77.5,86.4297 L154.5,86.4297 L154.5,93.4297 L144.5,103.4297 L77.5,103.4297 L77.5,86.4297 " fill="#EEEEEE" style="stroke:#000000;stroke-width:1.0;"/><rect fill="none" height="133.6641" style="stroke:#000000;stroke-width:2.0;" width="382.5" x="77.5" y="86.4297"/><text fill="#000000" font-family="sans-serif" font-size="13" font-weight="bold" lengthAdjust="spacing" textLength="32" x="92.5" y="99.4966">loop</text><text fill="#000000" font-family="sans-serif" font-size="11" font-weight="bold" lengthAdjust="spacing" textLength="188" x="169.5" y="98.6401">["&lt;do while (input!=NULL&gt;)"]</text><polygon fill="#A80036" points="402,120.6953,412,124.6953,402,128.6953,406,124.6953" style="stroke:#A80036;stroke-width:1.0;"/><line style="stroke:#A80036;stroke-width:1.0;" x1="157" x2="408" y1="124.6953" y2="124.6953"/><text fill="#000000" font-family="sans-serif" font-size="13" lengthAdjust="spacing" textLength="128" x="164" y="119.6294">1.1:availableShapes</text><polygon fill="#A80036" points="168,149.8281,158,153.8281,168,157.8281,164,153.8281" style="stroke:#A80036;stroke-width:1.0;"/><line style="stroke:#A80036;stroke-width:1.0;stroke-dasharray:2.0,2.0;" x1="162" x2="418" y1="153.8281" y2="153.8281"/><text fill="#000000" font-family="sans-serif" font-size="13" lengthAdjust="spacing" textLength="123" x="174" y="148.7622">StringBuilder buffer</text><polygon fill="#A80036" points="402,178.9609,412,182.9609,402,186.9609,406,182.9609" style="stroke:#A80036;stroke-width:1.0;"/><line style="stroke:#A80036;stroke-width:1.0;" x1="157" x2="408" y1="182.9609" y2="182.9609"/><text fill="#000000" font-family="sans-serif" font-size="13" lengthAdjust="spacing" textLength="238" x="164" y="177.895">1.2:valueOfIgnoreCase (input) (NULL)</text><polygon fill="#A80036" points="168,208.0938,158,212.0938,168,216.0938,164,212.0938" style="stroke:#A80036;stroke-width:1.0;"/><line style="stroke:#A80036;stroke-width:1.0;stroke-dasharray:2.0,2.0;" x1="162" x2="418" y1="212.0938" y2="212.0938"/><text fill="#000000" font-family="sans-serif" font-size="13" lengthAdjust="spacing" textLength="95" x="174" y="207.0278">BOARD_ERROR</text><polygon fill="#A80036" points="402,244.2266,412,248.2266,402,252.2266,406,248.2266" style="stroke:#A80036;stroke-width:1.0;"/><line style="stroke:#A80036;stroke-width:1.0;" x1="157" x2="408" y1="248.2266" y2="248.2266"/><text fill="#000000" font-family="sans-serif" font-size="13" lengthAdjust="spacing" textLength="190" x="164" y="243.1606">1.3:valueOfIgnoreCase (input)</text><polygon fill="#A80036" points="168,258.2266,158,262.2266,168,266.2266,164,262.2266" style="stroke:#A80036;stroke-width:1.0;"/><line style="stroke:#A80036;stroke-width:1.0;stroke-dasharray:2.0,2.0;" x1="162" x2="418" y1="262.2266" y2="262.2266"/><polygon fill="#A80036" points="472.5,287.3594,482.5,291.3594,472.5,295.3594,476.5,291.3594" style="stroke:#A80036;stroke-width:1.0;"/><line style="stroke:#A80036;stroke-width:1.0;" x1="157" x2="478.5" y1="291.3594" y2="291.3594"/><text fill="#000000" font-family="sans-serif" font-size="13" lengthAdjust="spacing" textLength="49" x="164" y="286.2935">1.4:new</text><polygon fill="#A80036" points="168,301.3594,158,305.3594,168,309.3594,164,305.3594" style="stroke:#A80036;stroke-width:1.0;"/><line style="stroke:#A80036;stroke-width:1.0;stroke-dasharray:2.0,2.0;" x1="162" x2="488.5" y1="305.3594" y2="305.3594"/><polygon fill="#A80036" points="43,315.3594,33,319.3594,43,323.3594,39,319.3594" style="stroke:#A80036;stroke-width:1.0;"/><line style="stroke:#A80036;stroke-width:1.0;stroke-dasharray:2.0,2.0;" x1="37" x2="151" y1="319.3594" y2="319.3594"/><!--MD5=[579c7cf5f97821cc39f3a1a8a7820209]
@startuml
participant Actor
Actor -> GameGenerator : 1:chooseBoard
activate GameGenerator
loop "<do while (input!=NULL>)"

GameGenerator -> Shape : 1.1:availableShapes
activate Shape
Shape - -> GameGenerator : StringBuilder buffer
deactivate Shape
GameGenerator -> Shape : 1.2:valueOfIgnoreCase (input) (NULL)
activate Shape
Shape - -> GameGenerator: BOARD_ERROR
deactivate Shape

end

GameGenerator -> Shape : 1.3:valueOfIgnoreCase (input)
activate Shape
Shape - -> GameGenerator 
deactivate Shape
GameGenerator -> Board : 1.4:new
activate Board

Board - -> GameGenerator
deactivate Board
return
@enduml

PlantUML version 1.2021.16(Wed Dec 08 17:25:22 UTC 2021)
(GPL source distribution)
Java Runtime: OpenJDK Runtime Environment
JVM: OpenJDK 64-Bit Server VM
Default Encoding: UTF-8
Language: en
Country: US
--></g></svg>