<?xml version="1.0" encoding="UTF-8" standalone="no"?><svg xmlns="http://www.w3.org/2000/svg" xmlns:xlink="http://www.w3.org/1999/xlink" contentScriptType="application/ecmascript" contentStyleType="text/css" height="1181px" preserveAspectRatio="none" style="width:973px;height:1181px;background:#FFFFFF;" version="1.1" viewBox="0 0 973 1181" width="973px" zoomAndPan="magnify"><defs><filter height="300%" id="fv4dkkedt7czi" width="300%" x="-1" y="-1"><feGaussianBlur result="blurOut" stdDeviation="2.0"/><feColorMatrix in="blurOut" result="blurOut2" type="matrix" values="0 0 0 0 0 0 0 0 0 0 0 0 0 0 0 0 0 0 .4 0"/><feOffset dx="4.0" dy="4.0" in="blurOut2" result="blurOut3"/><feBlend in="SourceGraphic" in2="blurOut3" mode="normal"/></filter></defs><g><rect fill="#FFFFFF" filter="url(#fv4dkkedt7czi)" height="1048.3203" style="stroke:#A80036;stroke-width:1.0;" width="10" x="106.5" y="71.4297"/><rect fill="#FFFFFF" filter="url(#fv4dkkedt7czi)" height="25" style="stroke:#A80036;stroke-width:1.0;" width="10" x="111.5" y="156.8281"/><rect fill="#FFFFFF" filter="url(#fv4dkkedt7czi)" height="25" style="stroke:#A80036;stroke-width:1.0;" width="10" x="111.5" y="663.4219"/><rect fill="#FFFFFF" filter="url(#fv4dkkedt7czi)" height="40.1328" style="stroke:#A80036;stroke-width:1.0;" width="10" x="111.5" y="872.0859"/><rect fill="#FFFFFF" filter="url(#fv4dkkedt7czi)" height="167.3984" style="stroke:#A80036;stroke-width:1.0;" width="10" x="231.5" y="224.9609"/><rect fill="#FFFFFF" filter="url(#fv4dkkedt7czi)" height="94.1328" style="stroke:#A80036;stroke-width:1.0;" width="10" x="236.5" y="262.0938"/><rect fill="#FFFFFF" filter="url(#fv4dkkedt7czi)" height="25" style="stroke:#A80036;stroke-width:1.0;" width="10" x="241.5" y="304.2266"/><rect fill="#FFFFFF" filter="url(#fv4dkkedt7czi)" height="29.1328" style="stroke:#A80036;stroke-width:1.0;" width="10" x="231.5" y="421.4922"/><rect fill="#FFFFFF" filter="url(#fv4dkkedt7czi)" height="57.1328" style="stroke:#A80036;stroke-width:1.0;" width="10" x="407.5" y="479.7578"/><rect fill="#FFFFFF" filter="url(#fv4dkkedt7czi)" height="14" style="stroke:#A80036;stroke-width:1.0;" width="10" x="476.5" y="508.8906"/><rect fill="#FFFFFF" filter="url(#fv4dkkedt7czi)" height="29.1328" style="stroke:#A80036;stroke-width:1.0;" width="10" x="543" y="566.0234"/><rect fill="#FFFFFF" filter="url(#fv4dkkedt7czi)" height="29.1328" style="stroke:#A80036;stroke-width:1.0;" width="10" x="543" y="731.5547"/><rect fill="#FFFFFF" filter="url(#fv4dkkedt7czi)" height="14" style="stroke:#A80036;stroke-width:1.0;" width="10" x="634.5" y="813.9531"/><rect fill="#FFFFFF" filter="url(#fv4dkkedt7czi)" height="126.2656" style="stroke:#A80036;stroke-width:1.0;" width="10" x="768.5" y="972.4844"/><rect fill="#FFFFFF" filter="url(#fv4dkkedt7czi)" height="68.1328" style="stroke:#A80036;stroke-width:1.0;" width="10" x="773.5" y="1009.6172"/><rect fill="#FFFFFF" filter="url(#fv4dkkedt7czi)" height="14" style="stroke:#A80036;stroke-width:1.0;" width="10" x="897.5" y="1043.75"/><rect fill="#FFFFFF" filter="url(#fv4dkkedt7czi)" height="516.7266" style="stroke:#000000;stroke-width:2.0;" width="538.5" x="49" y="86.4297"/><rect fill="#FFFFFF" filter="url(#fv4dkkedt7czi)" height="86.2656" style="stroke:#000000;stroke-width:2.0;" width="187" x="59" y="110.5625"/><rect fill="#FFFFFF" filter="url(#fv4dkkedt7czi)" height="86.2656" style="stroke:#000000;stroke-width:2.0;" width="187" x="59" y="617.1563"/><rect fill="#FFFFFF" filter="url(#fv4dkkedt7czi)" height="60.2656" style="stroke:#000000;stroke-width:2.0;" width="642.5" x="59" y="775.6875"/><rect fill="#FFFFFF" filter="url(#fv4dkkedt7czi)" height="172.5313" style="stroke:#000000;stroke-width:2.0;" width="900.5" x="59" y="934.2188"/><line style="stroke:#A80036;stroke-width:1.0;stroke-dasharray:5.0,5.0;" x1="32" x2="32" y1="40.2969" y2="1137.75"/><line style="stroke:#A80036;stroke-width:1.0;stroke-dasharray:5.0,5.0;" x1="111" x2="111" y1="40.2969" y2="1137.75"/><line style="stroke:#A80036;stroke-width:1.0;stroke-dasharray:5.0,5.0;" x1="236" x2="236" y1="40.2969" y2="1137.75"/><line style="stroke:#A80036;stroke-width:1.0;stroke-dasharray:5.0,5.0;" x1="412.5" x2="412.5" y1="40.2969" y2="1137.75"/><line style="stroke:#A80036;stroke-width:1.0;stroke-dasharray:5.0,5.0;" x1="481.5" x2="481.5" y1="40.2969" y2="1137.75"/><line style="stroke:#A80036;stroke-width:1.0;stroke-dasharray:5.0,5.0;" x1="547.5" x2="547.5" y1="40.2969" y2="1137.75"/><line style="stroke:#A80036;stroke-width:1.0;stroke-dasharray:5.0,5.0;" x1="639.5" x2="639.5" y1="40.2969" y2="1137.75"/><line style="stroke:#A80036;stroke-width:1.0;stroke-dasharray:5.0,5.0;" x1="773.5" x2="773.5" y1="40.2969" y2="1137.75"/><line style="stroke:#A80036;stroke-width:1.0;stroke-dasharray:5.0,5.0;" x1="902.5" x2="902.5" y1="40.2969" y2="1137.75"/><rect fill="#FEFECE" filter="url(#fv4dkkedt7czi)" height="30.2969" style="stroke:#A80036;stroke-width:1.5;" width="50" x="5" y="5"/><text fill="#000000" font-family="sans-serif" font-size="14" lengthAdjust="spacing" textLength="36" x="12" y="24.9951">Actor</text><rect fill="#FEFECE" filter="url(#fv4dkkedt7czi)" height="30.2969" style="stroke:#A80036;stroke-width:1.5;" width="50" x="5" y="1136.75"/><text fill="#000000" font-family="sans-serif" font-size="14" lengthAdjust="spacing" textLength="36" x="12" y="1156.7451">Actor</text><rect fill="#FEFECE" filter="url(#fv4dkkedt7czi)" height="30.2969" style="stroke:#A80036;stroke-width:1.5;" width="81" x="69" y="5"/><text fill="#000000" font-family="sans-serif" font-size="14" lengthAdjust="spacing" textLength="67" x="76" y="24.9951">Controller</text><rect fill="#FEFECE" filter="url(#fv4dkkedt7czi)" height="30.2969" style="stroke:#A80036;stroke-width:1.5;" width="81" x="69" y="1136.75"/><text fill="#000000" font-family="sans-serif" font-size="14" lengthAdjust="spacing" textLength="67" x="76" y="1156.7451">Controller</text><rect fill="#FEFECE" filter="url(#fv4dkkedt7czi)" height="30.2969" style="stroke:#A80036;stroke-width:1.5;" width="85" x="192" y="5"/><text fill="#000000" font-family="sans-serif" font-size="14" lengthAdjust="spacing" textLength="71" x="199" y="24.9951">Command</text><rect fill="#FEFECE" filter="url(#fv4dkkedt7czi)" height="30.2969" style="stroke:#A80036;stroke-width:1.5;" width="85" x="192" y="1136.75"/><text fill="#000000" font-family="sans-serif" font-size="14" lengthAdjust="spacing" textLength="71" x="199" y="1156.7451">Command</text><rect fill="#FEFECE" filter="url(#fv4dkkedt7czi)" height="30.2969" style="stroke:#A80036;stroke-width:1.5;" width="60" x="380.5" y="5"/><text fill="#000000" font-family="sans-serif" font-size="14" lengthAdjust="spacing" textLength="46" x="387.5" y="24.9951">Replay</text><rect fill="#FEFECE" filter="url(#fv4dkkedt7czi)" height="30.2969" style="stroke:#A80036;stroke-width:1.5;" width="60" x="380.5" y="1136.75"/><text fill="#000000" font-family="sans-serif" font-size="14" lengthAdjust="spacing" textLength="46" x="387.5" y="1156.7451">Replay</text><rect fill="#FEFECE" filter="url(#fv4dkkedt7czi)" height="30.2969" style="stroke:#A80036;stroke-width:1.5;" width="50" x="454.5" y="5"/><text fill="#000000" font-family="sans-serif" font-size="14" lengthAdjust="spacing" textLength="36" x="461.5" y="24.9951">State</text><rect fill="#FEFECE" filter="url(#fv4dkkedt7czi)" height="30.2969" style="stroke:#A80036;stroke-width:1.5;" width="50" x="454.5" y="1136.75"/><text fill="#000000" font-family="sans-serif" font-size="14" lengthAdjust="spacing" textLength="36" x="461.5" y="1156.7451">State</text><rect fill="#FEFECE" filter="url(#fv4dkkedt7czi)" height="30.2969" style="stroke:#A80036;stroke-width:1.5;" width="55" x="518.5" y="5"/><text fill="#000000" font-family="sans-serif" font-size="14" lengthAdjust="spacing" textLength="41" x="525.5" y="24.9951">Game</text><rect fill="#FEFECE" filter="url(#fv4dkkedt7czi)" height="30.2969" style="stroke:#A80036;stroke-width:1.5;" width="55" x="518.5" y="1136.75"/><text fill="#000000" font-family="sans-serif" font-size="14" lengthAdjust="spacing" textLength="41" x="525.5" y="1156.7451">Game</text><rect fill="#FEFECE" filter="url(#fv4dkkedt7czi)" height="30.2969" style="stroke:#A80036;stroke-width:1.5;" width="100" x="587.5" y="5"/><text fill="#000000" font-family="sans-serif" font-size="14" lengthAdjust="spacing" textLength="86" x="594.5" y="24.9951">GamePrinter</text><rect fill="#FEFECE" filter="url(#fv4dkkedt7czi)" height="30.2969" style="stroke:#A80036;stroke-width:1.5;" width="100" x="587.5" y="1136.75"/><text fill="#000000" font-family="sans-serif" font-size="14" lengthAdjust="spacing" textLength="86" x="594.5" y="1156.7451">GamePrinter</text><rect fill="#FEFECE" filter="url(#fv4dkkedt7czi)" height="30.2969" style="stroke:#A80036;stroke-width:1.5;" width="140" x="701.5" y="5"/><text fill="#000000" font-family="sans-serif" font-size="14" lengthAdjust="spacing" textLength="126" x="708.5" y="24.9951">SaveLoadManager</text><rect fill="#FEFECE" filter="url(#fv4dkkedt7czi)" height="30.2969" style="stroke:#A80036;stroke-width:1.5;" width="140" x="701.5" y="1136.75"/><text fill="#000000" font-family="sans-serif" font-size="14" lengthAdjust="spacing" textLength="126" x="708.5" y="1156.7451">SaveLoadManager</text><rect fill="#FEFECE" filter="url(#fv4dkkedt7czi)" height="30.2969" style="stroke:#A80036;stroke-width:1.5;" width="90" x="855.5" y="5"/><text fill="#000000" font-family="sans-serif" font-size="14" lengthAdjust="spacing" textLength="76" x="862.5" y="24.9951">Reportable</text><rect fill="#FEFECE" filter="url(#fv4dkkedt7czi)" height="30.2969" style="stroke:#A80036;stroke-width:1.5;" width="90" x="855.5" y="1136.75"/><text fill="#000000" font-family="sans-serif" font-size="14" lengthAdjust="spacing" textLength="76" x="862.5" y="1156.7451">Reportable</text><rect fill="#FFFFFF" filter="url(#fv4dkkedt7czi)" height="1048.3203" style="stroke:#A80036;stroke-width:1.0;" width="10" x="106.5" y="71.4297"/><rect fill="#FFFFFF" filter="url(#fv4dkkedt7czi)" height="25" style="stroke:#A80036;stroke-width:1.0;" width="10" x="111.5" y="156.8281"/><rect fill="#FFFFFF" filter="url(#fv4dkkedt7czi)" height="25" style="stroke:#A80036;stroke-width:1.0;" width="10" x="111.5" y="663.4219"/><rect fill="#FFFFFF" filter="url(#fv4dkkedt7czi)" height="40.1328" style="stroke:#A80036;stroke-width:1.0;" width="10" x="111.5" y="872.0859"/><rect fill="#FFFFFF" filter="url(#fv4dkkedt7czi)" height="167.3984" style="stroke:#A80036;stroke-width:1.0;" width="10" x="231.5" y="224.9609"/><rect fill="#FFFFFF" filter="url(#fv4dkkedt7czi)" height="94.1328" style="stroke:#A80036;stroke-width:1.0;" width="10" x="236.5" y="262.0938"/><rect fill="#FFFFFF" filter="url(#fv4dkkedt7czi)" height="25" style="stroke:#A80036;stroke-width:1.0;" width="10" x="241.5" y="304.2266"/><rect fill="#FFFFFF" filter="url(#fv4dkkedt7czi)" height="29.1328" style="stroke:#A80036;stroke-width:1.0;" width="10" x="231.5" y="421.4922"/><rect fill="#FFFFFF" filter="url(#fv4dkkedt7czi)" height="57.1328" style="stroke:#A80036;stroke-width:1.0;" width="10" x="407.5" y="479.7578"/><rect fill="#FFFFFF" filter="url(#fv4dkkedt7czi)" height="14" style="stroke:#A80036;stroke-width:1.0;" width="10" x="476.5" y="508.8906"/><rect fill="#FFFFFF" filter="url(#fv4dkkedt7czi)" height="29.1328" style="stroke:#A80036;stroke-width:1.0;" width="10" x="543" y="566.0234"/><rect fill="#FFFFFF" filter="url(#fv4dkkedt7czi)" height="29.1328" style="stroke:#A80036;stroke-width:1.0;" width="10" x="543" y="731.5547"/><rect fill="#FFFFFF" filter="url(#fv4dkkedt7czi)" height="14" style="stroke:#A80036;stroke-width:1.0;" width="10" x="634.5" y="813.9531"/><rect fill="#FFFFFF" filter="url(#fv4dkkedt7czi)" height="126.2656" style="stroke:#A80036;stroke-width:1.0;" width="10" x="768.5" y="972.4844"/><rect fill="#FFFFFF" filter="url(#fv4dkkedt7czi)" height="68.1328" style="stroke:#A80036;stroke-width:1.0;" width="10" x="773.5" y="1009.6172"/><rect fill="#FFFFFF" filter="url(#fv4dkkedt7czi)" height="14" style="stroke:#A80036;stroke-width:1.0;" width="10" x="897.5" y="1043.75"/><polygon fill="#A80036" points="94.5,67.4297,104.5,71.4297,94.5,75.4297,98.5,71.4297" style="stroke:#A80036;stroke-width:1.0;"/><line style="stroke:#A80036;stroke-width:1.0;" x1="32" x2="100.5" y1="71.4297" y2="71.4297"/><text fill="#000000" font-family="sans-serif" font-size="13" lengthAdjust="spacing" textLength="26" x="39" y="66.3638">play</text><path d="M49,86.4297 L126,86.4297 L126,93.4297 L116,103.4297 L49,103.4297 L49,86.4297 " fill="#EEEEEE" style="stroke:#000000;stroke-width:1.0;"/><rect fill="none" height="516.7266" style="stroke:#000000;stroke-width:2.0;" width="538.5" x="49" y="86.4297"/><text fill="#000000" font-family="sans-serif" font-size="13" font-weight="bold" lengthAdjust="spacing" textLength="32" x="64" y="99.4966">loop</text><text fill="#000000" font-family="sans-serif" font-size="11" font-weight="bold" lengthAdjust="spacing" textLength="169" x="141" y="98.6401">[gameIsFinished == false]</text><path d="M59,110.5625 L123,110.5625 L123,117.5625 L113,127.5625 L59,127.5625 L59,110.5625 " fill="#EEEEEE" style="stroke:#000000;stroke-width:1.0;"/><rect fill="none" height="86.2656" style="stroke:#000000;stroke-width:2.0;" width="187" x="59" y="110.5625"/><text fill="#000000" font-family="sans-serif" font-size="13" font-weight="bold" lengthAdjust="spacing" textLength="19" x="74" y="123.6294">alt</text><text fill="#000000" font-family="sans-serif" font-size="11" font-weight="bold" lengthAdjust="spacing" textLength="103" x="138" y="122.7729">[refreshDisplay]</text><line style="stroke:#A80036;stroke-width:1.0;" x1="116.5" x2="163.5" y1="143.8281" y2="143.8281"/><line style="stroke:#A80036;stroke-width:1.0;" x1="163.5" x2="163.5" y1="143.8281" y2="156.8281"/><line style="stroke:#A80036;stroke-width:1.0;" x1="122.5" x2="163.5" y1="156.8281" y2="156.8281"/><polygon fill="#A80036" points="132.5,152.8281,122.5,156.8281,132.5,160.8281,128.5,156.8281" style="stroke:#A80036;stroke-width:1.0;"/><text fill="#000000" font-family="sans-serif" font-size="13" lengthAdjust="spacing" textLength="68" x="128.5" y="138.7622">printGame</text><line style="stroke:#A80036;stroke-width:1.0;stroke-dasharray:2.0,2.0;" x1="121.5" x2="163.5" y1="180.8281" y2="180.8281"/><line style="stroke:#A80036;stroke-width:1.0;stroke-dasharray:2.0,2.0;" x1="163.5" x2="163.5" y1="180.8281" y2="193.8281"/><line style="stroke:#A80036;stroke-width:1.0;stroke-dasharray:2.0,2.0;" x1="116.5" x2="163.5" y1="193.8281" y2="193.8281"/><polygon fill="#A80036" points="126.5,189.8281,116.5,193.8281,126.5,197.8281,122.5,193.8281" style="stroke:#A80036;stroke-width:1.0;"/><polygon fill="#A80036" points="219.5,220.9609,229.5,224.9609,219.5,228.9609,223.5,224.9609" style="stroke:#A80036;stroke-width:1.0;"/><line style="stroke:#A80036;stroke-width:1.0;" x1="116.5" x2="225.5" y1="224.9609" y2="224.9609"/><text fill="#000000" font-family="sans-serif" font-size="13" lengthAdjust="spacing" textLength="88" x="123.5" y="219.895">getCommand</text><line style="stroke:#A80036;stroke-width:1.0;" x1="241.5" x2="288.5" y1="249.0938" y2="249.0938"/><line style="stroke:#A80036;stroke-width:1.0;" x1="288.5" x2="288.5" y1="249.0938" y2="262.0938"/><line style="stroke:#A80036;stroke-width:1.0;" x1="247.5" x2="288.5" y1="262.0938" y2="262.0938"/><polygon fill="#A80036" points="257.5,258.0938,247.5,262.0938,257.5,266.0938,253.5,262.0938" style="stroke:#A80036;stroke-width:1.0;"/><text fill="#000000" font-family="sans-serif" font-size="13" lengthAdjust="spacing" textLength="36" x="253.5" y="244.0278">parse</text><line style="stroke:#A80036;stroke-width:1.0;" x1="246.5" x2="293.5" y1="291.2266" y2="291.2266"/><line style="stroke:#A80036;stroke-width:1.0;" x1="293.5" x2="293.5" y1="291.2266" y2="304.2266"/><line style="stroke:#A80036;stroke-width:1.0;" x1="252.5" x2="293.5" y1="304.2266" y2="304.2266"/><polygon fill="#A80036" points="262.5,300.2266,252.5,304.2266,262.5,308.2266,258.5,304.2266" style="stroke:#A80036;stroke-width:1.0;"/><text fill="#000000" font-family="sans-serif" font-size="13" lengthAdjust="spacing" textLength="147" x="258.5" y="286.1606">matchCommandName</text><line style="stroke:#A80036;stroke-width:1.0;stroke-dasharray:2.0,2.0;" x1="251.5" x2="293.5" y1="328.2266" y2="328.2266"/><line style="stroke:#A80036;stroke-width:1.0;stroke-dasharray:2.0,2.0;" x1="293.5" x2="293.5" y1="328.2266" y2="341.2266"/><line style="stroke:#A80036;stroke-width:1.0;stroke-dasharray:2.0,2.0;" x1="246.5" x2="293.5" y1="341.2266" y2="341.2266"/><polygon fill="#A80036" points="256.5,337.2266,246.5,341.2266,256.5,345.2266,252.5,341.2266" style="stroke:#A80036;stroke-width:1.0;"/><line style="stroke:#A80036;stroke-width:1.0;stroke-dasharray:2.0,2.0;" x1="246.5" x2="288.5" y1="355.2266" y2="355.2266"/><line style="stroke:#A80036;stroke-width:1.0;stroke-dasharray:2.0,2.0;" x1="288.5" x2="288.5" y1="355.2266" y2="368.2266"/><line style="stroke:#A80036;stroke-width:1.0;stroke-dasharray:2.0,2.0;" x1="241.5" x2="288.5" y1="368.2266" y2="368.2266"/><polygon fill="#A80036" points="251.5,364.2266,241.5,368.2266,251.5,372.2266,247.5,368.2266" style="stroke:#A80036;stroke-width:1.0;"/><polygon fill="#A80036" points="127.5,388.3594,117.5,392.3594,127.5,396.3594,123.5,392.3594" style="stroke:#A80036;stroke-width:1.0;"/><line style="stroke:#A80036;stroke-width:1.0;stroke-dasharray:2.0,2.0;" x1="121.5" x2="235.5" y1="392.3594" y2="392.3594"/><text fill="#000000" font-family="sans-serif" font-size="13" lengthAdjust="spacing" textLength="65" x="133.5" y="387.2935">command</text><polygon fill="#A80036" points="219.5,417.4922,229.5,421.4922,219.5,425.4922,223.5,421.4922" style="stroke:#A80036;stroke-width:1.0;"/><line style="stroke:#A80036;stroke-width:1.0;" x1="116.5" x2="225.5" y1="421.4922" y2="421.4922"/><text fill="#000000" font-family="sans-serif" font-size="13" lengthAdjust="spacing" textLength="51" x="123.5" y="416.4263">execute</text><polygon fill="#A80036" points="127.5,446.625,117.5,450.625,127.5,454.625,123.5,450.625" style="stroke:#A80036;stroke-width:1.0;"/><line style="stroke:#A80036;stroke-width:1.0;stroke-dasharray:2.0,2.0;" x1="121.5" x2="235.5" y1="450.625" y2="450.625"/><text fill="#000000" font-family="sans-serif" font-size="13" lengthAdjust="spacing" textLength="91" x="133.5" y="445.5591">refreshDisplay</text><polygon fill="#A80036" points="395.5,475.7578,405.5,479.7578,395.5,483.7578,399.5,479.7578" style="stroke:#A80036;stroke-width:1.0;"/><line style="stroke:#A80036;stroke-width:1.0;" x1="116.5" x2="401.5" y1="479.7578" y2="479.7578"/><text fill="#000000" font-family="sans-serif" font-size="13" lengthAdjust="spacing" textLength="59" x="123.5" y="474.6919">addState</text><polygon fill="#A80036" points="464.5,504.8906,474.5,508.8906,464.5,512.8906,468.5,508.8906" style="stroke:#A80036;stroke-width:1.0;"/><line style="stroke:#A80036;stroke-width:1.0;" x1="417.5" x2="470.5" y1="508.8906" y2="508.8906"/><text fill="#000000" font-family="sans-serif" font-size="13" lengthAdjust="spacing" textLength="25" x="424.5" y="503.8247">new</text><polygon fill="#A80036" points="428.5,518.8906,418.5,522.8906,428.5,526.8906,424.5,522.8906" style="stroke:#A80036;stroke-width:1.0;"/><line style="stroke:#A80036;stroke-width:1.0;stroke-dasharray:2.0,2.0;" x1="422.5" x2="480.5" y1="522.8906" y2="522.8906"/><polygon fill="#A80036" points="127.5,532.8906,117.5,536.8906,127.5,540.8906,123.5,536.8906" style="stroke:#A80036;stroke-width:1.0;"/><line style="stroke:#A80036;stroke-width:1.0;stroke-dasharray:2.0,2.0;" x1="121.5" x2="411.5" y1="536.8906" y2="536.8906"/><polygon fill="#A80036" points="531,562.0234,541,566.0234,531,570.0234,535,566.0234" style="stroke:#A80036;stroke-width:1.0;"/><line style="stroke:#A80036;stroke-width:1.0;" x1="116.5" x2="537" y1="566.0234" y2="566.0234"/><text fill="#000000" font-family="sans-serif" font-size="13" lengthAdjust="spacing" textLength="62" x="123.5" y="560.9575">isFinished</text><polygon fill="#A80036" points="127.5,591.1563,117.5,595.1563,127.5,599.1563,123.5,595.1563" style="stroke:#A80036;stroke-width:1.0;"/><line style="stroke:#A80036;stroke-width:1.0;stroke-dasharray:2.0,2.0;" x1="121.5" x2="547" y1="595.1563" y2="595.1563"/><text fill="#000000" font-family="sans-serif" font-size="13" lengthAdjust="spacing" textLength="99" x="133.5" y="590.0903">gameIsFinished</text><path d="M59,617.1563 L123,617.1563 L123,624.1563 L113,634.1563 L59,634.1563 L59,617.1563 " fill="#EEEEEE" style="stroke:#000000;stroke-width:1.0;"/><rect fill="none" height="86.2656" style="stroke:#000000;stroke-width:2.0;" width="187" x="59" y="617.1563"/><text fill="#000000" font-family="sans-serif" font-size="13" font-weight="bold" lengthAdjust="spacing" textLength="19" x="74" y="630.2231">alt</text><text fill="#000000" font-family="sans-serif" font-size="11" font-weight="bold" lengthAdjust="spacing" textLength="103" x="138" y="629.3667">[refreshDisplay]</text><line style="stroke:#A80036;stroke-width:1.0;" x1="116.5" x2="163.5" y1="650.4219" y2="650.4219"/><line style="stroke:#A80036;stroke-width:1.0;" x1="163.5" x2="163.5" y1="650.4219" y2="663.4219"/><line style="stroke:#A80036;stroke-width:1.0;" x1="122.5" x2="163.5" y1="663.4219" y2="663.4219"/><polygon fill="#A80036" points="132.5,659.4219,122.5,663.4219,132.5,667.4219,128.5,663.4219" style="stroke:#A80036;stroke-width:1.0;"/><text fill="#000000" font-family="sans-serif" font-size="13" lengthAdjust="spacing" textLength="68" x="128.5" y="645.356">printGame</text><line style="stroke:#A80036;stroke-width:1.0;stroke-dasharray:2.0,2.0;" x1="121.5" x2="163.5" y1="687.4219" y2="687.4219"/><line style="stroke:#A80036;stroke-width:1.0;stroke-dasharray:2.0,2.0;" x1="163.5" x2="163.5" y1="687.4219" y2="700.4219"/><line style="stroke:#A80036;stroke-width:1.0;stroke-dasharray:2.0,2.0;" x1="116.5" x2="163.5" y1="700.4219" y2="700.4219"/><polygon fill="#A80036" points="126.5,696.4219,116.5,700.4219,126.5,704.4219,122.5,700.4219" style="stroke:#A80036;stroke-width:1.0;"/><polygon fill="#A80036" points="531,727.5547,541,731.5547,531,735.5547,535,731.5547" style="stroke:#A80036;stroke-width:1.0;"/><line style="stroke:#A80036;stroke-width:1.0;" x1="116.5" x2="537" y1="731.5547" y2="731.5547"/><text fill="#000000" font-family="sans-serif" font-size="13" lengthAdjust="spacing" textLength="39" x="123.5" y="726.4888">exited</text><polygon fill="#A80036" points="127.5,756.6875,117.5,760.6875,127.5,764.6875,123.5,760.6875" style="stroke:#A80036;stroke-width:1.0;"/><line style="stroke:#A80036;stroke-width:1.0;stroke-dasharray:2.0,2.0;" x1="121.5" x2="547" y1="760.6875" y2="760.6875"/><text fill="#000000" font-family="sans-serif" font-size="13" lengthAdjust="spacing" textLength="39" x="133.5" y="755.6216">exited</text><path d="M59,775.6875 L123,775.6875 L123,782.6875 L113,792.6875 L59,792.6875 L59,775.6875 " fill="#EEEEEE" style="stroke:#000000;stroke-width:1.0;"/><rect fill="none" height="60.2656" style="stroke:#000000;stroke-width:2.0;" width="642.5" x="59" y="775.6875"/><text fill="#000000" font-family="sans-serif" font-size="13" font-weight="bold" lengthAdjust="spacing" textLength="19" x="74" y="788.7544">alt</text><text fill="#000000" font-family="sans-serif" font-size="11" font-weight="bold" lengthAdjust="spacing" textLength="50" x="138" y="787.8979">[exited]</text><polygon fill="#A80036" points="622.5,809.9531,632.5,813.9531,622.5,817.9531,626.5,813.9531" style="stroke:#A80036;stroke-width:1.0;"/><line style="stroke:#A80036;stroke-width:1.0;" x1="116.5" x2="628.5" y1="813.9531" y2="813.9531"/><text fill="#000000" font-family="sans-serif" font-size="13" lengthAdjust="spacing" textLength="82" x="123.5" y="808.8872">showRanking</text><polygon fill="#A80036" points="127.5,823.9531,117.5,827.9531,127.5,831.9531,123.5,827.9531" style="stroke:#A80036;stroke-width:1.0;"/><line style="stroke:#A80036;stroke-width:1.0;stroke-dasharray:2.0,2.0;" x1="121.5" x2="638.5" y1="827.9531" y2="827.9531"/><line style="stroke:#A80036;stroke-width:1.0;" x1="116.5" x2="163.5" y1="859.0859" y2="859.0859"/><line style="stroke:#A80036;stroke-width:1.0;" x1="163.5" x2="163.5" y1="859.0859" y2="872.0859"/><line style="stroke:#A80036;stroke-width:1.0;" x1="122.5" x2="163.5" y1="872.0859" y2="872.0859"/><polygon fill="#A80036" points="132.5,868.0859,122.5,872.0859,132.5,876.0859,128.5,872.0859" style="stroke:#A80036;stroke-width:1.0;"/><text fill="#000000" font-family="sans-serif" font-size="13" lengthAdjust="spacing" textLength="96" x="128.5" y="854.02">askSaveReplay</text><line style="stroke:#A80036;stroke-width:1.0;stroke-dasharray:2.0,2.0;" x1="121.5" x2="163.5" y1="911.2188" y2="911.2188"/><line style="stroke:#A80036;stroke-width:1.0;stroke-dasharray:2.0,2.0;" x1="163.5" x2="163.5" y1="911.2188" y2="924.2188"/><line style="stroke:#A80036;stroke-width:1.0;stroke-dasharray:2.0,2.0;" x1="116.5" x2="163.5" y1="924.2188" y2="924.2188"/><polygon fill="#A80036" points="126.5,920.2188,116.5,924.2188,126.5,928.2188,122.5,924.2188" style="stroke:#A80036;stroke-width:1.0;"/><text fill="#000000" font-family="sans-serif" font-size="13" lengthAdjust="spacing" textLength="72" x="128.5" y="906.1528">saveReplay</text><path d="M59,934.2188 L123,934.2188 L123,941.2188 L113,951.2188 L59,951.2188 L59,934.2188 " fill="#EEEEEE" style="stroke:#000000;stroke-width:1.0;"/><rect fill="none" height="172.5313" style="stroke:#000000;stroke-width:2.0;" width="900.5" x="59" y="934.2188"/><text fill="#000000" font-family="sans-serif" font-size="13" font-weight="bold" lengthAdjust="spacing" textLength="19" x="74" y="947.2856">alt</text><text fill="#000000" font-family="sans-serif" font-size="11" font-weight="bold" lengthAdjust="spacing" textLength="83" x="138" y="946.4292">[saveReplay]</text><polygon fill="#A80036" points="756.5,968.4844,766.5,972.4844,756.5,976.4844,760.5,972.4844" style="stroke:#A80036;stroke-width:1.0;"/><line style="stroke:#A80036;stroke-width:1.0;" x1="116.5" x2="762.5" y1="972.4844" y2="972.4844"/><text fill="#000000" font-family="sans-serif" font-size="13" lengthAdjust="spacing" textLength="72" x="123.5" y="967.4185">saveReplay</text><line style="stroke:#A80036;stroke-width:1.0;" x1="778.5" x2="825.5" y1="996.6172" y2="996.6172"/><line style="stroke:#A80036;stroke-width:1.0;" x1="825.5" x2="825.5" y1="996.6172" y2="1009.6172"/><line style="stroke:#A80036;stroke-width:1.0;" x1="784.5" x2="825.5" y1="1009.6172" y2="1009.6172"/><polygon fill="#A80036" points="794.5,1005.6172,784.5,1009.6172,794.5,1013.6172,790.5,1009.6172" style="stroke:#A80036;stroke-width:1.0;"/><text fill="#000000" font-family="sans-serif" font-size="13" lengthAdjust="spacing" textLength="72" x="790.5" y="991.5513">saveReplay</text><polygon fill="#A80036" points="885.5,1039.75,895.5,1043.75,885.5,1047.75,889.5,1043.75" style="stroke:#A80036;stroke-width:1.0;"/><line style="stroke:#A80036;stroke-width:1.0;" x1="783.5" x2="891.5" y1="1043.75" y2="1043.75"/><text fill="#000000" font-family="sans-serif" font-size="13" lengthAdjust="spacing" textLength="39" x="790.5" y="1038.6841">report</text><polygon fill="#A80036" points="794.5,1053.75,784.5,1057.75,794.5,1061.75,790.5,1057.75" style="stroke:#A80036;stroke-width:1.0;"/><line style="stroke:#A80036;stroke-width:1.0;stroke-dasharray:2.0,2.0;" x1="788.5" x2="901.5" y1="1057.75" y2="1057.75"/><line style="stroke:#A80036;stroke-width:1.0;stroke-dasharray:2.0,2.0;" x1="783.5" x2="825.5" y1="1076.75" y2="1076.75"/><line style="stroke:#A80036;stroke-width:1.0;stroke-dasharray:2.0,2.0;" x1="825.5" x2="825.5" y1="1076.75" y2="1089.75"/><line style="stroke:#A80036;stroke-width:1.0;stroke-dasharray:2.0,2.0;" x1="778.5" x2="825.5" y1="1089.75" y2="1089.75"/><polygon fill="#A80036" points="788.5,1085.75,778.5,1089.75,788.5,1093.75,784.5,1089.75" style="stroke:#A80036;stroke-width:1.0;"/><polygon fill="#A80036" points="127.5,1094.75,117.5,1098.75,127.5,1102.75,123.5,1098.75" style="stroke:#A80036;stroke-width:1.0;"/><line style="stroke:#A80036;stroke-width:1.0;stroke-dasharray:2.0,2.0;" x1="121.5" x2="772.5" y1="1098.75" y2="1098.75"/><polygon fill="#A80036" points="43,1115.75,33,1119.75,43,1123.75,39,1119.75" style="stroke:#A80036;stroke-width:1.0;"/><line style="stroke:#A80036;stroke-width:1.0;stroke-dasharray:2.0,2.0;" x1="37" x2="110.5" y1="1119.75" y2="1119.75"/><!--MD5=[286bfaa9ebb9a462dc963083efd3ad4f]
@startuml
participant Actor
Actor -> Controller : play
activate Controller
loop gameIsFinished == false
alt refreshDisplay
Controller -> Controller : printGame
activate Controller
Controller - -> Controller
deactivate Controller
end
Controller -> Command : getCommand
activate Command
Command -> Command : parse
activate Command
Command -> Command : matchCommandName
activate Command
Command - -> Command
deactivate Command
Command - -> Command
deactivate Command
Command - -> Controller : command
deactivate Command
Controller -> Command : execute
activate Command
Command - -> Controller : refreshDisplay
deactivate Command
Controller -> Replay : addState
activate Replay
Replay -> State : new
activate State
State - -> Replay
deactivate State
Replay - -> Controller
deactivate Replay
Controller -> Game : isFinished
activate Game
Game - -> Controller : gameIsFinished
deactivate Game
end
alt refreshDisplay
Controller -> Controller : printGame
activate Controller
Controller - -> Controller
deactivate Controller
end
Controller -> Game : exited
activate Game
Game - -> Controller : exited
deactivate Game
alt exited
Controller -> GamePrinter : showRanking
activate GamePrinter
GamePrinter - -> Controller
deactivate GamePrinter
end
Controller -> Controller : askSaveReplay
activate Controller
Controller - -> Controller : saveReplay
deactivate Controller
alt saveReplay
Controller -> SaveLoadManager : saveReplay
activate SaveLoadManager
SaveLoadManager -> SaveLoadManager : saveReplay
activate SaveLoadManager
SaveLoadManager -> Reportable : report
activate Reportable
Reportable - -> SaveLoadManager
deactivate Reportable
SaveLoadManager - -> SaveLoadManager
deactivate SaveLoadManager
SaveLoadManager - -> Controller
deactivate SaveLoadManager
end
return
@enduml

PlantUML version 1.2021.16(Wed Dec 08 17:25:22 UTC 2021)
(GPL source distribution)
Java Runtime: OpenJDK Runtime Environment
JVM: OpenJDK 64-Bit Server VM
Default Encoding: UTF-8
Language: en
Country: US
--></g></svg>