<?xml version="1.0" encoding="UTF-8" standalone="no"?><svg xmlns="http://www.w3.org/2000/svg" xmlns:xlink="http://www.w3.org/1999/xlink" contentScriptType="application/ecmascript" contentStyleType="text/css" height="373px" preserveAspectRatio="none" style="width:283px;height:373px;background:#FFFFFF;" version="1.1" viewBox="0 0 283 373" width="283px" zoomAndPan="magnify"><defs><filter height="300%" id="f1nzuz29lr5n0r" width="300%" x="-1" y="-1"><feGaussianBlur result="blurOut" stdDeviation="2.0"/><feColorMatrix in="blurOut" result="blurOut2" type="matrix" values="0 0 0 0 0 0 0 0 0 0 0 0 0 0 0 0 0 0 .4 0"/><feOffset dx="4.0" dy="4.0" in="blurOut2" result="blurOut3"/><feBlend in="SourceGraphic" in2="blurOut3" mode="normal"/></filter></defs><g><rect fill="#FFFFFF" filter="url(#f1nzuz29lr5n0r)" height="240.7969" style="stroke:#A80036;stroke-width:1.0;" width="10" x="131" y="71.4297"/><rect fill="#FFFFFF" filter="url(#f1nzuz29lr5n0r)" height="40.1328" style="stroke:#A80036;stroke-width:1.0;" width="10" x="136" y="108.5625"/><rect fill="#FFFFFF" filter="url(#f1nzuz29lr5n0r)" height="25" style="stroke:#A80036;stroke-width:1.0;" width="10" x="136" y="192.8281"/><rect fill="#FFFFFF" filter="url(#f1nzuz29lr5n0r)" height="29.1328" style="stroke:#A80036;stroke-width:1.0;" width="10" x="239" y="253.9609"/><line style="stroke:#A80036;stroke-width:1.0;stroke-dasharray:5.0,5.0;" x1="32" x2="32" y1="40.2969" y2="330.2266"/><line style="stroke:#A80036;stroke-width:1.0;stroke-dasharray:5.0,5.0;" x1="135.5" x2="135.5" y1="40.2969" y2="330.2266"/><line style="stroke:#A80036;stroke-width:1.0;stroke-dasharray:5.0,5.0;" x1="243.5" x2="243.5" y1="40.2969" y2="330.2266"/><rect fill="#FEFECE" filter="url(#f1nzuz29lr5n0r)" height="30.2969" style="stroke:#A80036;stroke-width:1.5;" width="50" x="5" y="5"/><text fill="#000000" font-family="sans-serif" font-size="14" lengthAdjust="spacing" textLength="36" x="12" y="24.9951">Actor</text><rect fill="#FEFECE" filter="url(#f1nzuz29lr5n0r)" height="30.2969" style="stroke:#A80036;stroke-width:1.5;" width="50" x="5" y="329.2266"/><text fill="#000000" font-family="sans-serif" font-size="14" lengthAdjust="spacing" textLength="36" x="12" y="349.2217">Actor</text><rect fill="#FEFECE" filter="url(#f1nzuz29lr5n0r)" height="30.2969" style="stroke:#A80036;stroke-width:1.5;" width="125" x="71.5" y="5"/><text fill="#000000" font-family="sans-serif" font-size="14" lengthAdjust="spacing" textLength="111" x="78.5" y="24.9951">GameGenerator</text><rect fill="#FEFECE" filter="url(#f1nzuz29lr5n0r)" height="30.2969" style="stroke:#A80036;stroke-width:1.5;" width="125" x="71.5" y="329.2266"/><text fill="#000000" font-family="sans-serif" font-size="14" lengthAdjust="spacing" textLength="111" x="78.5" y="349.2217">GameGenerator</text><rect fill="#FEFECE" filter="url(#f1nzuz29lr5n0r)" height="30.2969" style="stroke:#A80036;stroke-width:1.5;" width="55" x="214.5" y="5"/><text fill="#000000" font-family="sans-serif" font-size="14" lengthAdjust="spacing" textLength="41" x="221.5" y="24.9951">Game</text><rect fill="#FEFECE" filter="url(#f1nzuz29lr5n0r)" height="30.2969" style="stroke:#A80036;stroke-width:1.5;" width="55" x="214.5" y="329.2266"/><text fill="#000000" font-family="sans-serif" font-size="14" lengthAdjust="spacing" textLength="41" x="221.5" y="349.2217">Game</text><rect fill="#FFFFFF" filter="url(#f1nzuz29lr5n0r)" height="240.7969" style="stroke:#A80036;stroke-width:1.0;" width="10" x="131" y="71.4297"/><rect fill="#FFFFFF" filter="url(#f1nzuz29lr5n0r)" height="40.1328" style="stroke:#A80036;stroke-width:1.0;" width="10" x="136" y="108.5625"/><rect fill="#FFFFFF" filter="url(#f1nzuz29lr5n0r)" height="25" style="stroke:#A80036;stroke-width:1.0;" width="10" x="136" y="192.8281"/><rect fill="#FFFFFF" filter="url(#f1nzuz29lr5n0r)" height="29.1328" style="stroke:#A80036;stroke-width:1.0;" width="10" x="239" y="253.9609"/><polygon fill="#A80036" points="119,67.4297,129,71.4297,119,75.4297,123,71.4297" style="stroke:#A80036;stroke-width:1.0;"/><line style="stroke:#A80036;stroke-width:1.0;" x1="32" x2="125" y1="71.4297" y2="71.4297"/><text fill="#000000" font-family="sans-serif" font-size="13" lengthAdjust="spacing" textLength="80" x="39" y="66.3638">createGame</text><line style="stroke:#A80036;stroke-width:1.0;" x1="141" x2="188" y1="95.5625" y2="95.5625"/><line style="stroke:#A80036;stroke-width:1.0;" x1="188" x2="188" y1="95.5625" y2="108.5625"/><line style="stroke:#A80036;stroke-width:1.0;" x1="147" x2="188" y1="108.5625" y2="108.5625"/><polygon fill="#A80036" points="157,104.5625,147,108.5625,157,112.5625,153,108.5625" style="stroke:#A80036;stroke-width:1.0;"/><text fill="#000000" font-family="sans-serif" font-size="13" lengthAdjust="spacing" textLength="84" x="153" y="90.4966">chooseBoard</text><line style="stroke:#A80036;stroke-width:1.0;stroke-dasharray:2.0,2.0;" x1="146" x2="188" y1="147.6953" y2="147.6953"/><line style="stroke:#A80036;stroke-width:1.0;stroke-dasharray:2.0,2.0;" x1="188" x2="188" y1="147.6953" y2="160.6953"/><line style="stroke:#A80036;stroke-width:1.0;stroke-dasharray:2.0,2.0;" x1="141" x2="188" y1="160.6953" y2="160.6953"/><polygon fill="#A80036" points="151,156.6953,141,160.6953,151,164.6953,147,160.6953" style="stroke:#A80036;stroke-width:1.0;"/><text fill="#000000" font-family="sans-serif" font-size="13" lengthAdjust="spacing" textLength="38" x="153" y="142.6294">Board</text><line style="stroke:#A80036;stroke-width:1.0;" x1="141" x2="188" y1="179.8281" y2="179.8281"/><line style="stroke:#A80036;stroke-width:1.0;" x1="188" x2="188" y1="179.8281" y2="192.8281"/><line style="stroke:#A80036;stroke-width:1.0;" x1="147" x2="188" y1="192.8281" y2="192.8281"/><polygon fill="#A80036" points="157,188.8281,147,192.8281,157,196.8281,153,192.8281" style="stroke:#A80036;stroke-width:1.0;"/><text fill="#000000" font-family="sans-serif" font-size="13" lengthAdjust="spacing" textLength="79" x="153" y="174.7622">chooseColor</text><line style="stroke:#A80036;stroke-width:1.0;stroke-dasharray:2.0,2.0;" x1="146" x2="188" y1="216.8281" y2="216.8281"/><line style="stroke:#A80036;stroke-width:1.0;stroke-dasharray:2.0,2.0;" x1="188" x2="188" y1="216.8281" y2="229.8281"/><line style="stroke:#A80036;stroke-width:1.0;stroke-dasharray:2.0,2.0;" x1="141" x2="188" y1="229.8281" y2="229.8281"/><polygon fill="#A80036" points="151,225.8281,141,229.8281,151,233.8281,147,229.8281" style="stroke:#A80036;stroke-width:1.0;"/><polygon fill="#A80036" points="227,249.9609,237,253.9609,227,257.9609,231,253.9609" style="stroke:#A80036;stroke-width:1.0;"/><line style="stroke:#A80036;stroke-width:1.0;" x1="141" x2="233" y1="253.9609" y2="253.9609"/><text fill="#000000" font-family="sans-serif" font-size="13" lengthAdjust="spacing" textLength="25" x="148" y="248.895">new</text><polygon fill="#A80036" points="152,279.0938,142,283.0938,152,287.0938,148,283.0938" style="stroke:#A80036;stroke-width:1.0;"/><line style="stroke:#A80036;stroke-width:1.0;stroke-dasharray:2.0,2.0;" x1="146" x2="243" y1="283.0938" y2="283.0938"/><text fill="#000000" font-family="sans-serif" font-size="13" lengthAdjust="spacing" textLength="39" x="158" y="278.0278">Game</text><polygon fill="#A80036" points="43,308.2266,33,312.2266,43,316.2266,39,312.2266" style="stroke:#A80036;stroke-width:1.0;"/><line style="stroke:#A80036;stroke-width:1.0;stroke-dasharray:2.0,2.0;" x1="37" x2="135" y1="312.2266" y2="312.2266"/><text fill="#000000" font-family="sans-serif" font-size="13" lengthAdjust="spacing" textLength="39" x="49" y="307.1606">Game</text><!--MD5=[dd2fc18c6777a4764b572fedc5ddb3cd]
@startuml
participant Actor
Actor -> GameGenerator : createGame

activate GameGenerator

GameGenerator -> GameGenerator : chooseBoard
activate GameGenerator
GameGenerator - -> GameGenerator : Board
deactivate GameGenerator

GameGenerator -> GameGenerator : chooseColor
activate GameGenerator
GameGenerator - -> GameGenerator
deactivate GameGenerator

GameGenerator -> Game : new
activate Game
Game - -> GameGenerator : Game
deactivate Game

return Game
@enduml

PlantUML version 1.2021.16(Wed Dec 08 17:25:22 UTC 2021)
(GPL source distribution)
Java Runtime: OpenJDK Runtime Environment
JVM: OpenJDK 64-Bit Server VM
Default Encoding: UTF-8
Language: en
Country: US
--></g></svg>