<?xml version="1.0" encoding="UTF-8" standalone="no"?><svg xmlns="http://www.w3.org/2000/svg" xmlns:xlink="http://www.w3.org/1999/xlink" contentStyleType="text/css" height="1050px" preserveAspectRatio="none" style="width:682px;height:1050px;background:#FFFFFF;" version="1.1" viewBox="0 0 682 1050" width="682px" zoomAndPan="magnify"><defs/><g><rect fill="#FFFFFF" height="930.0547" style="stroke:#181818;stroke-width:1.0;" width="10" x="292" y="67.4297"/><rect fill="#FFFFFF" height="813.6563" style="stroke:#181818;stroke-width:1.0;" width="10" x="297" y="147.6953"/><rect fill="#FFFFFF" height="29.1328" style="stroke:#181818;stroke-width:1.0;" width="10" x="302" y="553.2891"/><rect fill="#FFFFFF" height="28" style="stroke:#181818;stroke-width:1.0;" width="10" x="302" y="780.0859"/><rect fill="#FFFFFF" height="28" style="stroke:#181818;stroke-width:1.0;" width="10" x="302" y="885.3516"/><rect fill="#FFFFFF" height="14" style="stroke:#181818;stroke-width:1.0;" width="10" x="523" y="96.5625"/><rect fill="#FFFFFF" height="29.1328" style="stroke:#181818;stroke-width:1.0;" width="10" x="523" y="181.8281"/><rect fill="#FFFFFF" height="29.1328" style="stroke:#181818;stroke-width:1.0;" width="10" x="523" y="264.2266"/><rect fill="#FFFFFF" height="341.0625" style="stroke:#181818;stroke-width:1.0;" width="10" x="523" y="346.625"/><rect fill="#FFFFFF" height="25" style="stroke:#181818;stroke-width:1.0;" width="10" x="528" y="383.7578"/><rect fill="#FFFFFF" height="40.1328" style="stroke:#181818;stroke-width:1.0;" width="10" x="528" y="452.8906"/><rect fill="#FFFFFF" height="25" style="stroke:#181818;stroke-width:1.0;" width="10" x="528" y="626.5547"/><rect height="716.3906" style="stroke:#000000;stroke-width:1.5;fill:none;" width="472" x="204" y="225.9609"/><rect height="387.3281" style="stroke:#000000;stroke-width:1.5;fill:none;" width="452" x="214" y="308.3594"/><rect height="75.3984" style="stroke:#000000;stroke-width:1.5;fill:none;" width="374" x="224" y="515.0234"/><rect height="225.6641" style="stroke:#000000;stroke-width:1.5;fill:none;" width="276" x="214" y="709.6875"/><rect height="89.2656" style="stroke:#000000;stroke-width:1.5;fill:none;" width="256" x="224" y="733.8203"/><rect height="89.2656" style="stroke:#000000;stroke-width:1.5;fill:none;" width="256" x="224" y="839.0859"/><line style="stroke:#181818;stroke-width:0.5;fill:none;stroke-dasharray:5.0,5.0;" x1="30" x2="30" y1="36.2969" y2="1015.4844"/><line style="stroke:#181818;stroke-width:0.5;fill:none;stroke-dasharray:5.0,5.0;" x1="297" x2="297" y1="36.2969" y2="1015.4844"/><line style="stroke:#181818;stroke-width:0.5;fill:none;stroke-dasharray:5.0,5.0;" x1="528" x2="528" y1="36.2969" y2="1015.4844"/><rect fill="#E2E2F0" height="30.2969" rx="2.5" ry="2.5" style="stroke:#181818;stroke-width:0.5;" width="50" x="5" y="5"/><text fill="#000000" font-family="sans-serif" font-size="14" lengthAdjust="spacing" textLength="36" x="12" y="24.9951">Actor</text><rect fill="#E2E2F0" height="30.2969" rx="2.5" ry="2.5" style="stroke:#181818;stroke-width:0.5;" width="50" x="5" y="1014.4844"/><text fill="#000000" font-family="sans-serif" font-size="14" lengthAdjust="spacing" textLength="36" x="12" y="1034.4795">Actor</text><rect fill="#E2E2F0" height="30.2969" rx="2.5" ry="2.5" style="stroke:#181818;stroke-width:0.5;" width="126" x="234" y="5"/><text fill="#000000" font-family="sans-serif" font-size="14" lengthAdjust="spacing" textLength="112" x="241" y="24.9951">MinimaxStrategy</text><rect fill="#E2E2F0" height="30.2969" rx="2.5" ry="2.5" style="stroke:#181818;stroke-width:0.5;" width="126" x="234" y="1014.4844"/><text fill="#000000" font-family="sans-serif" font-size="14" lengthAdjust="spacing" textLength="112" x="241" y="1034.4795">MinimaxStrategy</text><rect fill="#E2E2F0" height="30.2969" rx="2.5" ry="2.5" style="stroke:#181818;stroke-width:0.5;" width="120" x="468" y="5"/><text fill="#000000" font-family="sans-serif" font-size="14" lengthAdjust="spacing" textLength="106" x="475" y="24.9951">SimplifiedBoard</text><rect fill="#E2E2F0" height="30.2969" rx="2.5" ry="2.5" style="stroke:#181818;stroke-width:0.5;" width="120" x="468" y="1014.4844"/><text fill="#000000" font-family="sans-serif" font-size="14" lengthAdjust="spacing" textLength="106" x="475" y="1034.4795">SimplifiedBoard</text><rect fill="#FFFFFF" height="930.0547" style="stroke:#181818;stroke-width:1.0;" width="10" x="292" y="67.4297"/><rect fill="#FFFFFF" height="813.6563" style="stroke:#181818;stroke-width:1.0;" width="10" x="297" y="147.6953"/><rect fill="#FFFFFF" height="29.1328" style="stroke:#181818;stroke-width:1.0;" width="10" x="302" y="553.2891"/><rect fill="#FFFFFF" height="28" style="stroke:#181818;stroke-width:1.0;" width="10" x="302" y="780.0859"/><rect fill="#FFFFFF" height="28" style="stroke:#181818;stroke-width:1.0;" width="10" x="302" y="885.3516"/><rect fill="#FFFFFF" height="14" style="stroke:#181818;stroke-width:1.0;" width="10" x="523" y="96.5625"/><rect fill="#FFFFFF" height="29.1328" style="stroke:#181818;stroke-width:1.0;" width="10" x="523" y="181.8281"/><rect fill="#FFFFFF" height="29.1328" style="stroke:#181818;stroke-width:1.0;" width="10" x="523" y="264.2266"/><rect fill="#FFFFFF" height="341.0625" style="stroke:#181818;stroke-width:1.0;" width="10" x="523" y="346.625"/><rect fill="#FFFFFF" height="25" style="stroke:#181818;stroke-width:1.0;" width="10" x="528" y="383.7578"/><rect fill="#FFFFFF" height="40.1328" style="stroke:#181818;stroke-width:1.0;" width="10" x="528" y="452.8906"/><rect fill="#FFFFFF" height="25" style="stroke:#181818;stroke-width:1.0;" width="10" x="528" y="626.5547"/><polygon fill="#181818" points="280,63.4297,290,67.4297,280,71.4297,284,67.4297" style="stroke:#181818;stroke-width:1.0;"/><line style="stroke:#181818;stroke-width:1.0;" x1="30" x2="286" y1="67.4297" y2="67.4297"/><text fill="#000000" font-family="sans-serif" font-size="13" lengthAdjust="spacing" textLength="243" x="37" y="62.3638">calculateNextMove(ownerColor, state)</text><polygon fill="#181818" points="511,92.5625,521,96.5625,511,100.5625,515,96.5625" style="stroke:#181818;stroke-width:1.0;"/><line style="stroke:#181818;stroke-width:1.0;" x1="302" x2="517" y1="96.5625" y2="96.5625"/><text fill="#000000" font-family="sans-serif" font-size="13" lengthAdjust="spacing" textLength="99" x="309" y="91.4966">new(state, this)</text><polygon fill="#181818" points="313,106.5625,303,110.5625,313,114.5625,309,110.5625" style="stroke:#181818;stroke-width:1.0;"/><line style="stroke:#181818;stroke-width:1.0;stroke-dasharray:2.0,2.0;" x1="307" x2="527" y1="110.5625" y2="110.5625"/><line style="stroke:#181818;stroke-width:1.0;" x1="302" x2="349" y1="134.6953" y2="134.6953"/><line style="stroke:#181818;stroke-width:1.0;" x1="349" x2="349" y1="134.6953" y2="147.6953"/><line style="stroke:#181818;stroke-width:1.0;" x1="308" x2="349" y1="147.6953" y2="147.6953"/><polygon fill="#181818" points="318,143.6953,308,147.6953,318,151.6953,314,147.6953" style="stroke:#181818;stroke-width:1.0;"/><text fill="#000000" font-family="sans-serif" font-size="13" lengthAdjust="spacing" textLength="176" x="314" y="129.6294">simulate(color, initialDepth)</text><polygon fill="#181818" points="511,177.8281,521,181.8281,511,185.8281,515,181.8281" style="stroke:#181818;stroke-width:1.0;"/><line style="stroke:#181818;stroke-width:1.0;" x1="307" x2="517" y1="181.8281" y2="181.8281"/><text fill="#000000" font-family="sans-serif" font-size="13" lengthAdjust="spacing" textLength="123" x="314" y="176.7622">getSimulatedScore</text><polygon fill="#181818" points="318,206.9609,308,210.9609,318,214.9609,314,210.9609" style="stroke:#181818;stroke-width:1.0;"/><line style="stroke:#181818;stroke-width:1.0;stroke-dasharray:2.0,2.0;" x1="312" x2="527" y1="210.9609" y2="210.9609"/><text fill="#000000" font-family="sans-serif" font-size="13" lengthAdjust="spacing" textLength="83" x="324" y="205.895">currentScore</text><path d="M204,225.9609 L281,225.9609 L281,233.0938 L271,243.0938 L204,243.0938 L204,225.9609 " fill="#EEEEEE" style="stroke:#000000;stroke-width:1.5;"/><rect fill="none" height="716.3906" style="stroke:#000000;stroke-width:1.5;" width="472" x="204" y="225.9609"/><text fill="#000000" font-family="sans-serif" font-size="13" font-weight="bold" lengthAdjust="spacing" textLength="32" x="219" y="239.0278">loop</text><text fill="#000000" font-family="sans-serif" font-size="11" font-weight="bold" lengthAdjust="spacing" textLength="114" x="296" y="238.1714">[positionInRange]</text><polygon fill="#181818" points="511,260.2266,521,264.2266,511,268.2266,515,264.2266" style="stroke:#181818;stroke-width:1.0;"/><line style="stroke:#181818;stroke-width:1.0;" x1="307" x2="517" y1="264.2266" y2="264.2266"/><text fill="#000000" font-family="sans-serif" font-size="13" lengthAdjust="spacing" textLength="90" x="314" y="259.1606">tryToAddCube</text><polygon fill="#181818" points="318,289.3594,308,293.3594,318,297.3594,314,293.3594" style="stroke:#181818;stroke-width:1.0;"/><line style="stroke:#181818;stroke-width:1.0;stroke-dasharray:2.0,2.0;" x1="312" x2="527" y1="293.3594" y2="293.3594"/><text fill="#000000" font-family="sans-serif" font-size="13" lengthAdjust="spacing" textLength="79" x="324" y="288.2935">validPosition</text><path d="M214,308.3594 L278,308.3594 L278,315.4922 L268,325.4922 L214,325.4922 L214,308.3594 " fill="#EEEEEE" style="stroke:#000000;stroke-width:1.5;"/><rect fill="none" height="387.3281" style="stroke:#000000;stroke-width:1.5;" width="452" x="214" y="308.3594"/><text fill="#000000" font-family="sans-serif" font-size="13" font-weight="bold" lengthAdjust="spacing" textLength="19" x="229" y="321.4263">alt</text><text fill="#000000" font-family="sans-serif" font-size="11" font-weight="bold" lengthAdjust="spacing" textLength="145" x="293" y="320.5698">[validPosition == true]</text><polygon fill="#181818" points="511,342.625,521,346.625,511,350.625,515,346.625" style="stroke:#181818;stroke-width:1.0;"/><line style="stroke:#181818;stroke-width:1.0;" x1="307" x2="517" y1="346.625" y2="346.625"/><text fill="#000000" font-family="sans-serif" font-size="13" lengthAdjust="spacing" textLength="89" x="314" y="341.5591">simulateMove</text><line style="stroke:#181818;stroke-width:1.0;" x1="533" x2="580" y1="370.7578" y2="370.7578"/><line style="stroke:#181818;stroke-width:1.0;" x1="580" x2="580" y1="370.7578" y2="383.7578"/><line style="stroke:#181818;stroke-width:1.0;" x1="539" x2="580" y1="383.7578" y2="383.7578"/><polygon fill="#181818" points="549,379.7578,539,383.7578,549,387.7578,545,383.7578" style="stroke:#181818;stroke-width:1.0;"/><text fill="#000000" font-family="sans-serif" font-size="13" lengthAdjust="spacing" textLength="90" x="545" y="365.6919">applyChanges</text><line style="stroke:#181818;stroke-width:1.0;stroke-dasharray:2.0,2.0;" x1="538" x2="580" y1="407.7578" y2="407.7578"/><line style="stroke:#181818;stroke-width:1.0;stroke-dasharray:2.0,2.0;" x1="580" x2="580" y1="407.7578" y2="420.7578"/><line style="stroke:#181818;stroke-width:1.0;stroke-dasharray:2.0,2.0;" x1="533" x2="580" y1="420.7578" y2="420.7578"/><polygon fill="#181818" points="543,416.7578,533,420.7578,543,424.7578,539,420.7578" style="stroke:#181818;stroke-width:1.0;"/><line style="stroke:#181818;stroke-width:1.0;" x1="533" x2="580" y1="439.8906" y2="439.8906"/><line style="stroke:#181818;stroke-width:1.0;" x1="580" x2="580" y1="439.8906" y2="452.8906"/><line style="stroke:#181818;stroke-width:1.0;" x1="539" x2="580" y1="452.8906" y2="452.8906"/><polygon fill="#181818" points="549,448.8906,539,452.8906,549,456.8906,545,452.8906" style="stroke:#181818;stroke-width:1.0;"/><text fill="#000000" font-family="sans-serif" font-size="13" lengthAdjust="spacing" textLength="109" x="545" y="434.8247">updateNewScore</text><line style="stroke:#181818;stroke-width:1.0;stroke-dasharray:2.0,2.0;" x1="538" x2="580" y1="492.0234" y2="492.0234"/><line style="stroke:#181818;stroke-width:1.0;stroke-dasharray:2.0,2.0;" x1="580" x2="580" y1="492.0234" y2="505.0234"/><line style="stroke:#181818;stroke-width:1.0;stroke-dasharray:2.0,2.0;" x1="533" x2="580" y1="505.0234" y2="505.0234"/><polygon fill="#181818" points="543,501.0234,533,505.0234,543,509.0234,539,505.0234" style="stroke:#181818;stroke-width:1.0;"/><text fill="#000000" font-family="sans-serif" font-size="13" lengthAdjust="spacing" textLength="62" x="545" y="486.9575">newScore</text><path d="M224,515.0234 L288,515.0234 L288,522.1563 L278,532.1563 L224,532.1563 L224,515.0234 " fill="#EEEEEE" style="stroke:#000000;stroke-width:1.5;"/><rect fill="none" height="75.3984" style="stroke:#000000;stroke-width:1.5;" width="374" x="224" y="515.0234"/><text fill="#000000" font-family="sans-serif" font-size="13" font-weight="bold" lengthAdjust="spacing" textLength="19" x="239" y="528.0903">alt</text><text fill="#000000" font-family="sans-serif" font-size="11" font-weight="bold" lengthAdjust="spacing" textLength="72" x="303" y="527.2339">[depth &gt; 0]</text><polygon fill="#181818" points="323,549.2891,313,553.2891,323,557.2891,319,553.2891" style="stroke:#181818;stroke-width:1.0;"/><line style="stroke:#181818;stroke-width:1.0;" x1="317" x2="522" y1="553.2891" y2="553.2891"/><text fill="#000000" font-family="sans-serif" font-size="13" lengthAdjust="spacing" textLength="192" x="329" y="548.2231">simulate(nextColor, depth - 1)</text><polygon fill="#181818" points="511,578.4219,521,582.4219,511,586.4219,515,582.4219" style="stroke:#181818;stroke-width:1.0;"/><line style="stroke:#181818;stroke-width:1.0;stroke-dasharray:2.0,2.0;" x1="307" x2="517" y1="582.4219" y2="582.4219"/><text fill="#000000" font-family="sans-serif" font-size="13" lengthAdjust="spacing" textLength="62" x="314" y="577.356">newScore</text><line style="stroke:#181818;stroke-width:1.0;" x1="533" x2="580" y1="613.5547" y2="613.5547"/><line style="stroke:#181818;stroke-width:1.0;" x1="580" x2="580" y1="613.5547" y2="626.5547"/><line style="stroke:#181818;stroke-width:1.0;" x1="539" x2="580" y1="626.5547" y2="626.5547"/><polygon fill="#181818" points="549,622.5547,539,626.5547,549,630.5547,545,626.5547" style="stroke:#181818;stroke-width:1.0;"/><text fill="#000000" font-family="sans-serif" font-size="13" lengthAdjust="spacing" textLength="94" x="545" y="608.4888">revertChanges</text><line style="stroke:#181818;stroke-width:1.0;stroke-dasharray:2.0,2.0;" x1="538" x2="580" y1="650.5547" y2="650.5547"/><line style="stroke:#181818;stroke-width:1.0;stroke-dasharray:2.0,2.0;" x1="580" x2="580" y1="650.5547" y2="663.5547"/><line style="stroke:#181818;stroke-width:1.0;stroke-dasharray:2.0,2.0;" x1="533" x2="580" y1="663.5547" y2="663.5547"/><polygon fill="#181818" points="543,659.5547,533,663.5547,543,667.5547,539,663.5547" style="stroke:#181818;stroke-width:1.0;"/><polygon fill="#181818" points="318,683.6875,308,687.6875,318,691.6875,314,687.6875" style="stroke:#181818;stroke-width:1.0;"/><line style="stroke:#181818;stroke-width:1.0;stroke-dasharray:2.0,2.0;" x1="312" x2="527" y1="687.6875" y2="687.6875"/><text fill="#000000" font-family="sans-serif" font-size="13" lengthAdjust="spacing" textLength="62" x="324" y="682.6216">newScore</text><path d="M214,709.6875 L278,709.6875 L278,716.8203 L268,726.8203 L214,726.8203 L214,709.6875 " fill="#EEEEEE" style="stroke:#000000;stroke-width:1.5;"/><rect fill="none" height="225.6641" style="stroke:#000000;stroke-width:1.5;" width="276" x="214" y="709.6875"/><text fill="#000000" font-family="sans-serif" font-size="13" font-weight="bold" lengthAdjust="spacing" textLength="19" x="229" y="722.7544">alt</text><text fill="#000000" font-family="sans-serif" font-size="11" font-weight="bold" lengthAdjust="spacing" textLength="148" x="293" y="721.8979">[color == currentColor]</text><path d="M224,733.8203 L288,733.8203 L288,740.9531 L278,750.9531 L224,750.9531 L224,733.8203 " fill="#EEEEEE" style="stroke:#000000;stroke-width:1.5;"/><rect fill="none" height="89.2656" style="stroke:#000000;stroke-width:1.5;" width="256" x="224" y="733.8203"/><text fill="#000000" font-family="sans-serif" font-size="13" font-weight="bold" lengthAdjust="spacing" textLength="19" x="239" y="746.8872">alt</text><text fill="#000000" font-family="sans-serif" font-size="11" font-weight="bold" lengthAdjust="spacing" textLength="172" x="303" y="746.0308">[newScore &gt; currentScore]</text><line style="stroke:#181818;stroke-width:1.0;" x1="312" x2="354" y1="772.0859" y2="772.0859"/><line style="stroke:#181818;stroke-width:1.0;" x1="354" x2="354" y1="772.0859" y2="785.0859"/><line style="stroke:#181818;stroke-width:1.0;" x1="313" x2="354" y1="785.0859" y2="785.0859"/><polygon fill="#181818" points="323,781.0859,313,785.0859,323,789.0859,319,785.0859" style="stroke:#181818;stroke-width:1.0;"/><text fill="#000000" font-family="sans-serif" font-size="13" lengthAdjust="spacing" textLength="84" x="319" y="767.02">updateResult</text><line style="stroke:#000000;stroke-width:1.0;stroke-dasharray:2.0,2.0;" x1="214" x2="490" y1="831.0859" y2="831.0859"/><path d="M224,839.0859 L288,839.0859 L288,846.2188 L278,856.2188 L224,856.2188 L224,839.0859 " fill="#EEEEEE" style="stroke:#000000;stroke-width:1.5;"/><rect fill="none" height="89.2656" style="stroke:#000000;stroke-width:1.5;" width="256" x="224" y="839.0859"/><text fill="#000000" font-family="sans-serif" font-size="13" font-weight="bold" lengthAdjust="spacing" textLength="19" x="239" y="852.1528">alt</text><text fill="#000000" font-family="sans-serif" font-size="11" font-weight="bold" lengthAdjust="spacing" textLength="172" x="303" y="851.2964">[newScore &lt; currentScore]</text><line style="stroke:#181818;stroke-width:1.0;" x1="312" x2="354" y1="877.3516" y2="877.3516"/><line style="stroke:#181818;stroke-width:1.0;" x1="354" x2="354" y1="877.3516" y2="890.3516"/><line style="stroke:#181818;stroke-width:1.0;" x1="313" x2="354" y1="890.3516" y2="890.3516"/><polygon fill="#181818" points="323,886.3516,313,890.3516,323,894.3516,319,890.3516" style="stroke:#181818;stroke-width:1.0;"/><text fill="#000000" font-family="sans-serif" font-size="13" lengthAdjust="spacing" textLength="84" x="319" y="872.2856">updateResult</text><line style="stroke:#181818;stroke-width:1.0;stroke-dasharray:2.0,2.0;" x1="307" x2="349" y1="960.3516" y2="960.3516"/><line style="stroke:#181818;stroke-width:1.0;stroke-dasharray:2.0,2.0;" x1="349" x2="349" y1="960.3516" y2="973.3516"/><line style="stroke:#181818;stroke-width:1.0;stroke-dasharray:2.0,2.0;" x1="302" x2="349" y1="973.3516" y2="973.3516"/><polygon fill="#181818" points="312,969.3516,302,973.3516,312,977.3516,308,973.3516" style="stroke:#181818;stroke-width:1.0;"/><polygon fill="#181818" points="41,993.4844,31,997.4844,41,1001.4844,37,997.4844" style="stroke:#181818;stroke-width:1.0;"/><line style="stroke:#181818;stroke-width:1.0;stroke-dasharray:2.0,2.0;" x1="35" x2="296" y1="997.4844" y2="997.4844"/><text fill="#000000" font-family="sans-serif" font-size="13" lengthAdjust="spacing" textLength="75" x="47" y="992.4185">coordinates</text><!--MD5=[02a859b9cb827a6df7959b939f7b53e8]
@startuml
participant Actor
Actor -> MinimaxStrategy : calculateNextMove(ownerColor, state)
activate MinimaxStrategy
MinimaxStrategy -> SimplifiedBoard : new(state, this)
activate SimplifiedBoard
SimplifiedBoard - -> MinimaxStrategy
deactivate SimplifiedBoard
MinimaxStrategy -> MinimaxStrategy : simulate(color, initialDepth)
activate MinimaxStrategy
MinimaxStrategy -> SimplifiedBoard : getSimulatedScore
activate SimplifiedBoard
SimplifiedBoard - -> MinimaxStrategy : currentScore
loop positionInRange
deactivate SimplifiedBoard
MinimaxStrategy -> SimplifiedBoard : tryToAddCube
activate SimplifiedBoard
SimplifiedBoard - -> MinimaxStrategy : validPosition
alt validPosition == true
deactivate SimplifiedBoard
MinimaxStrategy -> SimplifiedBoard : simulateMove
activate SimplifiedBoard
SimplifiedBoard -> SimplifiedBoard : applyChanges
activate SimplifiedBoard
SimplifiedBoard - -> SimplifiedBoard
deactivate SimplifiedBoard
SimplifiedBoard -> SimplifiedBoard : updateNewScore
activate SimplifiedBoard
SimplifiedBoard - -> SimplifiedBoard : newScore
deactivate SimplifiedBoard
alt depth > 0
SimplifiedBoard -> MinimaxStrategy : simulate(nextColor, depth - 1)
activate MinimaxStrategy
MinimaxStrategy - -> SimplifiedBoard : newScore
deactivate MinimaxStrategy
end alt
SimplifiedBoard -> SimplifiedBoard : revertChanges
activate SimplifiedBoard
SimplifiedBoard - -> SimplifiedBoard
deactivate SimplifiedBoard
SimplifiedBoard - -> MinimaxStrategy : newScore
deactivate SimplifiedBoard
end alt
alt color == currentColor
alt newScore > currentScore
MinimaxStrategy -> MinimaxStrategy : updateResult
activate MinimaxStrategy
deactivate MinimaxStrategy
end alt
else 
alt newScore < currentScore
MinimaxStrategy -> MinimaxStrategy : updateResult
activate MinimaxStrategy
deactivate MinimaxStrategy
end alt
end
end loop
MinimaxStrategy - -> MinimaxStrategy
deactivate MinimaxStrategy
return coordinates
@enduml

PlantUML version 1.2022.4(Sat Apr 09 13:29:17 UTC 2022)
(GPL source distribution)
Java Runtime: OpenJDK Runtime Environment
JVM: OpenJDK 64-Bit Server VM
Default Encoding: UTF-8
Language: en
Country: US
--></g></svg>