<?xml version="1.0" encoding="UTF-8" standalone="no"?><svg xmlns="http://www.w3.org/2000/svg" xmlns:xlink="http://www.w3.org/1999/xlink" contentStyleType="text/css" height="1231px" preserveAspectRatio="none" style="width:762px;height:1231px;background:#FFFFFF;" version="1.1" viewBox="0 0 762 1231" width="762px" zoomAndPan="magnify"><defs/><g><rect fill="#FFFFFF" height="1110.5859" style="stroke:#181818;stroke-width:1.0;" width="10" x="292" y="67.4297"/><rect fill="#FFFFFF" height="1008.1875" style="stroke:#181818;stroke-width:1.0;" width="10" x="297" y="133.6953"/><rect fill="#FFFFFF" height="29.1328" style="stroke:#181818;stroke-width:1.0;" width="10" x="302" y="539.2891"/><rect fill="#FFFFFF" height="25" style="stroke:#181818;stroke-width:1.0;" width="10" x="302" y="766.0859"/><rect fill="#FFFFFF" height="25" style="stroke:#181818;stroke-width:1.0;" width="10" x="302" y="866.3516"/><rect fill="#FFFFFF" height="25" style="stroke:#181818;stroke-width:1.0;" width="10" x="302" y="968.6172"/><rect fill="#FFFFFF" height="25" style="stroke:#181818;stroke-width:1.0;" width="10" x="302" y="1068.8828"/><rect fill="#FFFFFF" height="29.1328" style="stroke:#181818;stroke-width:1.0;" width="10" x="603" y="167.8281"/><rect fill="#FFFFFF" height="29.1328" style="stroke:#181818;stroke-width:1.0;" width="10" x="603" y="250.2266"/><rect fill="#FFFFFF" height="341.0625" style="stroke:#181818;stroke-width:1.0;" width="10" x="603" y="332.625"/><rect fill="#FFFFFF" height="25" style="stroke:#181818;stroke-width:1.0;" width="10" x="608" y="369.7578"/><rect fill="#FFFFFF" height="40.1328" style="stroke:#181818;stroke-width:1.0;" width="10" x="608" y="438.8906"/><rect fill="#FFFFFF" height="25" style="stroke:#181818;stroke-width:1.0;" width="10" x="608" y="612.5547"/><rect height="910.9219" style="stroke:#000000;stroke-width:1.5;fill:none;" width="552" x="204" y="211.9609"/><rect height="387.3281" style="stroke:#000000;stroke-width:1.5;fill:none;" width="532" x="214" y="294.3594"/><rect height="75.3984" style="stroke:#000000;stroke-width:1.5;fill:none;" width="454" x="224" y="501.0234"/><rect height="420.1953" style="stroke:#000000;stroke-width:1.5;fill:none;" width="276" x="214" y="695.6875"/><rect height="86.2656" style="stroke:#000000;stroke-width:1.5;fill:none;" width="256" x="224" y="719.8203"/><rect height="86.2656" style="stroke:#000000;stroke-width:1.5;fill:none;" width="231" x="224" y="820.0859"/><rect height="86.2656" style="stroke:#000000;stroke-width:1.5;fill:none;" width="256" x="224" y="922.3516"/><rect height="86.2656" style="stroke:#000000;stroke-width:1.5;fill:none;" width="238" x="224" y="1022.6172"/><line style="stroke:#181818;stroke-width:0.5;fill:none;stroke-dasharray:5.0,5.0;" x1="30" x2="30" y1="36.2969" y2="1196.0156"/><line style="stroke:#181818;stroke-width:0.5;fill:none;stroke-dasharray:5.0,5.0;" x1="297" x2="297" y1="36.2969" y2="1196.0156"/><line style="stroke:#181818;stroke-width:0.5;fill:none;stroke-dasharray:5.0,5.0;" x1="608" x2="608" y1="36.2969" y2="1196.0156"/><rect fill="#E2E2F0" height="30.2969" rx="2.5" ry="2.5" style="stroke:#181818;stroke-width:0.5;" width="50" x="5" y="5"/><text fill="#000000" font-family="sans-serif" font-size="14" lengthAdjust="spacing" textLength="36" x="12" y="24.9951">Actor</text><rect fill="#E2E2F0" height="30.2969" rx="2.5" ry="2.5" style="stroke:#181818;stroke-width:0.5;" width="50" x="5" y="1195.0156"/><text fill="#000000" font-family="sans-serif" font-size="14" lengthAdjust="spacing" textLength="36" x="12" y="1215.0107">Actor</text><rect fill="#E2E2F0" height="30.2969" rx="2.5" ry="2.5" style="stroke:#181818;stroke-width:0.5;" width="126" x="234" y="5"/><text fill="#000000" font-family="sans-serif" font-size="14" lengthAdjust="spacing" textLength="112" x="241" y="24.9951">MinimaxStrategy</text><rect fill="#E2E2F0" height="30.2969" rx="2.5" ry="2.5" style="stroke:#181818;stroke-width:0.5;" width="126" x="234" y="1195.0156"/><text fill="#000000" font-family="sans-serif" font-size="14" lengthAdjust="spacing" textLength="112" x="241" y="1215.0107">MinimaxStrategy</text><rect fill="#E2E2F0" height="30.2969" rx="2.5" ry="2.5" style="stroke:#181818;stroke-width:0.5;" width="120" x="548" y="5"/><text fill="#000000" font-family="sans-serif" font-size="14" lengthAdjust="spacing" textLength="106" x="555" y="24.9951">SimplifiedBoard</text><rect fill="#E2E2F0" height="30.2969" rx="2.5" ry="2.5" style="stroke:#181818;stroke-width:0.5;" width="120" x="548" y="1195.0156"/><text fill="#000000" font-family="sans-serif" font-size="14" lengthAdjust="spacing" textLength="106" x="555" y="1215.0107">SimplifiedBoard</text><rect fill="#FFFFFF" height="1110.5859" style="stroke:#181818;stroke-width:1.0;" width="10" x="292" y="67.4297"/><rect fill="#FFFFFF" height="1008.1875" style="stroke:#181818;stroke-width:1.0;" width="10" x="297" y="133.6953"/><rect fill="#FFFFFF" height="29.1328" style="stroke:#181818;stroke-width:1.0;" width="10" x="302" y="539.2891"/><rect fill="#FFFFFF" height="25" style="stroke:#181818;stroke-width:1.0;" width="10" x="302" y="766.0859"/><rect fill="#FFFFFF" height="25" style="stroke:#181818;stroke-width:1.0;" width="10" x="302" y="866.3516"/><rect fill="#FFFFFF" height="25" style="stroke:#181818;stroke-width:1.0;" width="10" x="302" y="968.6172"/><rect fill="#FFFFFF" height="25" style="stroke:#181818;stroke-width:1.0;" width="10" x="302" y="1068.8828"/><rect fill="#FFFFFF" height="29.1328" style="stroke:#181818;stroke-width:1.0;" width="10" x="603" y="167.8281"/><rect fill="#FFFFFF" height="29.1328" style="stroke:#181818;stroke-width:1.0;" width="10" x="603" y="250.2266"/><rect fill="#FFFFFF" height="341.0625" style="stroke:#181818;stroke-width:1.0;" width="10" x="603" y="332.625"/><rect fill="#FFFFFF" height="25" style="stroke:#181818;stroke-width:1.0;" width="10" x="608" y="369.7578"/><rect fill="#FFFFFF" height="40.1328" style="stroke:#181818;stroke-width:1.0;" width="10" x="608" y="438.8906"/><rect fill="#FFFFFF" height="25" style="stroke:#181818;stroke-width:1.0;" width="10" x="608" y="612.5547"/><polygon fill="#181818" points="280,63.4297,290,67.4297,280,71.4297,284,67.4297" style="stroke:#181818;stroke-width:1.0;"/><line style="stroke:#181818;stroke-width:1.0;" x1="30" x2="286" y1="67.4297" y2="67.4297"/><text fill="#000000" font-family="sans-serif" font-size="13" lengthAdjust="spacing" textLength="243" x="37" y="62.3638">calculateNextMove(ownerColor, state)</text><polygon fill="#181818" points="596,92.5625,606,96.5625,596,100.5625,600,96.5625" style="stroke:#181818;stroke-width:1.0;"/><line style="stroke:#181818;stroke-width:1.0;stroke-dasharray:2.0,2.0;" x1="302" x2="602" y1="96.5625" y2="96.5625"/><text fill="#000000" font-family="sans-serif" font-size="13" lengthAdjust="spacing" textLength="99" x="309" y="91.4966">new(state, this)</text><line style="stroke:#181818;stroke-width:1.0;" x1="302" x2="349" y1="120.6953" y2="120.6953"/><line style="stroke:#181818;stroke-width:1.0;" x1="349" x2="349" y1="120.6953" y2="133.6953"/><line style="stroke:#181818;stroke-width:1.0;" x1="308" x2="349" y1="133.6953" y2="133.6953"/><polygon fill="#181818" points="318,129.6953,308,133.6953,318,137.6953,314,133.6953" style="stroke:#181818;stroke-width:1.0;"/><text fill="#000000" font-family="sans-serif" font-size="13" lengthAdjust="spacing" textLength="251" x="314" y="115.6294">simulate(color, initialDepth, -infty, infty)</text><polygon fill="#181818" points="591,163.8281,601,167.8281,591,171.8281,595,167.8281" style="stroke:#181818;stroke-width:1.0;"/><line style="stroke:#181818;stroke-width:1.0;" x1="307" x2="597" y1="167.8281" y2="167.8281"/><text fill="#000000" font-family="sans-serif" font-size="13" lengthAdjust="spacing" textLength="123" x="314" y="162.7622">getSimulatedScore</text><polygon fill="#181818" points="318,192.9609,308,196.9609,318,200.9609,314,196.9609" style="stroke:#181818;stroke-width:1.0;"/><line style="stroke:#181818;stroke-width:1.0;stroke-dasharray:2.0,2.0;" x1="312" x2="607" y1="196.9609" y2="196.9609"/><text fill="#000000" font-family="sans-serif" font-size="13" lengthAdjust="spacing" textLength="83" x="324" y="191.895">currentScore</text><path d="M204,211.9609 L281,211.9609 L281,219.0938 L271,229.0938 L204,229.0938 L204,211.9609 " fill="#EEEEEE" style="stroke:#000000;stroke-width:1.5;"/><rect fill="none" height="910.9219" style="stroke:#000000;stroke-width:1.5;" width="552" x="204" y="211.9609"/><text fill="#000000" font-family="sans-serif" font-size="13" font-weight="bold" lengthAdjust="spacing" textLength="32" x="219" y="225.0278">loop</text><text fill="#000000" font-family="sans-serif" font-size="11" font-weight="bold" lengthAdjust="spacing" textLength="114" x="296" y="224.1714">[positionInRange]</text><polygon fill="#181818" points="591,246.2266,601,250.2266,591,254.2266,595,250.2266" style="stroke:#181818;stroke-width:1.0;"/><line style="stroke:#181818;stroke-width:1.0;" x1="307" x2="597" y1="250.2266" y2="250.2266"/><text fill="#000000" font-family="sans-serif" font-size="13" lengthAdjust="spacing" textLength="90" x="314" y="245.1606">tryToAddCube</text><polygon fill="#181818" points="318,275.3594,308,279.3594,318,283.3594,314,279.3594" style="stroke:#181818;stroke-width:1.0;"/><line style="stroke:#181818;stroke-width:1.0;stroke-dasharray:2.0,2.0;" x1="312" x2="607" y1="279.3594" y2="279.3594"/><text fill="#000000" font-family="sans-serif" font-size="13" lengthAdjust="spacing" textLength="79" x="324" y="274.2935">validPosition</text><path d="M214,294.3594 L278,294.3594 L278,301.4922 L268,311.4922 L214,311.4922 L214,294.3594 " fill="#EEEEEE" style="stroke:#000000;stroke-width:1.5;"/><rect fill="none" height="387.3281" style="stroke:#000000;stroke-width:1.5;" width="532" x="214" y="294.3594"/><text fill="#000000" font-family="sans-serif" font-size="13" font-weight="bold" lengthAdjust="spacing" textLength="19" x="229" y="307.4263">alt</text><text fill="#000000" font-family="sans-serif" font-size="11" font-weight="bold" lengthAdjust="spacing" textLength="320" x="293" y="306.5698">[validPosition == true &amp;&amp; keepSearching == true]</text><polygon fill="#181818" points="591,328.625,601,332.625,591,336.625,595,332.625" style="stroke:#181818;stroke-width:1.0;"/><line style="stroke:#181818;stroke-width:1.0;" x1="307" x2="597" y1="332.625" y2="332.625"/><text fill="#000000" font-family="sans-serif" font-size="13" lengthAdjust="spacing" textLength="216" x="314" y="327.5591">simulateMove(depth, alpha, beta)</text><line style="stroke:#181818;stroke-width:1.0;" x1="613" x2="660" y1="356.7578" y2="356.7578"/><line style="stroke:#181818;stroke-width:1.0;" x1="660" x2="660" y1="356.7578" y2="369.7578"/><line style="stroke:#181818;stroke-width:1.0;" x1="619" x2="660" y1="369.7578" y2="369.7578"/><polygon fill="#181818" points="629,365.7578,619,369.7578,629,373.7578,625,369.7578" style="stroke:#181818;stroke-width:1.0;"/><text fill="#000000" font-family="sans-serif" font-size="13" lengthAdjust="spacing" textLength="90" x="625" y="351.6919">applyChanges</text><line style="stroke:#181818;stroke-width:1.0;stroke-dasharray:2.0,2.0;" x1="618" x2="660" y1="393.7578" y2="393.7578"/><line style="stroke:#181818;stroke-width:1.0;stroke-dasharray:2.0,2.0;" x1="660" x2="660" y1="393.7578" y2="406.7578"/><line style="stroke:#181818;stroke-width:1.0;stroke-dasharray:2.0,2.0;" x1="613" x2="660" y1="406.7578" y2="406.7578"/><polygon fill="#181818" points="623,402.7578,613,406.7578,623,410.7578,619,406.7578" style="stroke:#181818;stroke-width:1.0;"/><line style="stroke:#181818;stroke-width:1.0;" x1="613" x2="660" y1="425.8906" y2="425.8906"/><line style="stroke:#181818;stroke-width:1.0;" x1="660" x2="660" y1="425.8906" y2="438.8906"/><line style="stroke:#181818;stroke-width:1.0;" x1="619" x2="660" y1="438.8906" y2="438.8906"/><polygon fill="#181818" points="629,434.8906,619,438.8906,629,442.8906,625,438.8906" style="stroke:#181818;stroke-width:1.0;"/><text fill="#000000" font-family="sans-serif" font-size="13" lengthAdjust="spacing" textLength="109" x="625" y="420.8247">updateNewScore</text><line style="stroke:#181818;stroke-width:1.0;stroke-dasharray:2.0,2.0;" x1="618" x2="660" y1="478.0234" y2="478.0234"/><line style="stroke:#181818;stroke-width:1.0;stroke-dasharray:2.0,2.0;" x1="660" x2="660" y1="478.0234" y2="491.0234"/><line style="stroke:#181818;stroke-width:1.0;stroke-dasharray:2.0,2.0;" x1="613" x2="660" y1="491.0234" y2="491.0234"/><polygon fill="#181818" points="623,487.0234,613,491.0234,623,495.0234,619,491.0234" style="stroke:#181818;stroke-width:1.0;"/><text fill="#000000" font-family="sans-serif" font-size="13" lengthAdjust="spacing" textLength="62" x="625" y="472.9575">newScore</text><path d="M224,501.0234 L288,501.0234 L288,508.1563 L278,518.1563 L224,518.1563 L224,501.0234 " fill="#EEEEEE" style="stroke:#000000;stroke-width:1.5;"/><rect fill="none" height="75.3984" style="stroke:#000000;stroke-width:1.5;" width="454" x="224" y="501.0234"/><text fill="#000000" font-family="sans-serif" font-size="13" font-weight="bold" lengthAdjust="spacing" textLength="19" x="239" y="514.0903">alt</text><text fill="#000000" font-family="sans-serif" font-size="11" font-weight="bold" lengthAdjust="spacing" textLength="72" x="303" y="513.2339">[depth &gt; 0]</text><polygon fill="#181818" points="323,535.2891,313,539.2891,323,543.2891,319,539.2891" style="stroke:#181818;stroke-width:1.0;"/><line style="stroke:#181818;stroke-width:1.0;" x1="317" x2="602" y1="539.2891" y2="539.2891"/><text fill="#000000" font-family="sans-serif" font-size="13" lengthAdjust="spacing" textLength="272" x="329" y="534.2231">simulate(nextColor, depth - 1, alpha, beta)</text><polygon fill="#181818" points="591,564.4219,601,568.4219,591,572.4219,595,568.4219" style="stroke:#181818;stroke-width:1.0;"/><line style="stroke:#181818;stroke-width:1.0;stroke-dasharray:2.0,2.0;" x1="307" x2="597" y1="568.4219" y2="568.4219"/><text fill="#000000" font-family="sans-serif" font-size="13" lengthAdjust="spacing" textLength="62" x="314" y="563.356">newScore</text><line style="stroke:#181818;stroke-width:1.0;" x1="613" x2="660" y1="599.5547" y2="599.5547"/><line style="stroke:#181818;stroke-width:1.0;" x1="660" x2="660" y1="599.5547" y2="612.5547"/><line style="stroke:#181818;stroke-width:1.0;" x1="619" x2="660" y1="612.5547" y2="612.5547"/><polygon fill="#181818" points="629,608.5547,619,612.5547,629,616.5547,625,612.5547" style="stroke:#181818;stroke-width:1.0;"/><text fill="#000000" font-family="sans-serif" font-size="13" lengthAdjust="spacing" textLength="94" x="625" y="594.4888">revertChanges</text><line style="stroke:#181818;stroke-width:1.0;stroke-dasharray:2.0,2.0;" x1="618" x2="660" y1="636.5547" y2="636.5547"/><line style="stroke:#181818;stroke-width:1.0;stroke-dasharray:2.0,2.0;" x1="660" x2="660" y1="636.5547" y2="649.5547"/><line style="stroke:#181818;stroke-width:1.0;stroke-dasharray:2.0,2.0;" x1="613" x2="660" y1="649.5547" y2="649.5547"/><polygon fill="#181818" points="623,645.5547,613,649.5547,623,653.5547,619,649.5547" style="stroke:#181818;stroke-width:1.0;"/><polygon fill="#181818" points="318,669.6875,308,673.6875,318,677.6875,314,673.6875" style="stroke:#181818;stroke-width:1.0;"/><line style="stroke:#181818;stroke-width:1.0;stroke-dasharray:2.0,2.0;" x1="312" x2="607" y1="673.6875" y2="673.6875"/><text fill="#000000" font-family="sans-serif" font-size="13" lengthAdjust="spacing" textLength="62" x="324" y="668.6216">newScore</text><path d="M214,695.6875 L278,695.6875 L278,702.8203 L268,712.8203 L214,712.8203 L214,695.6875 " fill="#EEEEEE" style="stroke:#000000;stroke-width:1.5;"/><rect fill="none" height="420.1953" style="stroke:#000000;stroke-width:1.5;" width="276" x="214" y="695.6875"/><text fill="#000000" font-family="sans-serif" font-size="13" font-weight="bold" lengthAdjust="spacing" textLength="19" x="229" y="708.7544">alt</text><text fill="#000000" font-family="sans-serif" font-size="11" font-weight="bold" lengthAdjust="spacing" textLength="148" x="293" y="707.8979">[color == currentColor]</text><path d="M224,719.8203 L288,719.8203 L288,726.9531 L278,736.9531 L224,736.9531 L224,719.8203 " fill="#EEEEEE" style="stroke:#000000;stroke-width:1.5;"/><rect fill="none" height="86.2656" style="stroke:#000000;stroke-width:1.5;" width="256" x="224" y="719.8203"/><text fill="#000000" font-family="sans-serif" font-size="13" font-weight="bold" lengthAdjust="spacing" textLength="19" x="239" y="732.8872">alt</text><text fill="#000000" font-family="sans-serif" font-size="11" font-weight="bold" lengthAdjust="spacing" textLength="172" x="303" y="732.0308">[newScore &gt; currentScore]</text><line style="stroke:#181818;stroke-width:1.0;" x1="307" x2="354" y1="753.0859" y2="753.0859"/><line style="stroke:#181818;stroke-width:1.0;" x1="354" x2="354" y1="753.0859" y2="766.0859"/><line style="stroke:#181818;stroke-width:1.0;" x1="313" x2="354" y1="766.0859" y2="766.0859"/><polygon fill="#181818" points="323,762.0859,313,766.0859,323,770.0859,319,766.0859" style="stroke:#181818;stroke-width:1.0;"/><text fill="#000000" font-family="sans-serif" font-size="13" lengthAdjust="spacing" textLength="84" x="319" y="748.02">updateResult</text><line style="stroke:#181818;stroke-width:1.0;stroke-dasharray:2.0,2.0;" x1="312" x2="354" y1="790.0859" y2="790.0859"/><line style="stroke:#181818;stroke-width:1.0;stroke-dasharray:2.0,2.0;" x1="354" x2="354" y1="790.0859" y2="803.0859"/><line style="stroke:#181818;stroke-width:1.0;stroke-dasharray:2.0,2.0;" x1="307" x2="354" y1="803.0859" y2="803.0859"/><polygon fill="#181818" points="317,799.0859,307,803.0859,317,807.0859,313,803.0859" style="stroke:#181818;stroke-width:1.0;"/><path d="M224,820.0859 L288,820.0859 L288,827.2188 L278,837.2188 L224,837.2188 L224,820.0859 " fill="#EEEEEE" style="stroke:#000000;stroke-width:1.5;"/><rect fill="none" height="86.2656" style="stroke:#000000;stroke-width:1.5;" width="231" x="224" y="820.0859"/><text fill="#000000" font-family="sans-serif" font-size="13" font-weight="bold" lengthAdjust="spacing" textLength="19" x="239" y="833.1528">alt</text><text fill="#000000" font-family="sans-serif" font-size="11" font-weight="bold" lengthAdjust="spacing" textLength="147" x="303" y="832.2964">[currentScore &gt;= beta]</text><line style="stroke:#181818;stroke-width:1.0;" x1="307" x2="354" y1="853.3516" y2="853.3516"/><line style="stroke:#181818;stroke-width:1.0;" x1="354" x2="354" y1="853.3516" y2="866.3516"/><line style="stroke:#181818;stroke-width:1.0;" x1="313" x2="354" y1="866.3516" y2="866.3516"/><polygon fill="#181818" points="323,862.3516,313,866.3516,323,870.3516,319,866.3516" style="stroke:#181818;stroke-width:1.0;"/><text fill="#000000" font-family="sans-serif" font-size="13" lengthAdjust="spacing" textLength="92" x="319" y="848.2856">stopSearching</text><line style="stroke:#181818;stroke-width:1.0;stroke-dasharray:2.0,2.0;" x1="312" x2="354" y1="890.3516" y2="890.3516"/><line style="stroke:#181818;stroke-width:1.0;stroke-dasharray:2.0,2.0;" x1="354" x2="354" y1="890.3516" y2="903.3516"/><line style="stroke:#181818;stroke-width:1.0;stroke-dasharray:2.0,2.0;" x1="307" x2="354" y1="903.3516" y2="903.3516"/><polygon fill="#181818" points="317,899.3516,307,903.3516,317,907.3516,313,903.3516" style="stroke:#181818;stroke-width:1.0;"/><line style="stroke:#000000;stroke-width:1.0;stroke-dasharray:2.0,2.0;" x1="214" x2="490" y1="914.3516" y2="914.3516"/><path d="M224,922.3516 L288,922.3516 L288,929.4844 L278,939.4844 L224,939.4844 L224,922.3516 " fill="#EEEEEE" style="stroke:#000000;stroke-width:1.5;"/><rect fill="none" height="86.2656" style="stroke:#000000;stroke-width:1.5;" width="256" x="224" y="922.3516"/><text fill="#000000" font-family="sans-serif" font-size="13" font-weight="bold" lengthAdjust="spacing" textLength="19" x="239" y="935.4185">alt</text><text fill="#000000" font-family="sans-serif" font-size="11" font-weight="bold" lengthAdjust="spacing" textLength="172" x="303" y="934.562">[newScore &lt; currentScore]</text><line style="stroke:#181818;stroke-width:1.0;" x1="307" x2="354" y1="955.6172" y2="955.6172"/><line style="stroke:#181818;stroke-width:1.0;" x1="354" x2="354" y1="955.6172" y2="968.6172"/><line style="stroke:#181818;stroke-width:1.0;" x1="313" x2="354" y1="968.6172" y2="968.6172"/><polygon fill="#181818" points="323,964.6172,313,968.6172,323,972.6172,319,968.6172" style="stroke:#181818;stroke-width:1.0;"/><text fill="#000000" font-family="sans-serif" font-size="13" lengthAdjust="spacing" textLength="84" x="319" y="950.5513">updateResult</text><line style="stroke:#181818;stroke-width:1.0;stroke-dasharray:2.0,2.0;" x1="312" x2="354" y1="992.6172" y2="992.6172"/><line style="stroke:#181818;stroke-width:1.0;stroke-dasharray:2.0,2.0;" x1="354" x2="354" y1="992.6172" y2="1005.6172"/><line style="stroke:#181818;stroke-width:1.0;stroke-dasharray:2.0,2.0;" x1="307" x2="354" y1="1005.6172" y2="1005.6172"/><polygon fill="#181818" points="317,1001.6172,307,1005.6172,317,1009.6172,313,1005.6172" style="stroke:#181818;stroke-width:1.0;"/><path d="M224,1022.6172 L288,1022.6172 L288,1029.75 L278,1039.75 L224,1039.75 L224,1022.6172 " fill="#EEEEEE" style="stroke:#000000;stroke-width:1.5;"/><rect fill="none" height="86.2656" style="stroke:#000000;stroke-width:1.5;" width="238" x="224" y="1022.6172"/><text fill="#000000" font-family="sans-serif" font-size="13" font-weight="bold" lengthAdjust="spacing" textLength="19" x="239" y="1035.6841">alt</text><text fill="#000000" font-family="sans-serif" font-size="11" font-weight="bold" lengthAdjust="spacing" textLength="154" x="303" y="1034.8276">[currentScore &lt;= alpha]</text><line style="stroke:#181818;stroke-width:1.0;" x1="307" x2="354" y1="1055.8828" y2="1055.8828"/><line style="stroke:#181818;stroke-width:1.0;" x1="354" x2="354" y1="1055.8828" y2="1068.8828"/><line style="stroke:#181818;stroke-width:1.0;" x1="313" x2="354" y1="1068.8828" y2="1068.8828"/><polygon fill="#181818" points="323,1064.8828,313,1068.8828,323,1072.8828,319,1068.8828" style="stroke:#181818;stroke-width:1.0;"/><text fill="#000000" font-family="sans-serif" font-size="13" lengthAdjust="spacing" textLength="92" x="319" y="1050.8169">stopSearching</text><line style="stroke:#181818;stroke-width:1.0;stroke-dasharray:2.0,2.0;" x1="312" x2="354" y1="1092.8828" y2="1092.8828"/><line style="stroke:#181818;stroke-width:1.0;stroke-dasharray:2.0,2.0;" x1="354" x2="354" y1="1092.8828" y2="1105.8828"/><line style="stroke:#181818;stroke-width:1.0;stroke-dasharray:2.0,2.0;" x1="307" x2="354" y1="1105.8828" y2="1105.8828"/><polygon fill="#181818" points="317,1101.8828,307,1105.8828,317,1109.8828,313,1105.8828" style="stroke:#181818;stroke-width:1.0;"/><line style="stroke:#181818;stroke-width:1.0;stroke-dasharray:2.0,2.0;" x1="307" x2="349" y1="1140.8828" y2="1140.8828"/><line style="stroke:#181818;stroke-width:1.0;stroke-dasharray:2.0,2.0;" x1="349" x2="349" y1="1140.8828" y2="1153.8828"/><line style="stroke:#181818;stroke-width:1.0;stroke-dasharray:2.0,2.0;" x1="302" x2="349" y1="1153.8828" y2="1153.8828"/><polygon fill="#181818" points="312,1149.8828,302,1153.8828,312,1157.8828,308,1153.8828" style="stroke:#181818;stroke-width:1.0;"/><polygon fill="#181818" points="41,1174.0156,31,1178.0156,41,1182.0156,37,1178.0156" style="stroke:#181818;stroke-width:1.0;"/><line style="stroke:#181818;stroke-width:1.0;stroke-dasharray:2.0,2.0;" x1="35" x2="296" y1="1178.0156" y2="1178.0156"/><text fill="#000000" font-family="sans-serif" font-size="13" lengthAdjust="spacing" textLength="75" x="47" y="1172.9497">coordinates</text><!--MD5=[2012c464341dbd51b0a6b76cb69ea23b]
@startuml
participant Actor
Actor -> MinimaxStrategy : calculateNextMove(ownerColor, state)
activate MinimaxStrategy
MinimaxStrategy - -> SimplifiedBoard : new(state, this)
MinimaxStrategy -> MinimaxStrategy : simulate(color, initialDepth, -infty, infty)
activate MinimaxStrategy
MinimaxStrategy -> SimplifiedBoard : getSimulatedScore
activate SimplifiedBoard
SimplifiedBoard - -> MinimaxStrategy : currentScore
loop positionInRange
deactivate SimplifiedBoard
MinimaxStrategy -> SimplifiedBoard : tryToAddCube
activate SimplifiedBoard
SimplifiedBoard - -> MinimaxStrategy : validPosition
alt validPosition == true && keepSearching == true
deactivate SimplifiedBoard
MinimaxStrategy -> SimplifiedBoard : simulateMove(depth, alpha, beta)
activate SimplifiedBoard
SimplifiedBoard -> SimplifiedBoard : applyChanges
activate SimplifiedBoard
SimplifiedBoard - -> SimplifiedBoard
deactivate SimplifiedBoard
SimplifiedBoard -> SimplifiedBoard : updateNewScore
activate SimplifiedBoard
SimplifiedBoard - -> SimplifiedBoard : newScore
deactivate SimplifiedBoard
alt depth > 0
SimplifiedBoard -> MinimaxStrategy : simulate(nextColor, depth - 1, alpha, beta)
activate MinimaxStrategy
MinimaxStrategy - -> SimplifiedBoard : newScore
deactivate MinimaxStrategy
end alt
SimplifiedBoard -> SimplifiedBoard : revertChanges
activate SimplifiedBoard
SimplifiedBoard - -> SimplifiedBoard
deactivate SimplifiedBoard
SimplifiedBoard - -> MinimaxStrategy : newScore
deactivate SimplifiedBoard
end alt
alt color == currentColor
alt newScore > currentScore
MinimaxStrategy -> MinimaxStrategy : updateResult
activate MinimaxStrategy
MinimaxStrategy - -> MinimaxStrategy
deactivate MinimaxStrategy
end alt
alt currentScore >= beta
MinimaxStrategy -> MinimaxStrategy : stopSearching
activate MinimaxStrategy
MinimaxStrategy - -> MinimaxStrategy
deactivate MinimaxStrategy
end alt
else 
alt newScore < currentScore
MinimaxStrategy -> MinimaxStrategy : updateResult
activate MinimaxStrategy
MinimaxStrategy - -> MinimaxStrategy
deactivate MinimaxStrategy
end alt
alt currentScore <= alpha
MinimaxStrategy -> MinimaxStrategy : stopSearching
activate MinimaxStrategy
MinimaxStrategy - -> MinimaxStrategy
deactivate MinimaxStrategy
end alt
end
end loop
MinimaxStrategy - -> MinimaxStrategy
deactivate MinimaxStrategy
return coordinates
@enduml

PlantUML version 1.2022.4(Sat Apr 09 13:29:17 UTC 2022)
(GPL source distribution)
Java Runtime: OpenJDK Runtime Environment
JVM: OpenJDK 64-Bit Server VM
Default Encoding: UTF-8
Language: en
Country: US
--></g></svg>