<?xml version="1.0" encoding="UTF-8" standalone="no"?><svg xmlns="http://www.w3.org/2000/svg" xmlns:xlink="http://www.w3.org/1999/xlink" contentScriptType="application/ecmascript" contentStyleType="text/css" height="510px" preserveAspectRatio="none" style="width:664px;height:510px;background:#FFFFFF;" version="1.1" viewBox="0 0 664 510" width="664px" zoomAndPan="magnify"><defs><filter height="300%" id="fykwebde5ba83" width="300%" x="-1" y="-1"><feGaussianBlur result="blurOut" stdDeviation="2.0"/><feColorMatrix in="blurOut" result="blurOut2" type="matrix" values="0 0 0 0 0 0 0 0 0 0 0 0 0 0 0 0 0 0 .4 0"/><feOffset dx="4.0" dy="4.0" in="blurOut2" result="blurOut3"/><feBlend in="SourceGraphic" in2="blurOut3" mode="normal"/></filter></defs><g><rect fill="#FFFFFF" filter="url(#fykwebde5ba83)" height="377.3281" style="stroke:#A80036;stroke-width:1.0;" width="10" x="145.5" y="71.4297"/><rect fill="#FFFFFF" filter="url(#fykwebde5ba83)" height="334.1953" style="stroke:#A80036;stroke-width:1.0;" width="10" x="266.5" y="100.5625"/><rect fill="#FFFFFF" filter="url(#fykwebde5ba83)" height="29.1328" style="stroke:#A80036;stroke-width:1.0;" width="10" x="386.5" y="129.6953"/><rect fill="#FFFFFF" filter="url(#fykwebde5ba83)" height="100.2656" style="stroke:#A80036;stroke-width:1.0;" width="10" x="386.5" y="255.2266"/><rect fill="#FFFFFF" filter="url(#fykwebde5ba83)" height="29.1328" style="stroke:#A80036;stroke-width:1.0;" width="10" x="386.5" y="384.625"/><rect fill="#FFFFFF" filter="url(#fykwebde5ba83)" height="14" style="stroke:#A80036;stroke-width:1.0;" width="10" x="515.5" y="212.0938"/><rect fill="#FFFFFF" filter="url(#fykwebde5ba83)" height="57.1328" style="stroke:#A80036;stroke-width:1.0;" width="10" x="515.5" y="284.3594"/><rect fill="#FFFFFF" filter="url(#fykwebde5ba83)" height="14" style="stroke:#A80036;stroke-width:1.0;" width="10" x="605.5" y="313.4922"/><rect fill="#FFFFFF" filter="url(#fykwebde5ba83)" height="247.9297" style="stroke:#000000;stroke-width:2.0;" width="418" x="232" y="173.8281"/><line style="stroke:#A80036;stroke-width:1.0;stroke-dasharray:5.0,5.0;" x1="32" x2="32" y1="40.2969" y2="466.7578"/><line style="stroke:#A80036;stroke-width:1.0;stroke-dasharray:5.0,5.0;" x1="150" x2="150" y1="40.2969" y2="466.7578"/><line style="stroke:#A80036;stroke-width:1.0;stroke-dasharray:5.0,5.0;" x1="271" x2="271" y1="40.2969" y2="466.7578"/><line style="stroke:#A80036;stroke-width:1.0;stroke-dasharray:5.0,5.0;" x1="391" x2="391" y1="40.2969" y2="466.7578"/><line style="stroke:#A80036;stroke-width:1.0;stroke-dasharray:5.0,5.0;" x1="520" x2="520" y1="40.2969" y2="466.7578"/><line style="stroke:#A80036;stroke-width:1.0;stroke-dasharray:5.0,5.0;" x1="610" x2="610" y1="40.2969" y2="466.7578"/><rect fill="#FEFECE" filter="url(#fykwebde5ba83)" height="30.2969" style="stroke:#A80036;stroke-width:1.5;" width="50" x="5" y="5"/><text fill="#000000" font-family="sans-serif" font-size="14" lengthAdjust="spacing" textLength="36" x="12" y="24.9951">Actor</text><rect fill="#FEFECE" filter="url(#fykwebde5ba83)" height="30.2969" style="stroke:#A80036;stroke-width:1.5;" width="50" x="5" y="465.7578"/><text fill="#000000" font-family="sans-serif" font-size="14" lengthAdjust="spacing" textLength="36" x="12" y="485.7529">Actor</text><rect fill="#FEFECE" filter="url(#fykwebde5ba83)" height="30.2969" style="stroke:#A80036;stroke-width:1.5;" width="159" x="69" y="5"/><text fill="#000000" font-family="sans-serif" font-size="14" lengthAdjust="spacing" textLength="145" x="76" y="24.9951">PlaceCubeCommand</text><rect fill="#FEFECE" filter="url(#fykwebde5ba83)" height="30.2969" style="stroke:#A80036;stroke-width:1.5;" width="159" x="69" y="465.7578"/><text fill="#000000" font-family="sans-serif" font-size="14" lengthAdjust="spacing" textLength="145" x="76" y="485.7529">PlaceCubeCommand</text><rect fill="#FEFECE" filter="url(#fykwebde5ba83)" height="30.2969" style="stroke:#A80036;stroke-width:1.5;" width="55" x="242" y="5"/><text fill="#000000" font-family="sans-serif" font-size="14" lengthAdjust="spacing" textLength="41" x="249" y="24.9951">Game</text><rect fill="#FEFECE" filter="url(#fykwebde5ba83)" height="30.2969" style="stroke:#A80036;stroke-width:1.5;" width="55" x="242" y="465.7578"/><text fill="#000000" font-family="sans-serif" font-size="14" lengthAdjust="spacing" textLength="41" x="249" y="485.7529">Game</text><rect fill="#FEFECE" filter="url(#fykwebde5ba83)" height="30.2969" style="stroke:#A80036;stroke-width:1.5;" width="55" x="362" y="5"/><text fill="#000000" font-family="sans-serif" font-size="14" lengthAdjust="spacing" textLength="41" x="369" y="24.9951">Board</text><rect fill="#FEFECE" filter="url(#fykwebde5ba83)" height="30.2969" style="stroke:#A80036;stroke-width:1.5;" width="55" x="362" y="465.7578"/><text fill="#000000" font-family="sans-serif" font-size="14" lengthAdjust="spacing" textLength="41" x="369" y="485.7529">Board</text><rect fill="#FEFECE" filter="url(#fykwebde5ba83)" height="30.2969" style="stroke:#A80036;stroke-width:1.5;" width="51" x="493" y="5"/><text fill="#000000" font-family="sans-serif" font-size="14" lengthAdjust="spacing" textLength="37" x="500" y="24.9951">Cube</text><rect fill="#FEFECE" filter="url(#fykwebde5ba83)" height="30.2969" style="stroke:#A80036;stroke-width:1.5;" width="51" x="493" y="465.7578"/><text fill="#000000" font-family="sans-serif" font-size="14" lengthAdjust="spacing" textLength="37" x="500" y="485.7529">Cube</text><rect fill="#FEFECE" filter="url(#fykwebde5ba83)" height="30.2969" style="stroke:#A80036;stroke-width:1.5;" width="55" x="581" y="5"/><text fill="#000000" font-family="sans-serif" font-size="14" lengthAdjust="spacing" textLength="41" x="588" y="24.9951">Player</text><rect fill="#FEFECE" filter="url(#fykwebde5ba83)" height="30.2969" style="stroke:#A80036;stroke-width:1.5;" width="55" x="581" y="465.7578"/><text fill="#000000" font-family="sans-serif" font-size="14" lengthAdjust="spacing" textLength="41" x="588" y="485.7529">Player</text><rect fill="#FFFFFF" filter="url(#fykwebde5ba83)" height="377.3281" style="stroke:#A80036;stroke-width:1.0;" width="10" x="145.5" y="71.4297"/><rect fill="#FFFFFF" filter="url(#fykwebde5ba83)" height="334.1953" style="stroke:#A80036;stroke-width:1.0;" width="10" x="266.5" y="100.5625"/><rect fill="#FFFFFF" filter="url(#fykwebde5ba83)" height="29.1328" style="stroke:#A80036;stroke-width:1.0;" width="10" x="386.5" y="129.6953"/><rect fill="#FFFFFF" filter="url(#fykwebde5ba83)" height="100.2656" style="stroke:#A80036;stroke-width:1.0;" width="10" x="386.5" y="255.2266"/><rect fill="#FFFFFF" filter="url(#fykwebde5ba83)" height="29.1328" style="stroke:#A80036;stroke-width:1.0;" width="10" x="386.5" y="384.625"/><rect fill="#FFFFFF" filter="url(#fykwebde5ba83)" height="14" style="stroke:#A80036;stroke-width:1.0;" width="10" x="515.5" y="212.0938"/><rect fill="#FFFFFF" filter="url(#fykwebde5ba83)" height="57.1328" style="stroke:#A80036;stroke-width:1.0;" width="10" x="515.5" y="284.3594"/><rect fill="#FFFFFF" filter="url(#fykwebde5ba83)" height="14" style="stroke:#A80036;stroke-width:1.0;" width="10" x="605.5" y="313.4922"/><polygon fill="#A80036" points="133.5,67.4297,143.5,71.4297,133.5,75.4297,137.5,71.4297" style="stroke:#A80036;stroke-width:1.0;"/><line style="stroke:#A80036;stroke-width:1.0;" x1="32" x2="139.5" y1="71.4297" y2="71.4297"/><text fill="#000000" font-family="sans-serif" font-size="13" lengthAdjust="spacing" textLength="51" x="39" y="66.3638">execute</text><polygon fill="#A80036" points="254.5,96.5625,264.5,100.5625,254.5,104.5625,258.5,100.5625" style="stroke:#A80036;stroke-width:1.0;"/><line style="stroke:#A80036;stroke-width:1.0;" x1="155.5" x2="260.5" y1="100.5625" y2="100.5625"/><text fill="#000000" font-family="sans-serif" font-size="13" lengthAdjust="spacing" textLength="26" x="162.5" y="95.4966">play</text><polygon fill="#A80036" points="374.5,125.6953,384.5,129.6953,374.5,133.6953,378.5,129.6953" style="stroke:#A80036;stroke-width:1.0;"/><line style="stroke:#A80036;stroke-width:1.0;" x1="276.5" x2="380.5" y1="129.6953" y2="129.6953"/><text fill="#000000" font-family="sans-serif" font-size="13" lengthAdjust="spacing" textLength="90" x="283.5" y="124.6294">tryToAddCube</text><polygon fill="#A80036" points="287.5,154.8281,277.5,158.8281,287.5,162.8281,283.5,158.8281" style="stroke:#A80036;stroke-width:1.0;"/><line style="stroke:#A80036;stroke-width:1.0;stroke-dasharray:2.0,2.0;" x1="281.5" x2="390.5" y1="158.8281" y2="158.8281"/><text fill="#000000" font-family="sans-serif" font-size="13" lengthAdjust="spacing" textLength="79" x="293.5" y="153.7622">validPosition</text><path d="M232,173.8281 L296,173.8281 L296,180.8281 L286,190.8281 L232,190.8281 L232,173.8281 " fill="#EEEEEE" style="stroke:#000000;stroke-width:1.0;"/><rect fill="none" height="247.9297" style="stroke:#000000;stroke-width:2.0;" width="418" x="232" y="173.8281"/><text fill="#000000" font-family="sans-serif" font-size="13" font-weight="bold" lengthAdjust="spacing" textLength="19" x="247" y="186.895">alt</text><text fill="#000000" font-family="sans-serif" font-size="11" font-weight="bold" lengthAdjust="spacing" textLength="93" x="311" y="186.0386">[validPosition]</text><polygon fill="#A80036" points="503.5,208.0938,513.5,212.0938,503.5,216.0938,507.5,212.0938" style="stroke:#A80036;stroke-width:1.0;"/><line style="stroke:#A80036;stroke-width:1.0;" x1="276.5" x2="509.5" y1="212.0938" y2="212.0938"/><text fill="#000000" font-family="sans-serif" font-size="13" lengthAdjust="spacing" textLength="25" x="283.5" y="207.0278">new</text><polygon fill="#A80036" points="287.5,222.0938,277.5,226.0938,287.5,230.0938,283.5,226.0938" style="stroke:#A80036;stroke-width:1.0;"/><line style="stroke:#A80036;stroke-width:1.0;stroke-dasharray:2.0,2.0;" x1="281.5" x2="519.5" y1="226.0938" y2="226.0938"/><polygon fill="#A80036" points="374.5,251.2266,384.5,255.2266,374.5,259.2266,378.5,255.2266" style="stroke:#A80036;stroke-width:1.0;"/><line style="stroke:#A80036;stroke-width:1.0;" x1="276.5" x2="380.5" y1="255.2266" y2="255.2266"/><text fill="#000000" font-family="sans-serif" font-size="13" lengthAdjust="spacing" textLength="91" x="283.5" y="250.1606">addCubeInPos</text><polygon fill="#A80036" points="503.5,280.3594,513.5,284.3594,503.5,288.3594,507.5,284.3594" style="stroke:#A80036;stroke-width:1.0;"/><line style="stroke:#A80036;stroke-width:1.0;" x1="396.5" x2="509.5" y1="284.3594" y2="284.3594"/><text fill="#000000" font-family="sans-serif" font-size="13" lengthAdjust="spacing" textLength="100" x="403.5" y="279.2935">addPlayerScore</text><polygon fill="#A80036" points="593.5,309.4922,603.5,313.4922,593.5,317.4922,597.5,313.4922" style="stroke:#A80036;stroke-width:1.0;"/><line style="stroke:#A80036;stroke-width:1.0;" x1="525.5" x2="599.5" y1="313.4922" y2="313.4922"/><text fill="#000000" font-family="sans-serif" font-size="13" lengthAdjust="spacing" textLength="61" x="532.5" y="308.4263">addScore</text><polygon fill="#A80036" points="536.5,323.4922,526.5,327.4922,536.5,331.4922,532.5,327.4922" style="stroke:#A80036;stroke-width:1.0;"/><line style="stroke:#A80036;stroke-width:1.0;stroke-dasharray:2.0,2.0;" x1="530.5" x2="609.5" y1="327.4922" y2="327.4922"/><polygon fill="#A80036" points="407.5,337.4922,397.5,341.4922,407.5,345.4922,403.5,341.4922" style="stroke:#A80036;stroke-width:1.0;"/><line style="stroke:#A80036;stroke-width:1.0;stroke-dasharray:2.0,2.0;" x1="401.5" x2="519.5" y1="341.4922" y2="341.4922"/><polygon fill="#A80036" points="287.5,351.4922,277.5,355.4922,287.5,359.4922,283.5,355.4922" style="stroke:#A80036;stroke-width:1.0;"/><line style="stroke:#A80036;stroke-width:1.0;stroke-dasharray:2.0,2.0;" x1="281.5" x2="390.5" y1="355.4922" y2="355.4922"/><polygon fill="#A80036" points="374.5,380.625,384.5,384.625,374.5,388.625,378.5,384.625" style="stroke:#A80036;stroke-width:1.0;"/><line style="stroke:#A80036;stroke-width:1.0;" x1="276.5" x2="380.5" y1="384.625" y2="384.625"/><text fill="#000000" font-family="sans-serif" font-size="13" lengthAdjust="spacing" textLength="45" x="283.5" y="379.5591">update</text><polygon fill="#A80036" points="287.5,409.7578,277.5,413.7578,287.5,417.7578,283.5,413.7578" style="stroke:#A80036;stroke-width:1.0;"/><line style="stroke:#A80036;stroke-width:1.0;stroke-dasharray:2.0,2.0;" x1="281.5" x2="390.5" y1="413.7578" y2="413.7578"/><text fill="#000000" font-family="sans-serif" font-size="13" lengthAdjust="spacing" textLength="49" x="293.5" y="408.6919">finished</text><polygon fill="#A80036" points="166.5,430.7578,156.5,434.7578,166.5,438.7578,162.5,434.7578" style="stroke:#A80036;stroke-width:1.0;"/><line style="stroke:#A80036;stroke-width:1.0;stroke-dasharray:2.0,2.0;" x1="160.5" x2="270.5" y1="434.7578" y2="434.7578"/><polygon fill="#A80036" points="43,444.7578,33,448.7578,43,452.7578,39,448.7578" style="stroke:#A80036;stroke-width:1.0;"/><line style="stroke:#A80036;stroke-width:1.0;stroke-dasharray:2.0,2.0;" x1="37" x2="149.5" y1="448.7578" y2="448.7578"/><!--MD5=[630006a4889355e4cc368cdbb21b649e]
@startuml
participant Actor
Actor -> PlaceCubeCommand : execute
activate PlaceCubeCommand
PlaceCubeCommand -> Game : play
activate Game
Game -> Board : tryToAddCube
activate Board
Board - -> Game : validPosition
deactivate Board
alt validPosition
Game -> Cube : new
activate Cube
Cube - -> Game
deactivate Cube
Game -> Board : addCubeInPos
activate Board
Board -> Cube : addPlayerScore
activate Cube
Cube -> Player : addScore
activate Player
Player - -> Cube
deactivate Player
Cube - -> Board
deactivate Cube
Board - -> Game
deactivate Board
Game -> Board : update
activate Board
Board - -> Game : finished
deactivate Board
end
Game - -> PlaceCubeCommand
deactivate Game
return
@enduml

PlantUML version 1.2021.16(Wed Dec 08 17:25:22 UTC 2021)
(GPL source distribution)
Java Runtime: OpenJDK Runtime Environment
JVM: OpenJDK 64-Bit Server VM
Default Encoding: UTF-8
Language: en
Country: US
--></g></svg>