<?xml version="1.0" encoding="UTF-8" standalone="no"?><svg xmlns="http://www.w3.org/2000/svg" xmlns:xlink="http://www.w3.org/1999/xlink" contentStyleType="text/css" height="352px" preserveAspectRatio="none" style="width:436px;height:352px;background:#FFFFFF;" version="1.1" viewBox="0 0 436 352" width="436px" zoomAndPan="magnify"><defs/><g><rect fill="#FFFFFF" height="231.9297" style="stroke:#181818;stroke-width:1.0;" width="10" x="170" y="67.4297"/><rect fill="#FFFFFF" height="40.1328" style="stroke:#181818;stroke-width:1.0;" width="10" x="175" y="157.8281"/><rect fill="#FFFFFF" height="29.1328" style="stroke:#181818;stroke-width:1.0;" width="10" x="355" y="234.0938"/><rect height="159.6641" style="stroke:#000000;stroke-width:1.5;fill:none;" width="329.5" x="100.5" y="111.5625"/><line style="stroke:#181818;stroke-width:0.5;fill:none;stroke-dasharray:5.0,5.0;" x1="30" x2="30" y1="36.2969" y2="317.3594"/><line style="stroke:#181818;stroke-width:0.5;fill:none;stroke-dasharray:5.0,5.0;" x1="174.5" x2="174.5" y1="36.2969" y2="317.3594"/><line style="stroke:#181818;stroke-width:0.5;fill:none;stroke-dasharray:5.0,5.0;" x1="360" x2="360" y1="36.2969" y2="317.3594"/><rect fill="#E2E2F0" height="30.2969" rx="2.5" ry="2.5" style="stroke:#181818;stroke-width:0.5;" width="50" x="5" y="5"/><text fill="#000000" font-family="sans-serif" font-size="14" lengthAdjust="spacing" textLength="36" x="12" y="24.9951">Actor</text><rect fill="#E2E2F0" height="30.2969" rx="2.5" ry="2.5" style="stroke:#181818;stroke-width:0.5;" width="50" x="5" y="316.3594"/><text fill="#000000" font-family="sans-serif" font-size="14" lengthAdjust="spacing" textLength="36" x="12" y="336.3545">Actor</text><rect fill="#E2E2F0" height="30.2969" rx="2.5" ry="2.5" style="stroke:#181818;stroke-width:0.5;" width="129" x="110.5" y="5"/><text fill="#000000" font-family="sans-serif" font-size="14" lengthAdjust="spacing" textLength="115" x="117.5" y="24.9951">RandomStrategy</text><rect fill="#E2E2F0" height="30.2969" rx="2.5" ry="2.5" style="stroke:#181818;stroke-width:0.5;" width="129" x="110.5" y="316.3594"/><text fill="#000000" font-family="sans-serif" font-size="14" lengthAdjust="spacing" textLength="115" x="117.5" y="336.3545">RandomStrategy</text><rect fill="#E2E2F0" height="30.2969" rx="2.5" ry="2.5" style="stroke:#181818;stroke-width:0.5;" width="120" x="300" y="5"/><text fill="#000000" font-family="sans-serif" font-size="14" lengthAdjust="spacing" textLength="106" x="307" y="24.9951">SimplifiedBoard</text><rect fill="#E2E2F0" height="30.2969" rx="2.5" ry="2.5" style="stroke:#181818;stroke-width:0.5;" width="120" x="300" y="316.3594"/><text fill="#000000" font-family="sans-serif" font-size="14" lengthAdjust="spacing" textLength="106" x="307" y="336.3545">SimplifiedBoard</text><rect fill="#FFFFFF" height="231.9297" style="stroke:#181818;stroke-width:1.0;" width="10" x="170" y="67.4297"/><rect fill="#FFFFFF" height="40.1328" style="stroke:#181818;stroke-width:1.0;" width="10" x="175" y="157.8281"/><rect fill="#FFFFFF" height="29.1328" style="stroke:#181818;stroke-width:1.0;" width="10" x="355" y="234.0938"/><polygon fill="#181818" points="158,63.4297,168,67.4297,158,71.4297,162,67.4297" style="stroke:#181818;stroke-width:1.0;"/><line style="stroke:#181818;stroke-width:1.0;" x1="30" x2="164" y1="67.4297" y2="67.4297"/><text fill="#000000" font-family="sans-serif" font-size="13" lengthAdjust="spacing" textLength="121" x="37" y="62.3638">calculateNextMove</text><polygon fill="#181818" points="348,92.5625,358,96.5625,348,100.5625,352,96.5625" style="stroke:#181818;stroke-width:1.0;"/><line style="stroke:#181818;stroke-width:1.0;stroke-dasharray:2.0,2.0;" x1="180" x2="354" y1="96.5625" y2="96.5625"/><text fill="#000000" font-family="sans-serif" font-size="13" lengthAdjust="spacing" textLength="25" x="187" y="91.4966">new</text><path d="M100.5,111.5625 L177.5,111.5625 L177.5,118.6953 L167.5,128.6953 L100.5,128.6953 L100.5,111.5625 " fill="#EEEEEE" style="stroke:#000000;stroke-width:1.5;"/><rect fill="none" height="159.6641" style="stroke:#000000;stroke-width:1.5;" width="329.5" x="100.5" y="111.5625"/><text fill="#000000" font-family="sans-serif" font-size="13" font-weight="bold" lengthAdjust="spacing" textLength="32" x="115.5" y="124.6294">loop</text><text fill="#000000" font-family="sans-serif" font-size="11" font-weight="bold" lengthAdjust="spacing" textLength="151" x="192.5" y="123.7729">[validPosition == false]</text><line style="stroke:#181818;stroke-width:1.0;" x1="180" x2="227" y1="144.8281" y2="144.8281"/><line style="stroke:#181818;stroke-width:1.0;" x1="227" x2="227" y1="144.8281" y2="157.8281"/><line style="stroke:#181818;stroke-width:1.0;" x1="186" x2="227" y1="157.8281" y2="157.8281"/><polygon fill="#181818" points="196,153.8281,186,157.8281,196,161.8281,192,157.8281" style="stroke:#181818;stroke-width:1.0;"/><text fill="#000000" font-family="sans-serif" font-size="13" lengthAdjust="spacing" textLength="161" x="192" y="139.7622">generateRandomPosition</text><line style="stroke:#181818;stroke-width:1.0;stroke-dasharray:2.0,2.0;" x1="185" x2="227" y1="196.9609" y2="196.9609"/><line style="stroke:#181818;stroke-width:1.0;stroke-dasharray:2.0,2.0;" x1="227" x2="227" y1="196.9609" y2="209.9609"/><line style="stroke:#181818;stroke-width:1.0;stroke-dasharray:2.0,2.0;" x1="180" x2="227" y1="209.9609" y2="209.9609"/><polygon fill="#181818" points="190,205.9609,180,209.9609,190,213.9609,186,209.9609" style="stroke:#181818;stroke-width:1.0;"/><text fill="#000000" font-family="sans-serif" font-size="13" lengthAdjust="spacing" textLength="8" x="192" y="191.895">p</text><polygon fill="#181818" points="343,230.0938,353,234.0938,343,238.0938,347,234.0938" style="stroke:#181818;stroke-width:1.0;"/><line style="stroke:#181818;stroke-width:1.0;" x1="180" x2="349" y1="234.0938" y2="234.0938"/><text fill="#000000" font-family="sans-serif" font-size="13" lengthAdjust="spacing" textLength="90" x="187" y="229.0278">tryToAddCube</text><polygon fill="#181818" points="191,259.2266,181,263.2266,191,267.2266,187,263.2266" style="stroke:#181818;stroke-width:1.0;"/><line style="stroke:#181818;stroke-width:1.0;stroke-dasharray:2.0,2.0;" x1="185" x2="359" y1="263.2266" y2="263.2266"/><text fill="#000000" font-family="sans-serif" font-size="13" lengthAdjust="spacing" textLength="79" x="197" y="258.1606">validPosition</text><polygon fill="#181818" points="41,295.3594,31,299.3594,41,303.3594,37,299.3594" style="stroke:#181818;stroke-width:1.0;"/><line style="stroke:#181818;stroke-width:1.0;stroke-dasharray:2.0,2.0;" x1="35" x2="174" y1="299.3594" y2="299.3594"/><text fill="#000000" font-family="sans-serif" font-size="13" lengthAdjust="spacing" textLength="8" x="47" y="294.2935">p</text><!--MD5=[28a6437d7d843e1034825ee92e7644d5]
@startuml
participant Actor
Actor -> RandomStrategy : calculateNextMove
activate RandomStrategy
RandomStrategy - -> SimplifiedBoard : new
loop validPosition == false
RandomStrategy -> RandomStrategy : generateRandomPosition
activate RandomStrategy
RandomStrategy - -> RandomStrategy : p
deactivate RandomStrategy
RandomStrategy -> SimplifiedBoard : tryToAddCube
activate SimplifiedBoard
SimplifiedBoard - -> RandomStrategy : validPosition
deactivate SimplifiedBoard
end loop
return p
@enduml

PlantUML version 1.2022.4(Sat Apr 09 13:29:17 UTC 2022)
(GPL source distribution)
Java Runtime: OpenJDK Runtime Environment
JVM: OpenJDK 64-Bit Server VM
Default Encoding: UTF-8
Language: en
Country: US
--></g></svg>