<?xml version="1.0" encoding="UTF-8" standalone="no"?><svg xmlns="http://www.w3.org/2000/svg" xmlns:xlink="http://www.w3.org/1999/xlink" contentScriptType="application/ecmascript" contentStyleType="text/css" height="288px" preserveAspectRatio="none" style="width:425px;height:288px;background:#FFFFFF;" version="1.1" viewBox="0 0 425 288" width="425px" zoomAndPan="magnify"><defs><filter height="300%" id="fs5idv30abfcp" width="300%" x="-1" y="-1"><feGaussianBlur result="blurOut" stdDeviation="2.0"/><feColorMatrix in="blurOut" result="blurOut2" type="matrix" values="0 0 0 0 0 0 0 0 0 0 0 0 0 0 0 0 0 0 .4 0"/><feOffset dx="4.0" dy="4.0" in="blurOut2" result="blurOut3"/><feBlend in="SourceGraphic" in2="blurOut3" mode="normal"/></filter></defs><g><rect fill="#FFFFFF" filter="url(#fs5idv30abfcp)" height="164.3984" style="stroke:#A80036;stroke-width:1.0;" width="10" x="106.5" y="71.4297"/><rect fill="#FFFFFF" filter="url(#fs5idv30abfcp)" height="14" style="stroke:#A80036;stroke-width:1.0;" width="10" x="231" y="100.5625"/><rect fill="#FFFFFF" filter="url(#fs5idv30abfcp)" height="83.1328" style="stroke:#A80036;stroke-width:1.0;" width="10" x="345" y="143.6953"/><rect fill="#FFFFFF" filter="url(#fs5idv30abfcp)" height="25" style="stroke:#A80036;stroke-width:1.0;" width="10" x="350" y="180.8281"/><line style="stroke:#A80036;stroke-width:1.0;stroke-dasharray:5.0,5.0;" x1="32" x2="32" y1="40.2969" y2="244.8281"/><line style="stroke:#A80036;stroke-width:1.0;stroke-dasharray:5.0,5.0;" x1="111" x2="111" y1="40.2969" y2="244.8281"/><line style="stroke:#A80036;stroke-width:1.0;stroke-dasharray:5.0,5.0;" x1="236" x2="236" y1="40.2969" y2="244.8281"/><line style="stroke:#A80036;stroke-width:1.0;stroke-dasharray:5.0,5.0;" x1="350" x2="350" y1="40.2969" y2="244.8281"/><rect fill="#FEFECE" filter="url(#fs5idv30abfcp)" height="30.2969" style="stroke:#A80036;stroke-width:1.5;" width="50" x="5" y="5"/><text fill="#000000" font-family="sans-serif" font-size="14" lengthAdjust="spacing" textLength="36" x="12" y="24.9951">Actor</text><rect fill="#FEFECE" filter="url(#fs5idv30abfcp)" height="30.2969" style="stroke:#A80036;stroke-width:1.5;" width="50" x="5" y="243.8281"/><text fill="#000000" font-family="sans-serif" font-size="14" lengthAdjust="spacing" textLength="36" x="12" y="263.8232">Actor</text><rect fill="#FEFECE" filter="url(#fs5idv30abfcp)" height="30.2969" style="stroke:#A80036;stroke-width:1.5;" width="81" x="69" y="5"/><text fill="#000000" font-family="sans-serif" font-size="14" lengthAdjust="spacing" textLength="67" x="76" y="24.9951">Controller</text><rect fill="#FEFECE" filter="url(#fs5idv30abfcp)" height="30.2969" style="stroke:#A80036;stroke-width:1.5;" width="81" x="69" y="243.8281"/><text fill="#000000" font-family="sans-serif" font-size="14" lengthAdjust="spacing" textLength="67" x="76" y="263.8232">Controller</text><rect fill="#FEFECE" filter="url(#fs5idv30abfcp)" height="30.2969" style="stroke:#A80036;stroke-width:1.5;" width="140" x="164" y="5"/><text fill="#000000" font-family="sans-serif" font-size="14" lengthAdjust="spacing" textLength="126" x="171" y="24.9951">SaveLoadManager</text><rect fill="#FEFECE" filter="url(#fs5idv30abfcp)" height="30.2969" style="stroke:#A80036;stroke-width:1.5;" width="140" x="164" y="243.8281"/><text fill="#000000" font-family="sans-serif" font-size="14" lengthAdjust="spacing" textLength="126" x="171" y="263.8232">SaveLoadManager</text><rect fill="#FEFECE" filter="url(#fs5idv30abfcp)" height="30.2969" style="stroke:#A80036;stroke-width:1.5;" width="60" x="318" y="5"/><text fill="#000000" font-family="sans-serif" font-size="14" lengthAdjust="spacing" textLength="46" x="325" y="24.9951">Replay</text><rect fill="#FEFECE" filter="url(#fs5idv30abfcp)" height="30.2969" style="stroke:#A80036;stroke-width:1.5;" width="60" x="318" y="243.8281"/><text fill="#000000" font-family="sans-serif" font-size="14" lengthAdjust="spacing" textLength="46" x="325" y="263.8232">Replay</text><rect fill="#FFFFFF" filter="url(#fs5idv30abfcp)" height="164.3984" style="stroke:#A80036;stroke-width:1.0;" width="10" x="106.5" y="71.4297"/><rect fill="#FFFFFF" filter="url(#fs5idv30abfcp)" height="14" style="stroke:#A80036;stroke-width:1.0;" width="10" x="231" y="100.5625"/><rect fill="#FFFFFF" filter="url(#fs5idv30abfcp)" height="83.1328" style="stroke:#A80036;stroke-width:1.0;" width="10" x="345" y="143.6953"/><rect fill="#FFFFFF" filter="url(#fs5idv30abfcp)" height="25" style="stroke:#A80036;stroke-width:1.0;" width="10" x="350" y="180.8281"/><polygon fill="#A80036" points="94.5,67.4297,104.5,71.4297,94.5,75.4297,98.5,71.4297" style="stroke:#A80036;stroke-width:1.0;"/><line style="stroke:#A80036;stroke-width:1.0;" x1="32" x2="100.5" y1="71.4297" y2="71.4297"/><text fill="#000000" font-family="sans-serif" font-size="13" lengthAdjust="spacing" textLength="21" x="39" y="66.3638">run</text><polygon fill="#A80036" points="219,96.5625,229,100.5625,219,104.5625,223,100.5625" style="stroke:#A80036;stroke-width:1.0;"/><line style="stroke:#A80036;stroke-width:1.0;" x1="116.5" x2="225" y1="100.5625" y2="100.5625"/><text fill="#000000" font-family="sans-serif" font-size="13" lengthAdjust="spacing" textLength="69" x="123.5" y="95.4966">loadReplay</text><polygon fill="#A80036" points="127.5,110.5625,117.5,114.5625,127.5,118.5625,123.5,114.5625" style="stroke:#A80036;stroke-width:1.0;"/><line style="stroke:#A80036;stroke-width:1.0;stroke-dasharray:2.0,2.0;" x1="121.5" x2="235" y1="114.5625" y2="114.5625"/><polygon fill="#A80036" points="333,139.6953,343,143.6953,333,147.6953,337,143.6953" style="stroke:#A80036;stroke-width:1.0;"/><line style="stroke:#A80036;stroke-width:1.0;" x1="116.5" x2="339" y1="143.6953" y2="143.6953"/><text fill="#000000" font-family="sans-serif" font-size="13" lengthAdjust="spacing" textLength="72" x="123.5" y="138.6294">startReplay</text><line style="stroke:#A80036;stroke-width:1.0;" x1="355" x2="402" y1="167.8281" y2="167.8281"/><line style="stroke:#A80036;stroke-width:1.0;" x1="402" x2="402" y1="167.8281" y2="180.8281"/><line style="stroke:#A80036;stroke-width:1.0;" x1="361" x2="402" y1="180.8281" y2="180.8281"/><polygon fill="#A80036" points="371,176.8281,361,180.8281,371,184.8281,367,180.8281" style="stroke:#A80036;stroke-width:1.0;"/><text fill="#000000" font-family="sans-serif" font-size="13" lengthAdjust="spacing" textLength="51" x="367" y="162.7622">execute</text><line style="stroke:#A80036;stroke-width:1.0;stroke-dasharray:2.0,2.0;" x1="360" x2="402" y1="204.8281" y2="204.8281"/><line style="stroke:#A80036;stroke-width:1.0;stroke-dasharray:2.0,2.0;" x1="402" x2="402" y1="204.8281" y2="217.8281"/><line style="stroke:#A80036;stroke-width:1.0;stroke-dasharray:2.0,2.0;" x1="355" x2="402" y1="217.8281" y2="217.8281"/><polygon fill="#A80036" points="365,213.8281,355,217.8281,365,221.8281,361,217.8281" style="stroke:#A80036;stroke-width:1.0;"/><polygon fill="#A80036" points="127.5,222.8281,117.5,226.8281,127.5,230.8281,123.5,226.8281" style="stroke:#A80036;stroke-width:1.0;"/><line style="stroke:#A80036;stroke-width:1.0;stroke-dasharray:2.0,2.0;" x1="121.5" x2="349" y1="226.8281" y2="226.8281"/><!--MD5=[a90c894b14a7cfd266cb5b8f752909d0]
@startuml
participant Actor
Actor -> Controller : run
activate Controller
Controller -> SaveLoadManager : loadReplay
activate SaveLoadManager
SaveLoadManager - -> Controller
deactivate SaveLoadManager
Controller -> Replay : startReplay
activate Replay
Replay -> Replay : execute
activate Replay
Replay - -> Replay
deactivate Replay
return
@enduml

PlantUML version 1.2021.16(Wed Dec 08 17:25:22 UTC 2021)
(GPL source distribution)
Java Runtime: OpenJDK Runtime Environment
JVM: OpenJDK 64-Bit Server VM
Default Encoding: UTF-8
Language: en
Country: US
--></g></svg>