<?xml version="1.0" encoding="UTF-8" standalone="no"?><svg xmlns="http://www.w3.org/2000/svg" xmlns:xlink="http://www.w3.org/1999/xlink" contentScriptType="application/ecmascript" contentStyleType="text/css" height="1440px" preserveAspectRatio="none" style="width:786px;height:1440px;background:#FFFFFF;" version="1.1" viewBox="0 0 786 1440" width="786px" zoomAndPan="magnify"><defs><filter height="300%" id="f1pe1mmze04hkv" width="300%" x="-1" y="-1"><feGaussianBlur result="blurOut" stdDeviation="2.0"/><feColorMatrix in="blurOut" result="blurOut2" type="matrix" values="0 0 0 0 0 0 0 0 0 0 0 0 0 0 0 0 0 0 .4 0"/><feOffset dx="4.0" dy="4.0" in="blurOut2" result="blurOut3"/><feBlend in="SourceGraphic" in2="blurOut3" mode="normal"/></filter></defs><g><rect fill="#FFFFFF" filter="url(#f1pe1mmze04hkv)" height="1218.7344" style="stroke:#A80036;stroke-width:1.0;" width="10" x="92" y="119.4297"/><rect fill="#FFFFFF" filter="url(#f1pe1mmze04hkv)" height="25" style="stroke:#A80036;stroke-width:1.0;" width="10" x="97" y="156.5625"/><rect fill="#FFFFFF" filter="url(#f1pe1mmze04hkv)" height="57.1328" style="stroke:#A80036;stroke-width:1.0;" width="10" x="168.5" y="217.6953"/><rect fill="#FFFFFF" filter="url(#f1pe1mmze04hkv)" height="1020.2031" style="stroke:#A80036;stroke-width:1.0;" width="10" x="168.5" y="303.9609"/><rect fill="#FFFFFF" filter="url(#f1pe1mmze04hkv)" height="40.1328" style="stroke:#A80036;stroke-width:1.0;" width="10" x="173.5" y="341.0938"/><rect fill="#FFFFFF" filter="url(#f1pe1mmze04hkv)" height="83.2656" style="stroke:#A80036;stroke-width:1.0;" width="10" x="173.5" y="1150.7656"/><rect fill="#FFFFFF" filter="url(#f1pe1mmze04hkv)" height="25" style="stroke:#A80036;stroke-width:1.0;" width="10" x="173.5" y="1278.1641"/><rect fill="#FFFFFF" filter="url(#f1pe1mmze04hkv)" height="14" style="stroke:#A80036;stroke-width:1.0;" width="10" x="275.5" y="246.8281"/><rect fill="#FFFFFF" filter="url(#f1pe1mmze04hkv)" height="83.1328" style="stroke:#A80036;stroke-width:1.0;" width="10" x="275.5" y="1023.5"/><rect fill="#FFFFFF" filter="url(#f1pe1mmze04hkv)" height="25" style="stroke:#A80036;stroke-width:1.0;" width="10" x="280.5" y="1060.6328"/><rect fill="#FFFFFF" filter="url(#f1pe1mmze04hkv)" height="29.1328" style="stroke:#A80036;stroke-width:1.0;" width="10" x="382" y="441.4922"/><rect fill="#FFFFFF" filter="url(#f1pe1mmze04hkv)" height="83.1328" style="stroke:#A80036;stroke-width:1.0;" width="10" x="528.5" y="514.5625"/><rect fill="#FFFFFF" filter="url(#f1pe1mmze04hkv)" height="25" style="stroke:#A80036;stroke-width:1.0;" width="10" x="533.5" y="551.6953"/><rect fill="#FFFFFF" filter="url(#f1pe1mmze04hkv)" height="29.1328" style="stroke:#A80036;stroke-width:1.0;" width="10" x="528.5" y="626.8281"/><rect fill="#FFFFFF" filter="url(#f1pe1mmze04hkv)" height="152.2656" style="stroke:#A80036;stroke-width:1.0;" width="10" x="528.5" y="699.8984"/><rect fill="#FFFFFF" filter="url(#f1pe1mmze04hkv)" height="25" style="stroke:#A80036;stroke-width:1.0;" width="10" x="533.5" y="737.0313"/><rect fill="#FFFFFF" filter="url(#f1pe1mmze04hkv)" height="25" style="stroke:#A80036;stroke-width:1.0;" width="10" x="533.5" y="806.1641"/><rect fill="#FFFFFF" filter="url(#f1pe1mmze04hkv)" height="98.2656" style="stroke:#A80036;stroke-width:1.0;" width="10" x="528.5" y="896.1016"/><rect fill="#FFFFFF" filter="url(#f1pe1mmze04hkv)" height="25" style="stroke:#A80036;stroke-width:1.0;" width="10" x="533.5" y="933.2344"/><rect fill="#FFFFFF" filter="url(#f1pe1mmze04hkv)" height="29.1328" style="stroke:#A80036;stroke-width:1.0;" width="10" x="719.5" y="1184.8984"/><rect fill="#FFFFFF" filter="url(#f1pe1mmze04hkv)" height="711.4063" style="stroke:#000000;stroke-width:2.0;" width="608.5" x="121" y="403.2266"/><rect fill="#FFFFFF" height="185.3359" style="stroke:none;stroke-width:1.0;" width="608.5" x="121" y="478.625"/><rect fill="#FFFFFF" height="196.2031" style="stroke:none;stroke-width:1.0;" width="608.5" x="121" y="663.9609"/><rect fill="#FFFFFF" height="254.4688" style="stroke:none;stroke-width:1.0;" width="608.5" x="121" y="860.1641"/><line style="stroke:#A80036;stroke-width:1.0;stroke-dasharray:5.0,5.0;" x1="34" x2="34" y1="88.2969" y2="1356.1641"/><line style="stroke:#A80036;stroke-width:1.0;stroke-dasharray:5.0,5.0;" x1="97" x2="97" y1="88.2969" y2="1356.1641"/><line style="stroke:#A80036;stroke-width:1.0;stroke-dasharray:5.0,5.0;" x1="173" x2="173" y1="88.2969" y2="1356.1641"/><line style="stroke:#A80036;stroke-width:1.0;stroke-dasharray:5.0,5.0;" x1="280.5" x2="280.5" y1="88.2969" y2="1356.1641"/><line style="stroke:#A80036;stroke-width:1.0;stroke-dasharray:5.0,5.0;" x1="386.5" x2="386.5" y1="88.2969" y2="1356.1641"/><line style="stroke:#A80036;stroke-width:1.0;stroke-dasharray:5.0,5.0;" x1="533.5" x2="533.5" y1="88.2969" y2="1356.1641"/><line style="stroke:#A80036;stroke-width:1.0;stroke-dasharray:5.0,5.0;" x1="724.5" x2="724.5" y1="88.2969" y2="1356.1641"/><text fill="#000000" font-family="sans-serif" font-size="14" lengthAdjust="spacing" textLength="52" x="5" y="84.9951">Usuario</text><ellipse cx="34" cy="15" fill="#FEFECE" filter="url(#f1pe1mmze04hkv)" rx="8" ry="8" style="stroke:#A80036;stroke-width:2.0;"/><path d="M34,23 L34,50 M21,31 L47,31 M34,50 L21,65 M34,50 L47,65 " fill="none" filter="url(#f1pe1mmze04hkv)" style="stroke:#A80036;stroke-width:2.0;"/><text fill="#000000" font-family="sans-serif" font-size="14" lengthAdjust="spacing" textLength="52" x="5" y="1368.1592">Usuario</text><ellipse cx="34" cy="1381.4609" fill="#FEFECE" filter="url(#f1pe1mmze04hkv)" rx="8" ry="8" style="stroke:#A80036;stroke-width:2.0;"/><path d="M34,1389.4609 L34,1416.4609 M21,1397.4609 L47,1397.4609 M34,1416.4609 L21,1431.4609 M34,1416.4609 L47,1431.4609 " fill="none" filter="url(#f1pe1mmze04hkv)" style="stroke:#A80036;stroke-width:2.0;"/><rect fill="#FEFECE" filter="url(#f1pe1mmze04hkv)" height="30.2969" style="stroke:#A80036;stroke-width:1.5;" width="44" x="73" y="53"/><text fill="#000000" font-family="sans-serif" font-size="14" lengthAdjust="spacing" textLength="30" x="80" y="72.9951">Rolit</text><rect fill="#FEFECE" filter="url(#f1pe1mmze04hkv)" height="30.2969" style="stroke:#A80036;stroke-width:1.5;" width="44" x="73" y="1355.1641"/><text fill="#000000" font-family="sans-serif" font-size="14" lengthAdjust="spacing" textLength="30" x="80" y="1375.1592">Rolit</text><rect fill="#FEFECE" filter="url(#f1pe1mmze04hkv)" height="30.2969" style="stroke:#A80036;stroke-width:1.5;" width="81" x="131" y="53"/><text fill="#000000" font-family="sans-serif" font-size="14" lengthAdjust="spacing" textLength="67" x="138" y="72.9951">Controller</text><rect fill="#FEFECE" filter="url(#f1pe1mmze04hkv)" height="30.2969" style="stroke:#A80036;stroke-width:1.5;" width="81" x="131" y="1355.1641"/><text fill="#000000" font-family="sans-serif" font-size="14" lengthAdjust="spacing" textLength="67" x="138" y="1375.1592">Controller</text><rect fill="#FEFECE" filter="url(#f1pe1mmze04hkv)" height="30.2969" style="stroke:#A80036;stroke-width:1.5;" width="60" x="248.5" y="53"/><text fill="#000000" font-family="sans-serif" font-size="14" lengthAdjust="spacing" textLength="46" x="255.5" y="72.9951">Replay</text><rect fill="#FEFECE" filter="url(#f1pe1mmze04hkv)" height="30.2969" style="stroke:#A80036;stroke-width:1.5;" width="60" x="248.5" y="1355.1641"/><text fill="#000000" font-family="sans-serif" font-size="14" lengthAdjust="spacing" textLength="46" x="255.5" y="1375.1592">Replay</text><rect fill="#FEFECE" filter="url(#f1pe1mmze04hkv)" height="30.2969" style="stroke:#A80036;stroke-width:1.5;" width="125" x="322.5" y="53"/><text fill="#000000" font-family="sans-serif" font-size="14" lengthAdjust="spacing" textLength="111" x="329.5" y="72.9951">GameGenerator</text><rect fill="#FEFECE" filter="url(#f1pe1mmze04hkv)" height="30.2969" style="stroke:#A80036;stroke-width:1.5;" width="125" x="322.5" y="1355.1641"/><text fill="#000000" font-family="sans-serif" font-size="14" lengthAdjust="spacing" textLength="111" x="329.5" y="1375.1592">GameGenerator</text><rect fill="#FEFECE" filter="url(#f1pe1mmze04hkv)" height="30.2969" style="stroke:#A80036;stroke-width:1.5;" width="140" x="461.5" y="53"/><text fill="#000000" font-family="sans-serif" font-size="14" lengthAdjust="spacing" textLength="126" x="468.5" y="72.9951">SaveLoadManager</text><rect fill="#FEFECE" filter="url(#f1pe1mmze04hkv)" height="30.2969" style="stroke:#A80036;stroke-width:1.5;" width="140" x="461.5" y="1355.1641"/><text fill="#000000" font-family="sans-serif" font-size="14" lengthAdjust="spacing" textLength="126" x="468.5" y="1375.1592">SaveLoadManager</text><rect fill="#FEFECE" filter="url(#f1pe1mmze04hkv)" height="30.2969" style="stroke:#A80036;stroke-width:1.5;" width="100" x="672.5" y="53"/><text fill="#000000" font-family="sans-serif" font-size="14" lengthAdjust="spacing" textLength="86" x="679.5" y="72.9951">GamePrinter</text><rect fill="#FEFECE" filter="url(#f1pe1mmze04hkv)" height="30.2969" style="stroke:#A80036;stroke-width:1.5;" width="100" x="672.5" y="1355.1641"/><text fill="#000000" font-family="sans-serif" font-size="14" lengthAdjust="spacing" textLength="86" x="679.5" y="1375.1592">GamePrinter</text><rect fill="#FFFFFF" filter="url(#f1pe1mmze04hkv)" height="1218.7344" style="stroke:#A80036;stroke-width:1.0;" width="10" x="92" y="119.4297"/><rect fill="#FFFFFF" filter="url(#f1pe1mmze04hkv)" height="25" style="stroke:#A80036;stroke-width:1.0;" width="10" x="97" y="156.5625"/><rect fill="#FFFFFF" filter="url(#f1pe1mmze04hkv)" height="57.1328" style="stroke:#A80036;stroke-width:1.0;" width="10" x="168.5" y="217.6953"/><rect fill="#FFFFFF" filter="url(#f1pe1mmze04hkv)" height="1020.2031" style="stroke:#A80036;stroke-width:1.0;" width="10" x="168.5" y="303.9609"/><rect fill="#FFFFFF" filter="url(#f1pe1mmze04hkv)" height="40.1328" style="stroke:#A80036;stroke-width:1.0;" width="10" x="173.5" y="341.0938"/><rect fill="#FFFFFF" filter="url(#f1pe1mmze04hkv)" height="83.2656" style="stroke:#A80036;stroke-width:1.0;" width="10" x="173.5" y="1150.7656"/><rect fill="#FFFFFF" filter="url(#f1pe1mmze04hkv)" height="25" style="stroke:#A80036;stroke-width:1.0;" width="10" x="173.5" y="1278.1641"/><rect fill="#FFFFFF" filter="url(#f1pe1mmze04hkv)" height="14" style="stroke:#A80036;stroke-width:1.0;" width="10" x="275.5" y="246.8281"/><rect fill="#FFFFFF" filter="url(#f1pe1mmze04hkv)" height="83.1328" style="stroke:#A80036;stroke-width:1.0;" width="10" x="275.5" y="1023.5"/><rect fill="#FFFFFF" filter="url(#f1pe1mmze04hkv)" height="25" style="stroke:#A80036;stroke-width:1.0;" width="10" x="280.5" y="1060.6328"/><rect fill="#FFFFFF" filter="url(#f1pe1mmze04hkv)" height="29.1328" style="stroke:#A80036;stroke-width:1.0;" width="10" x="382" y="441.4922"/><rect fill="#FFFFFF" filter="url(#f1pe1mmze04hkv)" height="83.1328" style="stroke:#A80036;stroke-width:1.0;" width="10" x="528.5" y="514.5625"/><rect fill="#FFFFFF" filter="url(#f1pe1mmze04hkv)" height="25" style="stroke:#A80036;stroke-width:1.0;" width="10" x="533.5" y="551.6953"/><rect fill="#FFFFFF" filter="url(#f1pe1mmze04hkv)" height="29.1328" style="stroke:#A80036;stroke-width:1.0;" width="10" x="528.5" y="626.8281"/><rect fill="#FFFFFF" filter="url(#f1pe1mmze04hkv)" height="152.2656" style="stroke:#A80036;stroke-width:1.0;" width="10" x="528.5" y="699.8984"/><rect fill="#FFFFFF" filter="url(#f1pe1mmze04hkv)" height="25" style="stroke:#A80036;stroke-width:1.0;" width="10" x="533.5" y="737.0313"/><rect fill="#FFFFFF" filter="url(#f1pe1mmze04hkv)" height="25" style="stroke:#A80036;stroke-width:1.0;" width="10" x="533.5" y="806.1641"/><rect fill="#FFFFFF" filter="url(#f1pe1mmze04hkv)" height="98.2656" style="stroke:#A80036;stroke-width:1.0;" width="10" x="528.5" y="896.1016"/><rect fill="#FFFFFF" filter="url(#f1pe1mmze04hkv)" height="25" style="stroke:#A80036;stroke-width:1.0;" width="10" x="533.5" y="933.2344"/><rect fill="#FFFFFF" filter="url(#f1pe1mmze04hkv)" height="29.1328" style="stroke:#A80036;stroke-width:1.0;" width="10" x="719.5" y="1184.8984"/><polygon fill="#A80036" points="80,115.4297,90,119.4297,80,123.4297,84,119.4297" style="stroke:#A80036;stroke-width:1.0;"/><line style="stroke:#A80036;stroke-width:1.0;" x1="34" x2="86" y1="119.4297" y2="119.4297"/><text fill="#000000" font-family="sans-serif" font-size="13" lengthAdjust="spacing" textLength="32" x="41" y="114.3638">main</text><line style="stroke:#A80036;stroke-width:1.0;" x1="102" x2="149" y1="143.5625" y2="143.5625"/><line style="stroke:#A80036;stroke-width:1.0;" x1="149" x2="149" y1="143.5625" y2="156.5625"/><line style="stroke:#A80036;stroke-width:1.0;" x1="108" x2="149" y1="156.5625" y2="156.5625"/><polygon fill="#A80036" points="118,152.5625,108,156.5625,118,160.5625,114,156.5625" style="stroke:#A80036;stroke-width:1.0;"/><text fill="#000000" font-family="sans-serif" font-size="13" lengthAdjust="spacing" textLength="46" x="114" y="138.4966">version</text><line style="stroke:#A80036;stroke-width:1.0;stroke-dasharray:2.0,2.0;" x1="107" x2="149" y1="180.5625" y2="180.5625"/><line style="stroke:#A80036;stroke-width:1.0;stroke-dasharray:2.0,2.0;" x1="149" x2="149" y1="180.5625" y2="193.5625"/><line style="stroke:#A80036;stroke-width:1.0;stroke-dasharray:2.0,2.0;" x1="102" x2="149" y1="193.5625" y2="193.5625"/><polygon fill="#A80036" points="112,189.5625,102,193.5625,112,197.5625,108,193.5625" style="stroke:#A80036;stroke-width:1.0;"/><polygon fill="#A80036" points="156.5,213.6953,166.5,217.6953,156.5,221.6953,160.5,217.6953" style="stroke:#A80036;stroke-width:1.0;"/><line style="stroke:#A80036;stroke-width:1.0;" x1="102" x2="162.5" y1="217.6953" y2="217.6953"/><text fill="#000000" font-family="sans-serif" font-size="13" lengthAdjust="spacing" textLength="25" x="109" y="212.6294">new</text><polygon fill="#A80036" points="263.5,242.8281,273.5,246.8281,263.5,250.8281,267.5,246.8281" style="stroke:#A80036;stroke-width:1.0;"/><line style="stroke:#A80036;stroke-width:1.0;" x1="178.5" x2="269.5" y1="246.8281" y2="246.8281"/><text fill="#000000" font-family="sans-serif" font-size="13" lengthAdjust="spacing" textLength="25" x="185.5" y="241.7622">new</text><polygon fill="#A80036" points="189.5,256.8281,179.5,260.8281,189.5,264.8281,185.5,260.8281" style="stroke:#A80036;stroke-width:1.0;"/><line style="stroke:#A80036;stroke-width:1.0;stroke-dasharray:2.0,2.0;" x1="183.5" x2="279.5" y1="260.8281" y2="260.8281"/><polygon fill="#A80036" points="113,270.8281,103,274.8281,113,278.8281,109,274.8281" style="stroke:#A80036;stroke-width:1.0;"/><line style="stroke:#A80036;stroke-width:1.0;stroke-dasharray:2.0,2.0;" x1="107" x2="172.5" y1="274.8281" y2="274.8281"/><polygon fill="#A80036" points="156.5,299.9609,166.5,303.9609,156.5,307.9609,160.5,303.9609" style="stroke:#A80036;stroke-width:1.0;"/><line style="stroke:#A80036;stroke-width:1.0;" x1="102" x2="162.5" y1="303.9609" y2="303.9609"/><text fill="#000000" font-family="sans-serif" font-size="13" lengthAdjust="spacing" textLength="21" x="109" y="298.895">run</text><line style="stroke:#A80036;stroke-width:1.0;" x1="178.5" x2="225.5" y1="328.0938" y2="328.0938"/><line style="stroke:#A80036;stroke-width:1.0;" x1="225.5" x2="225.5" y1="328.0938" y2="341.0938"/><line style="stroke:#A80036;stroke-width:1.0;" x1="184.5" x2="225.5" y1="341.0938" y2="341.0938"/><polygon fill="#A80036" points="194.5,337.0938,184.5,341.0938,194.5,345.0938,190.5,341.0938" style="stroke:#A80036;stroke-width:1.0;"/><text fill="#000000" font-family="sans-serif" font-size="13" lengthAdjust="spacing" textLength="37" x="190.5" y="323.0278">menu</text><line style="stroke:#A80036;stroke-width:1.0;stroke-dasharray:2.0,2.0;" x1="183.5" x2="225.5" y1="380.2266" y2="380.2266"/><line style="stroke:#A80036;stroke-width:1.0;stroke-dasharray:2.0,2.0;" x1="225.5" x2="225.5" y1="380.2266" y2="393.2266"/><line style="stroke:#A80036;stroke-width:1.0;stroke-dasharray:2.0,2.0;" x1="178.5" x2="225.5" y1="393.2266" y2="393.2266"/><polygon fill="#A80036" points="188.5,389.2266,178.5,393.2266,188.5,397.2266,184.5,393.2266" style="stroke:#A80036;stroke-width:1.0;"/><text fill="#000000" font-family="sans-serif" font-size="13" lengthAdjust="spacing" textLength="42" x="190.5" y="375.1606">opcion</text><path d="M121,403.2266 L185,403.2266 L185,410.2266 L175,420.2266 L121,420.2266 L121,403.2266 " fill="#EEEEEE" style="stroke:#000000;stroke-width:1.0;"/><rect fill="none" height="711.4063" style="stroke:#000000;stroke-width:2.0;" width="608.5" x="121" y="403.2266"/><text fill="#000000" font-family="sans-serif" font-size="13" font-weight="bold" lengthAdjust="spacing" textLength="19" x="136" y="416.2935">alt</text><text fill="#000000" font-family="sans-serif" font-size="11" font-weight="bold" lengthAdjust="spacing" textLength="78" x="200" y="415.437">[New Game]</text><polygon fill="#A80036" points="370,437.4922,380,441.4922,370,445.4922,374,441.4922" style="stroke:#A80036;stroke-width:1.0;"/><line style="stroke:#A80036;stroke-width:1.0;" x1="178.5" x2="376" y1="441.4922" y2="441.4922"/><text fill="#000000" font-family="sans-serif" font-size="13" lengthAdjust="spacing" textLength="80" x="185.5" y="436.4263">createGame</text><polygon fill="#A80036" points="189.5,466.625,179.5,470.625,189.5,474.625,185.5,470.625" style="stroke:#A80036;stroke-width:1.0;"/><line style="stroke:#A80036;stroke-width:1.0;stroke-dasharray:2.0,2.0;" x1="183.5" x2="386" y1="470.625" y2="470.625"/><text fill="#000000" font-family="sans-serif" font-size="13" lengthAdjust="spacing" textLength="39" x="195.5" y="465.5591">Game</text><line style="stroke:#000000;stroke-width:1.0;stroke-dasharray:2.0,2.0;" x1="121" x2="729.5" y1="479.625" y2="479.625"/><text fill="#000000" font-family="sans-serif" font-size="11" font-weight="bold" lengthAdjust="spacing" textLength="81" x="126" y="489.8354">[Load Game]</text><polygon fill="#A80036" points="516.5,510.5625,526.5,514.5625,516.5,518.5625,520.5,514.5625" style="stroke:#A80036;stroke-width:1.0;"/><line style="stroke:#A80036;stroke-width:1.0;" x1="178.5" x2="522.5" y1="514.5625" y2="514.5625"/><text fill="#000000" font-family="sans-serif" font-size="13" lengthAdjust="spacing" textLength="118" x="185.5" y="509.4966">showSavedGames</text><line style="stroke:#A80036;stroke-width:1.0;" x1="538.5" x2="585.5" y1="538.6953" y2="538.6953"/><line style="stroke:#A80036;stroke-width:1.0;" x1="585.5" x2="585.5" y1="538.6953" y2="551.6953"/><line style="stroke:#A80036;stroke-width:1.0;" x1="544.5" x2="585.5" y1="551.6953" y2="551.6953"/><polygon fill="#A80036" points="554.5,547.6953,544.5,551.6953,554.5,555.6953,550.5,551.6953" style="stroke:#A80036;stroke-width:1.0;"/><text fill="#000000" font-family="sans-serif" font-size="13" lengthAdjust="spacing" textLength="143" x="550.5" y="533.6294">getListOfSavedGames</text><line style="stroke:#A80036;stroke-width:1.0;stroke-dasharray:2.0,2.0;" x1="543.5" x2="585.5" y1="575.6953" y2="575.6953"/><line style="stroke:#A80036;stroke-width:1.0;stroke-dasharray:2.0,2.0;" x1="585.5" x2="585.5" y1="575.6953" y2="588.6953"/><line style="stroke:#A80036;stroke-width:1.0;stroke-dasharray:2.0,2.0;" x1="538.5" x2="585.5" y1="588.6953" y2="588.6953"/><polygon fill="#A80036" points="548.5,584.6953,538.5,588.6953,548.5,592.6953,544.5,588.6953" style="stroke:#A80036;stroke-width:1.0;"/><polygon fill="#A80036" points="189.5,593.6953,179.5,597.6953,189.5,601.6953,185.5,597.6953" style="stroke:#A80036;stroke-width:1.0;"/><line style="stroke:#A80036;stroke-width:1.0;stroke-dasharray:2.0,2.0;" x1="183.5" x2="532.5" y1="597.6953" y2="597.6953"/><polygon fill="#A80036" points="516.5,622.8281,526.5,626.8281,516.5,630.8281,520.5,626.8281" style="stroke:#A80036;stroke-width:1.0;"/><line style="stroke:#A80036;stroke-width:1.0;" x1="178.5" x2="522.5" y1="626.8281" y2="626.8281"/><text fill="#000000" font-family="sans-serif" font-size="13" lengthAdjust="spacing" textLength="66" x="185.5" y="621.7622">loadGame</text><polygon fill="#A80036" points="189.5,651.9609,179.5,655.9609,189.5,659.9609,185.5,655.9609" style="stroke:#A80036;stroke-width:1.0;"/><line style="stroke:#A80036;stroke-width:1.0;stroke-dasharray:2.0,2.0;" x1="183.5" x2="532.5" y1="655.9609" y2="655.9609"/><text fill="#000000" font-family="sans-serif" font-size="13" lengthAdjust="spacing" textLength="82" x="195.5" y="650.895">return Game</text><line style="stroke:#000000;stroke-width:1.0;stroke-dasharray:2.0,2.0;" x1="121" x2="729.5" y1="664.9609" y2="664.9609"/><text fill="#000000" font-family="sans-serif" font-size="11" font-weight="bold" lengthAdjust="spacing" textLength="92" x="126" y="675.1714">[Delete Game]</text><polygon fill="#A80036" points="516.5,695.8984,526.5,699.8984,516.5,703.8984,520.5,699.8984" style="stroke:#A80036;stroke-width:1.0;"/><line style="stroke:#A80036;stroke-width:1.0;" x1="178.5" x2="522.5" y1="699.8984" y2="699.8984"/><text fill="#000000" font-family="sans-serif" font-size="13" lengthAdjust="spacing" textLength="88" x="185.5" y="694.8325">removeGame</text><line style="stroke:#A80036;stroke-width:1.0;" x1="538.5" x2="585.5" y1="724.0313" y2="724.0313"/><line style="stroke:#A80036;stroke-width:1.0;" x1="585.5" x2="585.5" y1="724.0313" y2="737.0313"/><line style="stroke:#A80036;stroke-width:1.0;" x1="544.5" x2="585.5" y1="737.0313" y2="737.0313"/><polygon fill="#A80036" points="554.5,733.0313,544.5,737.0313,554.5,741.0313,550.5,737.0313" style="stroke:#A80036;stroke-width:1.0;"/><text fill="#000000" font-family="sans-serif" font-size="13" lengthAdjust="spacing" textLength="143" x="550.5" y="718.9653">getListOfSavedGames</text><line style="stroke:#A80036;stroke-width:1.0;stroke-dasharray:2.0,2.0;" x1="543.5" x2="585.5" y1="761.0313" y2="761.0313"/><line style="stroke:#A80036;stroke-width:1.0;stroke-dasharray:2.0,2.0;" x1="585.5" x2="585.5" y1="761.0313" y2="774.0313"/><line style="stroke:#A80036;stroke-width:1.0;stroke-dasharray:2.0,2.0;" x1="538.5" x2="585.5" y1="774.0313" y2="774.0313"/><polygon fill="#A80036" points="548.5,770.0313,538.5,774.0313,548.5,778.0313,544.5,774.0313" style="stroke:#A80036;stroke-width:1.0;"/><line style="stroke:#A80036;stroke-width:1.0;" x1="538.5" x2="585.5" y1="793.1641" y2="793.1641"/><line style="stroke:#A80036;stroke-width:1.0;" x1="585.5" x2="585.5" y1="793.1641" y2="806.1641"/><line style="stroke:#A80036;stroke-width:1.0;" x1="544.5" x2="585.5" y1="806.1641" y2="806.1641"/><polygon fill="#A80036" points="554.5,802.1641,544.5,806.1641,554.5,810.1641,550.5,806.1641" style="stroke:#A80036;stroke-width:1.0;"/><text fill="#000000" font-family="sans-serif" font-size="13" lengthAdjust="spacing" textLength="167" x="550.5" y="788.0981">updateListOfSavedGames</text><line style="stroke:#A80036;stroke-width:1.0;stroke-dasharray:2.0,2.0;" x1="543.5" x2="585.5" y1="830.1641" y2="830.1641"/><line style="stroke:#A80036;stroke-width:1.0;stroke-dasharray:2.0,2.0;" x1="585.5" x2="585.5" y1="830.1641" y2="843.1641"/><line style="stroke:#A80036;stroke-width:1.0;stroke-dasharray:2.0,2.0;" x1="538.5" x2="585.5" y1="843.1641" y2="843.1641"/><polygon fill="#A80036" points="548.5,839.1641,538.5,843.1641,548.5,847.1641,544.5,843.1641" style="stroke:#A80036;stroke-width:1.0;"/><polygon fill="#A80036" points="189.5,848.1641,179.5,852.1641,189.5,856.1641,185.5,852.1641" style="stroke:#A80036;stroke-width:1.0;"/><line style="stroke:#A80036;stroke-width:1.0;stroke-dasharray:2.0,2.0;" x1="183.5" x2="532.5" y1="852.1641" y2="852.1641"/><line style="stroke:#000000;stroke-width:1.0;stroke-dasharray:2.0,2.0;" x1="121" x2="729.5" y1="861.1641" y2="861.1641"/><text fill="#000000" font-family="sans-serif" font-size="11" font-weight="bold" lengthAdjust="spacing" textLength="93" x="126" y="871.3745">[Replay Game]</text><polygon fill="#A80036" points="516.5,892.1016,526.5,896.1016,516.5,900.1016,520.5,896.1016" style="stroke:#A80036;stroke-width:1.0;"/><line style="stroke:#A80036;stroke-width:1.0;" x1="178.5" x2="522.5" y1="896.1016" y2="896.1016"/><text fill="#000000" font-family="sans-serif" font-size="13" lengthAdjust="spacing" textLength="69" x="185.5" y="891.0356">loadReplay</text><line style="stroke:#A80036;stroke-width:1.0;" x1="538.5" x2="585.5" y1="920.2344" y2="920.2344"/><line style="stroke:#A80036;stroke-width:1.0;" x1="585.5" x2="585.5" y1="920.2344" y2="933.2344"/><line style="stroke:#A80036;stroke-width:1.0;" x1="544.5" x2="585.5" y1="933.2344" y2="933.2344"/><polygon fill="#A80036" points="554.5,929.2344,544.5,933.2344,554.5,937.2344,550.5,933.2344" style="stroke:#A80036;stroke-width:1.0;"/><text fill="#000000" font-family="sans-serif" font-size="13" lengthAdjust="spacing" textLength="69" x="550.5" y="915.1685">loadReplay</text><line style="stroke:#A80036;stroke-width:1.0;stroke-dasharray:2.0,2.0;" x1="543.5" x2="585.5" y1="957.2344" y2="957.2344"/><line style="stroke:#A80036;stroke-width:1.0;stroke-dasharray:2.0,2.0;" x1="585.5" x2="585.5" y1="957.2344" y2="970.2344"/><line style="stroke:#A80036;stroke-width:1.0;stroke-dasharray:2.0,2.0;" x1="538.5" x2="585.5" y1="970.2344" y2="970.2344"/><polygon fill="#A80036" points="548.5,966.2344,538.5,970.2344,548.5,974.2344,544.5,970.2344" style="stroke:#A80036;stroke-width:1.0;"/><polygon fill="#A80036" points="189.5,990.3672,179.5,994.3672,189.5,998.3672,185.5,994.3672" style="stroke:#A80036;stroke-width:1.0;"/><line style="stroke:#A80036;stroke-width:1.0;stroke-dasharray:2.0,2.0;" x1="183.5" x2="532.5" y1="994.3672" y2="994.3672"/><text fill="#000000" font-family="sans-serif" font-size="13" lengthAdjust="spacing" textLength="42" x="195.5" y="989.3013">Replay</text><polygon fill="#A80036" points="263.5,1019.5,273.5,1023.5,263.5,1027.5,267.5,1023.5" style="stroke:#A80036;stroke-width:1.0;"/><line style="stroke:#A80036;stroke-width:1.0;" x1="178.5" x2="269.5" y1="1023.5" y2="1023.5"/><text fill="#000000" font-family="sans-serif" font-size="13" lengthAdjust="spacing" textLength="72" x="185.5" y="1018.4341">startReplay</text><line style="stroke:#A80036;stroke-width:1.0;" x1="285.5" x2="332.5" y1="1047.6328" y2="1047.6328"/><line style="stroke:#A80036;stroke-width:1.0;" x1="332.5" x2="332.5" y1="1047.6328" y2="1060.6328"/><line style="stroke:#A80036;stroke-width:1.0;" x1="291.5" x2="332.5" y1="1060.6328" y2="1060.6328"/><polygon fill="#A80036" points="301.5,1056.6328,291.5,1060.6328,301.5,1064.6328,297.5,1060.6328" style="stroke:#A80036;stroke-width:1.0;"/><text fill="#000000" font-family="sans-serif" font-size="13" lengthAdjust="spacing" textLength="51" x="297.5" y="1042.5669">execute</text><line style="stroke:#A80036;stroke-width:1.0;stroke-dasharray:2.0,2.0;" x1="290.5" x2="332.5" y1="1084.6328" y2="1084.6328"/><line style="stroke:#A80036;stroke-width:1.0;stroke-dasharray:2.0,2.0;" x1="332.5" x2="332.5" y1="1084.6328" y2="1097.6328"/><line style="stroke:#A80036;stroke-width:1.0;stroke-dasharray:2.0,2.0;" x1="285.5" x2="332.5" y1="1097.6328" y2="1097.6328"/><polygon fill="#A80036" points="295.5,1093.6328,285.5,1097.6328,295.5,1101.6328,291.5,1097.6328" style="stroke:#A80036;stroke-width:1.0;"/><polygon fill="#A80036" points="189.5,1102.6328,179.5,1106.6328,189.5,1110.6328,185.5,1106.6328" style="stroke:#A80036;stroke-width:1.0;"/><line style="stroke:#A80036;stroke-width:1.0;stroke-dasharray:2.0,2.0;" x1="183.5" x2="279.5" y1="1106.6328" y2="1106.6328"/><line style="stroke:#A80036;stroke-width:1.0;" x1="178.5" x2="225.5" y1="1137.7656" y2="1137.7656"/><line style="stroke:#A80036;stroke-width:1.0;" x1="225.5" x2="225.5" y1="1137.7656" y2="1150.7656"/><line style="stroke:#A80036;stroke-width:1.0;" x1="184.5" x2="225.5" y1="1150.7656" y2="1150.7656"/><polygon fill="#A80036" points="194.5,1146.7656,184.5,1150.7656,194.5,1154.7656,190.5,1150.7656" style="stroke:#A80036;stroke-width:1.0;"/><text fill="#000000" font-family="sans-serif" font-size="13" lengthAdjust="spacing" textLength="83" x="190.5" y="1132.6997">createPrinter</text><polygon fill="#A80036" points="707.5,1180.8984,717.5,1184.8984,707.5,1188.8984,711.5,1184.8984" style="stroke:#A80036;stroke-width:1.0;"/><line style="stroke:#A80036;stroke-width:1.0;" x1="183.5" x2="713.5" y1="1184.8984" y2="1184.8984"/><text fill="#000000" font-family="sans-serif" font-size="13" lengthAdjust="spacing" textLength="25" x="190.5" y="1179.8325">new</text><polygon fill="#A80036" points="194.5,1210.0313,184.5,1214.0313,194.5,1218.0313,190.5,1214.0313" style="stroke:#A80036;stroke-width:1.0;"/><line style="stroke:#A80036;stroke-width:1.0;stroke-dasharray:2.0,2.0;" x1="188.5" x2="723.5" y1="1214.0313" y2="1214.0313"/><text fill="#000000" font-family="sans-serif" font-size="13" lengthAdjust="spacing" textLength="81" x="200.5" y="1208.9653">GamePrinter</text><line style="stroke:#A80036;stroke-width:1.0;stroke-dasharray:2.0,2.0;" x1="183.5" x2="225.5" y1="1233.0313" y2="1233.0313"/><line style="stroke:#A80036;stroke-width:1.0;stroke-dasharray:2.0,2.0;" x1="225.5" x2="225.5" y1="1233.0313" y2="1246.0313"/><line style="stroke:#A80036;stroke-width:1.0;stroke-dasharray:2.0,2.0;" x1="178.5" x2="225.5" y1="1246.0313" y2="1246.0313"/><polygon fill="#A80036" points="188.5,1242.0313,178.5,1246.0313,188.5,1250.0313,184.5,1246.0313" style="stroke:#A80036;stroke-width:1.0;"/><line style="stroke:#A80036;stroke-width:1.0;" x1="178.5" x2="225.5" y1="1265.1641" y2="1265.1641"/><line style="stroke:#A80036;stroke-width:1.0;" x1="225.5" x2="225.5" y1="1265.1641" y2="1278.1641"/><line style="stroke:#A80036;stroke-width:1.0;" x1="184.5" x2="225.5" y1="1278.1641" y2="1278.1641"/><polygon fill="#A80036" points="194.5,1274.1641,184.5,1278.1641,194.5,1282.1641,190.5,1278.1641" style="stroke:#A80036;stroke-width:1.0;"/><text fill="#000000" font-family="sans-serif" font-size="13" lengthAdjust="spacing" textLength="26" x="190.5" y="1260.0981">play</text><line style="stroke:#A80036;stroke-width:1.0;stroke-dasharray:2.0,2.0;" x1="183.5" x2="225.5" y1="1302.1641" y2="1302.1641"/><line style="stroke:#A80036;stroke-width:1.0;stroke-dasharray:2.0,2.0;" x1="225.5" x2="225.5" y1="1302.1641" y2="1315.1641"/><line style="stroke:#A80036;stroke-width:1.0;stroke-dasharray:2.0,2.0;" x1="178.5" x2="225.5" y1="1315.1641" y2="1315.1641"/><polygon fill="#A80036" points="188.5,1311.1641,178.5,1315.1641,188.5,1319.1641,184.5,1315.1641" style="stroke:#A80036;stroke-width:1.0;"/><polygon fill="#A80036" points="113,1320.1641,103,1324.1641,113,1328.1641,109,1324.1641" style="stroke:#A80036;stroke-width:1.0;"/><line style="stroke:#A80036;stroke-width:1.0;stroke-dasharray:2.0,2.0;" x1="107" x2="172.5" y1="1324.1641" y2="1324.1641"/><polygon fill="#A80036" points="45,1334.1641,35,1338.1641,45,1342.1641,41,1338.1641" style="stroke:#A80036;stroke-width:1.0;"/><line style="stroke:#A80036;stroke-width:1.0;stroke-dasharray:2.0,2.0;" x1="39" x2="96" y1="1338.1641" y2="1338.1641"/><!--MD5=[1c0e4530db7a74fbb5cfe67f94d43535]
@startuml
actor Usuario
Usuario -> Rolit : main
activate Rolit
Rolit -> Rolit : version
activate Rolit
Rolit - -> Rolit
deactivate Rolit
Rolit -> Controller : new
activate Controller
Controller -> Replay : new
activate Replay
Replay - -> Controller
deactivate Replay
Controller - -> Rolit
deactivate Controller
Rolit -> Controller : run

activate Controller
Controller -> Controller : menu
activate Controller
Controller - -> Controller : opcion
deactivate Controller

alt New Game

Controller -> GameGenerator : createGame
activate GameGenerator
GameGenerator - -> Controller : Game
deactivate GameGenerator

else Load Game

Controller -> SaveLoadManager : showSavedGames
activate SaveLoadManager
SaveLoadManager -> SaveLoadManager : getListOfSavedGames
activate SaveLoadManager
SaveLoadManager - -> SaveLoadManager
deactivate SaveLoadManager
SaveLoadManager - -> Controller
deactivate SaveLoadManager
Controller -> SaveLoadManager : loadGame
activate SaveLoadManager
SaveLoadManager - -> Controller : return Game
deactivate SaveLoadManager

else Delete Game

Controller -> SaveLoadManager : removeGame
activate SaveLoadManager
SaveLoadManager -> SaveLoadManager : getListOfSavedGames
activate SaveLoadManager
SaveLoadManager - -> SaveLoadManager
deactivate SaveLoadManager
SaveLoadManager -> SaveLoadManager : updateListOfSavedGames
activate SaveLoadManager
SaveLoadManager - -> SaveLoadManager
deactivate SaveLoadManager
SaveLoadManager - -> Controller
deactivate SaveLoadManager

else Replay Game

Controller -> SaveLoadManager : loadReplay
activate SaveLoadManager
SaveLoadManager -> SaveLoadManager : loadReplay
activate SaveLoadManager
SaveLoadManager - -> SaveLoadManager
deactivate SaveLoadManager
SaveLoadManager - -> Controller : Replay
deactivate SaveLoadManager
Controller -> Replay : startReplay
activate Replay
Replay -> Replay : execute
activate Replay
Replay - -> Replay
deactivate Replay
Replay - -> Controller
deactivate Replay

end

Controller -> Controller : createPrinter
activate Controller
Controller -> GamePrinter : new
activate GamePrinter
GamePrinter - -> Controller : GamePrinter
deactivate GamePrinter
Controller - -> Controller
deactivate Controller
Controller -> Controller : play
activate Controller
Controller - -> Controller
deactivate Controller
Controller - -> Rolit
deactivate Controller
return
@enduml

PlantUML version 1.2021.16(Wed Dec 08 17:25:22 UTC 2021)
(GPL source distribution)
Java Runtime: OpenJDK Runtime Environment
JVM: OpenJDK 64-Bit Server VM
Default Encoding: UTF-8
Language: en
Country: US
--></g></svg>