<?xml version="1.0" encoding="UTF-8" standalone="no"?><svg xmlns="http://www.w3.org/2000/svg" xmlns:xlink="http://www.w3.org/1999/xlink" contentScriptType="application/ecmascript" contentStyleType="text/css" height="1502px" preserveAspectRatio="none" style="width:800px;height:1502px;background:#FFFFFF;" version="1.1" viewBox="0 0 800 1502" width="800px" zoomAndPan="magnify"><defs><filter height="300%" id="fvgj3ey7s9rwv" width="300%" x="-1" y="-1"><feGaussianBlur result="blurOut" stdDeviation="2.0"/><feColorMatrix in="blurOut" result="blurOut2" type="matrix" values="0 0 0 0 0 0 0 0 0 0 0 0 0 0 0 0 0 0 .4 0"/><feOffset dx="4.0" dy="4.0" in="blurOut2" result="blurOut3"/><feBlend in="SourceGraphic" in2="blurOut3" mode="normal"/></filter></defs><g><rect fill="#FFFFFF" filter="url(#fvgj3ey7s9rwv)" height="1281" style="stroke:#A80036;stroke-width:1.0;" width="10" x="92" y="119.4297"/><rect fill="#FFFFFF" filter="url(#fvgj3ey7s9rwv)" height="25" style="stroke:#A80036;stroke-width:1.0;" width="10" x="97" y="156.5625"/><rect fill="#FFFFFF" filter="url(#fvgj3ey7s9rwv)" height="57.1328" style="stroke:#A80036;stroke-width:1.0;" width="10" x="168.5" y="217.6953"/><rect fill="#FFFFFF" filter="url(#fvgj3ey7s9rwv)" height="1082.4688" style="stroke:#A80036;stroke-width:1.0;" width="10" x="168.5" y="303.9609"/><rect fill="#FFFFFF" filter="url(#fvgj3ey7s9rwv)" height="40.1328" style="stroke:#A80036;stroke-width:1.0;" width="10" x="173.5" y="365.2266"/><rect fill="#FFFFFF" filter="url(#fvgj3ey7s9rwv)" height="83.2656" style="stroke:#A80036;stroke-width:1.0;" width="10" x="173.5" y="1206.0313"/><rect fill="#FFFFFF" filter="url(#fvgj3ey7s9rwv)" height="25" style="stroke:#A80036;stroke-width:1.0;" width="10" x="173.5" y="1333.4297"/><rect fill="#FFFFFF" filter="url(#fvgj3ey7s9rwv)" height="14" style="stroke:#A80036;stroke-width:1.0;" width="10" x="275.5" y="246.8281"/><rect fill="#FFFFFF" filter="url(#fvgj3ey7s9rwv)" height="83.1328" style="stroke:#A80036;stroke-width:1.0;" width="10" x="275.5" y="1047.6328"/><rect fill="#FFFFFF" filter="url(#fvgj3ey7s9rwv)" height="25" style="stroke:#A80036;stroke-width:1.0;" width="10" x="280.5" y="1084.7656"/><rect fill="#FFFFFF" filter="url(#fvgj3ey7s9rwv)" height="29.1328" style="stroke:#A80036;stroke-width:1.0;" width="10" x="382" y="465.625"/><rect fill="#FFFFFF" filter="url(#fvgj3ey7s9rwv)" height="83.1328" style="stroke:#A80036;stroke-width:1.0;" width="10" x="528.5" y="538.6953"/><rect fill="#FFFFFF" filter="url(#fvgj3ey7s9rwv)" height="25" style="stroke:#A80036;stroke-width:1.0;" width="10" x="533.5" y="575.8281"/><rect fill="#FFFFFF" filter="url(#fvgj3ey7s9rwv)" height="29.1328" style="stroke:#A80036;stroke-width:1.0;" width="10" x="528.5" y="650.9609"/><rect fill="#FFFFFF" filter="url(#fvgj3ey7s9rwv)" height="152.2656" style="stroke:#A80036;stroke-width:1.0;" width="10" x="528.5" y="724.0313"/><rect fill="#FFFFFF" filter="url(#fvgj3ey7s9rwv)" height="25" style="stroke:#A80036;stroke-width:1.0;" width="10" x="533.5" y="761.1641"/><rect fill="#FFFFFF" filter="url(#fvgj3ey7s9rwv)" height="25" style="stroke:#A80036;stroke-width:1.0;" width="10" x="533.5" y="830.2969"/><rect fill="#FFFFFF" filter="url(#fvgj3ey7s9rwv)" height="98.2656" style="stroke:#A80036;stroke-width:1.0;" width="10" x="528.5" y="920.2344"/><rect fill="#FFFFFF" filter="url(#fvgj3ey7s9rwv)" height="25" style="stroke:#A80036;stroke-width:1.0;" width="10" x="533.5" y="957.3672"/><rect fill="#FFFFFF" filter="url(#fvgj3ey7s9rwv)" height="29.1328" style="stroke:#A80036;stroke-width:1.0;" width="10" x="719.5" y="1240.1641"/><rect fill="#FFFFFF" filter="url(#fvgj3ey7s9rwv)" height="826.8047" style="stroke:#000000;stroke-width:2.0;" width="628.5" x="111" y="318.9609"/><rect fill="#FFFFFF" filter="url(#fvgj3ey7s9rwv)" height="711.4063" style="stroke:#000000;stroke-width:2.0;" width="608.5" x="121" y="427.3594"/><rect fill="#FFFFFF" height="185.3359" style="stroke:none;stroke-width:1.0;" width="608.5" x="121" y="502.7578"/><rect fill="#FFFFFF" height="196.2031" style="stroke:none;stroke-width:1.0;" width="608.5" x="121" y="688.0938"/><rect fill="#FFFFFF" height="254.4688" style="stroke:none;stroke-width:1.0;" width="608.5" x="121" y="884.2969"/><rect fill="#FFFFFF" filter="url(#fvgj3ey7s9rwv)" height="213.6641" style="stroke:#000000;stroke-width:2.0;" width="665.5" x="121" y="1159.7656"/><line style="stroke:#A80036;stroke-width:1.0;stroke-dasharray:5.0,5.0;" x1="34" x2="34" y1="88.2969" y2="1418.4297"/><line style="stroke:#A80036;stroke-width:1.0;stroke-dasharray:5.0,5.0;" x1="97" x2="97" y1="88.2969" y2="1418.4297"/><line style="stroke:#A80036;stroke-width:1.0;stroke-dasharray:5.0,5.0;" x1="173" x2="173" y1="88.2969" y2="1418.4297"/><line style="stroke:#A80036;stroke-width:1.0;stroke-dasharray:5.0,5.0;" x1="280.5" x2="280.5" y1="88.2969" y2="1418.4297"/><line style="stroke:#A80036;stroke-width:1.0;stroke-dasharray:5.0,5.0;" x1="386.5" x2="386.5" y1="88.2969" y2="1418.4297"/><line style="stroke:#A80036;stroke-width:1.0;stroke-dasharray:5.0,5.0;" x1="533.5" x2="533.5" y1="88.2969" y2="1418.4297"/><line style="stroke:#A80036;stroke-width:1.0;stroke-dasharray:5.0,5.0;" x1="724.5" x2="724.5" y1="88.2969" y2="1418.4297"/><text fill="#000000" font-family="sans-serif" font-size="14" lengthAdjust="spacing" textLength="52" x="5" y="84.9951">Usuario</text><ellipse cx="34" cy="15" fill="#FEFECE" filter="url(#fvgj3ey7s9rwv)" rx="8" ry="8" style="stroke:#A80036;stroke-width:2.0;"/><path d="M34,23 L34,50 M21,31 L47,31 M34,50 L21,65 M34,50 L47,65 " fill="none" filter="url(#fvgj3ey7s9rwv)" style="stroke:#A80036;stroke-width:2.0;"/><text fill="#000000" font-family="sans-serif" font-size="14" lengthAdjust="spacing" textLength="52" x="5" y="1430.4248">Usuario</text><ellipse cx="34" cy="1443.7266" fill="#FEFECE" filter="url(#fvgj3ey7s9rwv)" rx="8" ry="8" style="stroke:#A80036;stroke-width:2.0;"/><path d="M34,1451.7266 L34,1478.7266 M21,1459.7266 L47,1459.7266 M34,1478.7266 L21,1493.7266 M34,1478.7266 L47,1493.7266 " fill="none" filter="url(#fvgj3ey7s9rwv)" style="stroke:#A80036;stroke-width:2.0;"/><rect fill="#FEFECE" filter="url(#fvgj3ey7s9rwv)" height="30.2969" style="stroke:#A80036;stroke-width:1.5;" width="44" x="73" y="53"/><text fill="#000000" font-family="sans-serif" font-size="14" lengthAdjust="spacing" textLength="30" x="80" y="72.9951">Rolit</text><rect fill="#FEFECE" filter="url(#fvgj3ey7s9rwv)" height="30.2969" style="stroke:#A80036;stroke-width:1.5;" width="44" x="73" y="1417.4297"/><text fill="#000000" font-family="sans-serif" font-size="14" lengthAdjust="spacing" textLength="30" x="80" y="1437.4248">Rolit</text><rect fill="#FEFECE" filter="url(#fvgj3ey7s9rwv)" height="30.2969" style="stroke:#A80036;stroke-width:1.5;" width="81" x="131" y="53"/><text fill="#000000" font-family="sans-serif" font-size="14" lengthAdjust="spacing" textLength="67" x="138" y="72.9951">Controller</text><rect fill="#FEFECE" filter="url(#fvgj3ey7s9rwv)" height="30.2969" style="stroke:#A80036;stroke-width:1.5;" width="81" x="131" y="1417.4297"/><text fill="#000000" font-family="sans-serif" font-size="14" lengthAdjust="spacing" textLength="67" x="138" y="1437.4248">Controller</text><rect fill="#FEFECE" filter="url(#fvgj3ey7s9rwv)" height="30.2969" style="stroke:#A80036;stroke-width:1.5;" width="60" x="248.5" y="53"/><text fill="#000000" font-family="sans-serif" font-size="14" lengthAdjust="spacing" textLength="46" x="255.5" y="72.9951">Replay</text><rect fill="#FEFECE" filter="url(#fvgj3ey7s9rwv)" height="30.2969" style="stroke:#A80036;stroke-width:1.5;" width="60" x="248.5" y="1417.4297"/><text fill="#000000" font-family="sans-serif" font-size="14" lengthAdjust="spacing" textLength="46" x="255.5" y="1437.4248">Replay</text><rect fill="#FEFECE" filter="url(#fvgj3ey7s9rwv)" height="30.2969" style="stroke:#A80036;stroke-width:1.5;" width="125" x="322.5" y="53"/><text fill="#000000" font-family="sans-serif" font-size="14" lengthAdjust="spacing" textLength="111" x="329.5" y="72.9951">GameGenerator</text><rect fill="#FEFECE" filter="url(#fvgj3ey7s9rwv)" height="30.2969" style="stroke:#A80036;stroke-width:1.5;" width="125" x="322.5" y="1417.4297"/><text fill="#000000" font-family="sans-serif" font-size="14" lengthAdjust="spacing" textLength="111" x="329.5" y="1437.4248">GameGenerator</text><rect fill="#FEFECE" filter="url(#fvgj3ey7s9rwv)" height="30.2969" style="stroke:#A80036;stroke-width:1.5;" width="140" x="461.5" y="53"/><text fill="#000000" font-family="sans-serif" font-size="14" lengthAdjust="spacing" textLength="126" x="468.5" y="72.9951">SaveLoadManager</text><rect fill="#FEFECE" filter="url(#fvgj3ey7s9rwv)" height="30.2969" style="stroke:#A80036;stroke-width:1.5;" width="140" x="461.5" y="1417.4297"/><text fill="#000000" font-family="sans-serif" font-size="14" lengthAdjust="spacing" textLength="126" x="468.5" y="1437.4248">SaveLoadManager</text><rect fill="#FEFECE" filter="url(#fvgj3ey7s9rwv)" height="30.2969" style="stroke:#A80036;stroke-width:1.5;" width="100" x="672.5" y="53"/><text fill="#000000" font-family="sans-serif" font-size="14" lengthAdjust="spacing" textLength="86" x="679.5" y="72.9951">GamePrinter</text><rect fill="#FEFECE" filter="url(#fvgj3ey7s9rwv)" height="30.2969" style="stroke:#A80036;stroke-width:1.5;" width="100" x="672.5" y="1417.4297"/><text fill="#000000" font-family="sans-serif" font-size="14" lengthAdjust="spacing" textLength="86" x="679.5" y="1437.4248">GamePrinter</text><rect fill="#FFFFFF" filter="url(#fvgj3ey7s9rwv)" height="1281" style="stroke:#A80036;stroke-width:1.0;" width="10" x="92" y="119.4297"/><rect fill="#FFFFFF" filter="url(#fvgj3ey7s9rwv)" height="25" style="stroke:#A80036;stroke-width:1.0;" width="10" x="97" y="156.5625"/><rect fill="#FFFFFF" filter="url(#fvgj3ey7s9rwv)" height="57.1328" style="stroke:#A80036;stroke-width:1.0;" width="10" x="168.5" y="217.6953"/><rect fill="#FFFFFF" filter="url(#fvgj3ey7s9rwv)" height="1082.4688" style="stroke:#A80036;stroke-width:1.0;" width="10" x="168.5" y="303.9609"/><rect fill="#FFFFFF" filter="url(#fvgj3ey7s9rwv)" height="40.1328" style="stroke:#A80036;stroke-width:1.0;" width="10" x="173.5" y="365.2266"/><rect fill="#FFFFFF" filter="url(#fvgj3ey7s9rwv)" height="83.2656" style="stroke:#A80036;stroke-width:1.0;" width="10" x="173.5" y="1206.0313"/><rect fill="#FFFFFF" filter="url(#fvgj3ey7s9rwv)" height="25" style="stroke:#A80036;stroke-width:1.0;" width="10" x="173.5" y="1333.4297"/><rect fill="#FFFFFF" filter="url(#fvgj3ey7s9rwv)" height="14" style="stroke:#A80036;stroke-width:1.0;" width="10" x="275.5" y="246.8281"/><rect fill="#FFFFFF" filter="url(#fvgj3ey7s9rwv)" height="83.1328" style="stroke:#A80036;stroke-width:1.0;" width="10" x="275.5" y="1047.6328"/><rect fill="#FFFFFF" filter="url(#fvgj3ey7s9rwv)" height="25" style="stroke:#A80036;stroke-width:1.0;" width="10" x="280.5" y="1084.7656"/><rect fill="#FFFFFF" filter="url(#fvgj3ey7s9rwv)" height="29.1328" style="stroke:#A80036;stroke-width:1.0;" width="10" x="382" y="465.625"/><rect fill="#FFFFFF" filter="url(#fvgj3ey7s9rwv)" height="83.1328" style="stroke:#A80036;stroke-width:1.0;" width="10" x="528.5" y="538.6953"/><rect fill="#FFFFFF" filter="url(#fvgj3ey7s9rwv)" height="25" style="stroke:#A80036;stroke-width:1.0;" width="10" x="533.5" y="575.8281"/><rect fill="#FFFFFF" filter="url(#fvgj3ey7s9rwv)" height="29.1328" style="stroke:#A80036;stroke-width:1.0;" width="10" x="528.5" y="650.9609"/><rect fill="#FFFFFF" filter="url(#fvgj3ey7s9rwv)" height="152.2656" style="stroke:#A80036;stroke-width:1.0;" width="10" x="528.5" y="724.0313"/><rect fill="#FFFFFF" filter="url(#fvgj3ey7s9rwv)" height="25" style="stroke:#A80036;stroke-width:1.0;" width="10" x="533.5" y="761.1641"/><rect fill="#FFFFFF" filter="url(#fvgj3ey7s9rwv)" height="25" style="stroke:#A80036;stroke-width:1.0;" width="10" x="533.5" y="830.2969"/><rect fill="#FFFFFF" filter="url(#fvgj3ey7s9rwv)" height="98.2656" style="stroke:#A80036;stroke-width:1.0;" width="10" x="528.5" y="920.2344"/><rect fill="#FFFFFF" filter="url(#fvgj3ey7s9rwv)" height="25" style="stroke:#A80036;stroke-width:1.0;" width="10" x="533.5" y="957.3672"/><rect fill="#FFFFFF" filter="url(#fvgj3ey7s9rwv)" height="29.1328" style="stroke:#A80036;stroke-width:1.0;" width="10" x="719.5" y="1240.1641"/><polygon fill="#A80036" points="80,115.4297,90,119.4297,80,123.4297,84,119.4297" style="stroke:#A80036;stroke-width:1.0;"/><line style="stroke:#A80036;stroke-width:1.0;" x1="34" x2="86" y1="119.4297" y2="119.4297"/><text fill="#000000" font-family="sans-serif" font-size="13" lengthAdjust="spacing" textLength="32" x="41" y="114.3638">main</text><line style="stroke:#A80036;stroke-width:1.0;" x1="102" x2="149" y1="143.5625" y2="143.5625"/><line style="stroke:#A80036;stroke-width:1.0;" x1="149" x2="149" y1="143.5625" y2="156.5625"/><line style="stroke:#A80036;stroke-width:1.0;" x1="108" x2="149" y1="156.5625" y2="156.5625"/><polygon fill="#A80036" points="118,152.5625,108,156.5625,118,160.5625,114,156.5625" style="stroke:#A80036;stroke-width:1.0;"/><text fill="#000000" font-family="sans-serif" font-size="13" lengthAdjust="spacing" textLength="46" x="114" y="138.4966">version</text><line style="stroke:#A80036;stroke-width:1.0;stroke-dasharray:2.0,2.0;" x1="107" x2="149" y1="180.5625" y2="180.5625"/><line style="stroke:#A80036;stroke-width:1.0;stroke-dasharray:2.0,2.0;" x1="149" x2="149" y1="180.5625" y2="193.5625"/><line style="stroke:#A80036;stroke-width:1.0;stroke-dasharray:2.0,2.0;" x1="102" x2="149" y1="193.5625" y2="193.5625"/><polygon fill="#A80036" points="112,189.5625,102,193.5625,112,197.5625,108,193.5625" style="stroke:#A80036;stroke-width:1.0;"/><polygon fill="#A80036" points="156.5,213.6953,166.5,217.6953,156.5,221.6953,160.5,217.6953" style="stroke:#A80036;stroke-width:1.0;"/><line style="stroke:#A80036;stroke-width:1.0;" x1="102" x2="162.5" y1="217.6953" y2="217.6953"/><text fill="#000000" font-family="sans-serif" font-size="13" lengthAdjust="spacing" textLength="25" x="109" y="212.6294">new</text><polygon fill="#A80036" points="263.5,242.8281,273.5,246.8281,263.5,250.8281,267.5,246.8281" style="stroke:#A80036;stroke-width:1.0;"/><line style="stroke:#A80036;stroke-width:1.0;" x1="178.5" x2="269.5" y1="246.8281" y2="246.8281"/><text fill="#000000" font-family="sans-serif" font-size="13" lengthAdjust="spacing" textLength="25" x="185.5" y="241.7622">new</text><polygon fill="#A80036" points="189.5,256.8281,179.5,260.8281,189.5,264.8281,185.5,260.8281" style="stroke:#A80036;stroke-width:1.0;"/><line style="stroke:#A80036;stroke-width:1.0;stroke-dasharray:2.0,2.0;" x1="183.5" x2="279.5" y1="260.8281" y2="260.8281"/><polygon fill="#A80036" points="113,270.8281,103,274.8281,113,278.8281,109,274.8281" style="stroke:#A80036;stroke-width:1.0;"/><line style="stroke:#A80036;stroke-width:1.0;stroke-dasharray:2.0,2.0;" x1="107" x2="172.5" y1="274.8281" y2="274.8281"/><polygon fill="#A80036" points="156.5,299.9609,166.5,303.9609,156.5,307.9609,160.5,303.9609" style="stroke:#A80036;stroke-width:1.0;"/><line style="stroke:#A80036;stroke-width:1.0;" x1="102" x2="162.5" y1="303.9609" y2="303.9609"/><text fill="#000000" font-family="sans-serif" font-size="13" lengthAdjust="spacing" textLength="21" x="109" y="298.895">run</text><path d="M111,318.9609 L188,318.9609 L188,325.9609 L178,335.9609 L111,335.9609 L111,318.9609 " fill="#EEEEEE" style="stroke:#000000;stroke-width:1.0;"/><rect fill="none" height="826.8047" style="stroke:#000000;stroke-width:2.0;" width="628.5" x="111" y="318.9609"/><text fill="#000000" font-family="sans-serif" font-size="13" font-weight="bold" lengthAdjust="spacing" textLength="32" x="126" y="332.0278">loop</text><text fill="#000000" font-family="sans-serif" font-size="11" font-weight="bold" lengthAdjust="spacing" textLength="209" x="203" y="331.1714">[Not created nor loaded a game]</text><line style="stroke:#A80036;stroke-width:1.0;" x1="178.5" x2="225.5" y1="352.2266" y2="352.2266"/><line style="stroke:#A80036;stroke-width:1.0;" x1="225.5" x2="225.5" y1="352.2266" y2="365.2266"/><line style="stroke:#A80036;stroke-width:1.0;" x1="184.5" x2="225.5" y1="365.2266" y2="365.2266"/><polygon fill="#A80036" points="194.5,361.2266,184.5,365.2266,194.5,369.2266,190.5,365.2266" style="stroke:#A80036;stroke-width:1.0;"/><text fill="#000000" font-family="sans-serif" font-size="13" lengthAdjust="spacing" textLength="37" x="190.5" y="347.1606">menu</text><line style="stroke:#A80036;stroke-width:1.0;stroke-dasharray:2.0,2.0;" x1="183.5" x2="225.5" y1="404.3594" y2="404.3594"/><line style="stroke:#A80036;stroke-width:1.0;stroke-dasharray:2.0,2.0;" x1="225.5" x2="225.5" y1="404.3594" y2="417.3594"/><line style="stroke:#A80036;stroke-width:1.0;stroke-dasharray:2.0,2.0;" x1="178.5" x2="225.5" y1="417.3594" y2="417.3594"/><polygon fill="#A80036" points="188.5,413.3594,178.5,417.3594,188.5,421.3594,184.5,417.3594" style="stroke:#A80036;stroke-width:1.0;"/><text fill="#000000" font-family="sans-serif" font-size="13" lengthAdjust="spacing" textLength="42" x="190.5" y="399.2935">opcion</text><path d="M121,427.3594 L185,427.3594 L185,434.3594 L175,444.3594 L121,444.3594 L121,427.3594 " fill="#EEEEEE" style="stroke:#000000;stroke-width:1.0;"/><rect fill="none" height="711.4063" style="stroke:#000000;stroke-width:2.0;" width="608.5" x="121" y="427.3594"/><text fill="#000000" font-family="sans-serif" font-size="13" font-weight="bold" lengthAdjust="spacing" textLength="19" x="136" y="440.4263">alt</text><text fill="#000000" font-family="sans-serif" font-size="11" font-weight="bold" lengthAdjust="spacing" textLength="78" x="200" y="439.5698">[New Game]</text><polygon fill="#A80036" points="370,461.625,380,465.625,370,469.625,374,465.625" style="stroke:#A80036;stroke-width:1.0;"/><line style="stroke:#A80036;stroke-width:1.0;" x1="178.5" x2="376" y1="465.625" y2="465.625"/><text fill="#000000" font-family="sans-serif" font-size="13" lengthAdjust="spacing" textLength="80" x="185.5" y="460.5591">createGame</text><polygon fill="#A80036" points="189.5,490.7578,179.5,494.7578,189.5,498.7578,185.5,494.7578" style="stroke:#A80036;stroke-width:1.0;"/><line style="stroke:#A80036;stroke-width:1.0;stroke-dasharray:2.0,2.0;" x1="183.5" x2="386" y1="494.7578" y2="494.7578"/><text fill="#000000" font-family="sans-serif" font-size="13" lengthAdjust="spacing" textLength="39" x="195.5" y="489.6919">Game</text><line style="stroke:#000000;stroke-width:1.0;stroke-dasharray:2.0,2.0;" x1="121" x2="729.5" y1="503.7578" y2="503.7578"/><text fill="#000000" font-family="sans-serif" font-size="11" font-weight="bold" lengthAdjust="spacing" textLength="81" x="126" y="513.9683">[Load Game]</text><polygon fill="#A80036" points="516.5,534.6953,526.5,538.6953,516.5,542.6953,520.5,538.6953" style="stroke:#A80036;stroke-width:1.0;"/><line style="stroke:#A80036;stroke-width:1.0;" x1="178.5" x2="522.5" y1="538.6953" y2="538.6953"/><text fill="#000000" font-family="sans-serif" font-size="13" lengthAdjust="spacing" textLength="118" x="185.5" y="533.6294">showSavedGames</text><line style="stroke:#A80036;stroke-width:1.0;" x1="538.5" x2="585.5" y1="562.8281" y2="562.8281"/><line style="stroke:#A80036;stroke-width:1.0;" x1="585.5" x2="585.5" y1="562.8281" y2="575.8281"/><line style="stroke:#A80036;stroke-width:1.0;" x1="544.5" x2="585.5" y1="575.8281" y2="575.8281"/><polygon fill="#A80036" points="554.5,571.8281,544.5,575.8281,554.5,579.8281,550.5,575.8281" style="stroke:#A80036;stroke-width:1.0;"/><text fill="#000000" font-family="sans-serif" font-size="13" lengthAdjust="spacing" textLength="143" x="550.5" y="557.7622">getListOfSavedGames</text><line style="stroke:#A80036;stroke-width:1.0;stroke-dasharray:2.0,2.0;" x1="543.5" x2="585.5" y1="599.8281" y2="599.8281"/><line style="stroke:#A80036;stroke-width:1.0;stroke-dasharray:2.0,2.0;" x1="585.5" x2="585.5" y1="599.8281" y2="612.8281"/><line style="stroke:#A80036;stroke-width:1.0;stroke-dasharray:2.0,2.0;" x1="538.5" x2="585.5" y1="612.8281" y2="612.8281"/><polygon fill="#A80036" points="548.5,608.8281,538.5,612.8281,548.5,616.8281,544.5,612.8281" style="stroke:#A80036;stroke-width:1.0;"/><polygon fill="#A80036" points="189.5,617.8281,179.5,621.8281,189.5,625.8281,185.5,621.8281" style="stroke:#A80036;stroke-width:1.0;"/><line style="stroke:#A80036;stroke-width:1.0;stroke-dasharray:2.0,2.0;" x1="183.5" x2="532.5" y1="621.8281" y2="621.8281"/><polygon fill="#A80036" points="516.5,646.9609,526.5,650.9609,516.5,654.9609,520.5,650.9609" style="stroke:#A80036;stroke-width:1.0;"/><line style="stroke:#A80036;stroke-width:1.0;" x1="178.5" x2="522.5" y1="650.9609" y2="650.9609"/><text fill="#000000" font-family="sans-serif" font-size="13" lengthAdjust="spacing" textLength="66" x="185.5" y="645.895">loadGame</text><polygon fill="#A80036" points="189.5,676.0938,179.5,680.0938,189.5,684.0938,185.5,680.0938" style="stroke:#A80036;stroke-width:1.0;"/><line style="stroke:#A80036;stroke-width:1.0;stroke-dasharray:2.0,2.0;" x1="183.5" x2="532.5" y1="680.0938" y2="680.0938"/><text fill="#000000" font-family="sans-serif" font-size="13" lengthAdjust="spacing" textLength="82" x="195.5" y="675.0278">return Game</text><line style="stroke:#000000;stroke-width:1.0;stroke-dasharray:2.0,2.0;" x1="121" x2="729.5" y1="689.0938" y2="689.0938"/><text fill="#000000" font-family="sans-serif" font-size="11" font-weight="bold" lengthAdjust="spacing" textLength="92" x="126" y="699.3042">[Delete Game]</text><polygon fill="#A80036" points="516.5,720.0313,526.5,724.0313,516.5,728.0313,520.5,724.0313" style="stroke:#A80036;stroke-width:1.0;"/><line style="stroke:#A80036;stroke-width:1.0;" x1="178.5" x2="522.5" y1="724.0313" y2="724.0313"/><text fill="#000000" font-family="sans-serif" font-size="13" lengthAdjust="spacing" textLength="88" x="185.5" y="718.9653">removeGame</text><line style="stroke:#A80036;stroke-width:1.0;" x1="538.5" x2="585.5" y1="748.1641" y2="748.1641"/><line style="stroke:#A80036;stroke-width:1.0;" x1="585.5" x2="585.5" y1="748.1641" y2="761.1641"/><line style="stroke:#A80036;stroke-width:1.0;" x1="544.5" x2="585.5" y1="761.1641" y2="761.1641"/><polygon fill="#A80036" points="554.5,757.1641,544.5,761.1641,554.5,765.1641,550.5,761.1641" style="stroke:#A80036;stroke-width:1.0;"/><text fill="#000000" font-family="sans-serif" font-size="13" lengthAdjust="spacing" textLength="143" x="550.5" y="743.0981">getListOfSavedGames</text><line style="stroke:#A80036;stroke-width:1.0;stroke-dasharray:2.0,2.0;" x1="543.5" x2="585.5" y1="785.1641" y2="785.1641"/><line style="stroke:#A80036;stroke-width:1.0;stroke-dasharray:2.0,2.0;" x1="585.5" x2="585.5" y1="785.1641" y2="798.1641"/><line style="stroke:#A80036;stroke-width:1.0;stroke-dasharray:2.0,2.0;" x1="538.5" x2="585.5" y1="798.1641" y2="798.1641"/><polygon fill="#A80036" points="548.5,794.1641,538.5,798.1641,548.5,802.1641,544.5,798.1641" style="stroke:#A80036;stroke-width:1.0;"/><line style="stroke:#A80036;stroke-width:1.0;" x1="538.5" x2="585.5" y1="817.2969" y2="817.2969"/><line style="stroke:#A80036;stroke-width:1.0;" x1="585.5" x2="585.5" y1="817.2969" y2="830.2969"/><line style="stroke:#A80036;stroke-width:1.0;" x1="544.5" x2="585.5" y1="830.2969" y2="830.2969"/><polygon fill="#A80036" points="554.5,826.2969,544.5,830.2969,554.5,834.2969,550.5,830.2969" style="stroke:#A80036;stroke-width:1.0;"/><text fill="#000000" font-family="sans-serif" font-size="13" lengthAdjust="spacing" textLength="167" x="550.5" y="812.231">updateListOfSavedGames</text><line style="stroke:#A80036;stroke-width:1.0;stroke-dasharray:2.0,2.0;" x1="543.5" x2="585.5" y1="854.2969" y2="854.2969"/><line style="stroke:#A80036;stroke-width:1.0;stroke-dasharray:2.0,2.0;" x1="585.5" x2="585.5" y1="854.2969" y2="867.2969"/><line style="stroke:#A80036;stroke-width:1.0;stroke-dasharray:2.0,2.0;" x1="538.5" x2="585.5" y1="867.2969" y2="867.2969"/><polygon fill="#A80036" points="548.5,863.2969,538.5,867.2969,548.5,871.2969,544.5,867.2969" style="stroke:#A80036;stroke-width:1.0;"/><polygon fill="#A80036" points="189.5,872.2969,179.5,876.2969,189.5,880.2969,185.5,876.2969" style="stroke:#A80036;stroke-width:1.0;"/><line style="stroke:#A80036;stroke-width:1.0;stroke-dasharray:2.0,2.0;" x1="183.5" x2="532.5" y1="876.2969" y2="876.2969"/><line style="stroke:#000000;stroke-width:1.0;stroke-dasharray:2.0,2.0;" x1="121" x2="729.5" y1="885.2969" y2="885.2969"/><text fill="#000000" font-family="sans-serif" font-size="11" font-weight="bold" lengthAdjust="spacing" textLength="93" x="126" y="895.5073">[Replay Game]</text><polygon fill="#A80036" points="516.5,916.2344,526.5,920.2344,516.5,924.2344,520.5,920.2344" style="stroke:#A80036;stroke-width:1.0;"/><line style="stroke:#A80036;stroke-width:1.0;" x1="178.5" x2="522.5" y1="920.2344" y2="920.2344"/><text fill="#000000" font-family="sans-serif" font-size="13" lengthAdjust="spacing" textLength="69" x="185.5" y="915.1685">loadReplay</text><line style="stroke:#A80036;stroke-width:1.0;" x1="538.5" x2="585.5" y1="944.3672" y2="944.3672"/><line style="stroke:#A80036;stroke-width:1.0;" x1="585.5" x2="585.5" y1="944.3672" y2="957.3672"/><line style="stroke:#A80036;stroke-width:1.0;" x1="544.5" x2="585.5" y1="957.3672" y2="957.3672"/><polygon fill="#A80036" points="554.5,953.3672,544.5,957.3672,554.5,961.3672,550.5,957.3672" style="stroke:#A80036;stroke-width:1.0;"/><text fill="#000000" font-family="sans-serif" font-size="13" lengthAdjust="spacing" textLength="69" x="550.5" y="939.3013">loadReplay</text><line style="stroke:#A80036;stroke-width:1.0;stroke-dasharray:2.0,2.0;" x1="543.5" x2="585.5" y1="981.3672" y2="981.3672"/><line style="stroke:#A80036;stroke-width:1.0;stroke-dasharray:2.0,2.0;" x1="585.5" x2="585.5" y1="981.3672" y2="994.3672"/><line style="stroke:#A80036;stroke-width:1.0;stroke-dasharray:2.0,2.0;" x1="538.5" x2="585.5" y1="994.3672" y2="994.3672"/><polygon fill="#A80036" points="548.5,990.3672,538.5,994.3672,548.5,998.3672,544.5,994.3672" style="stroke:#A80036;stroke-width:1.0;"/><polygon fill="#A80036" points="189.5,1014.5,179.5,1018.5,189.5,1022.5,185.5,1018.5" style="stroke:#A80036;stroke-width:1.0;"/><line style="stroke:#A80036;stroke-width:1.0;stroke-dasharray:2.0,2.0;" x1="183.5" x2="532.5" y1="1018.5" y2="1018.5"/><text fill="#000000" font-family="sans-serif" font-size="13" lengthAdjust="spacing" textLength="42" x="195.5" y="1013.4341">Replay</text><polygon fill="#A80036" points="263.5,1043.6328,273.5,1047.6328,263.5,1051.6328,267.5,1047.6328" style="stroke:#A80036;stroke-width:1.0;"/><line style="stroke:#A80036;stroke-width:1.0;" x1="178.5" x2="269.5" y1="1047.6328" y2="1047.6328"/><text fill="#000000" font-family="sans-serif" font-size="13" lengthAdjust="spacing" textLength="72" x="185.5" y="1042.5669">startReplay</text><line style="stroke:#A80036;stroke-width:1.0;" x1="285.5" x2="332.5" y1="1071.7656" y2="1071.7656"/><line style="stroke:#A80036;stroke-width:1.0;" x1="332.5" x2="332.5" y1="1071.7656" y2="1084.7656"/><line style="stroke:#A80036;stroke-width:1.0;" x1="291.5" x2="332.5" y1="1084.7656" y2="1084.7656"/><polygon fill="#A80036" points="301.5,1080.7656,291.5,1084.7656,301.5,1088.7656,297.5,1084.7656" style="stroke:#A80036;stroke-width:1.0;"/><text fill="#000000" font-family="sans-serif" font-size="13" lengthAdjust="spacing" textLength="51" x="297.5" y="1066.6997">execute</text><line style="stroke:#A80036;stroke-width:1.0;stroke-dasharray:2.0,2.0;" x1="290.5" x2="332.5" y1="1108.7656" y2="1108.7656"/><line style="stroke:#A80036;stroke-width:1.0;stroke-dasharray:2.0,2.0;" x1="332.5" x2="332.5" y1="1108.7656" y2="1121.7656"/><line style="stroke:#A80036;stroke-width:1.0;stroke-dasharray:2.0,2.0;" x1="285.5" x2="332.5" y1="1121.7656" y2="1121.7656"/><polygon fill="#A80036" points="295.5,1117.7656,285.5,1121.7656,295.5,1125.7656,291.5,1121.7656" style="stroke:#A80036;stroke-width:1.0;"/><polygon fill="#A80036" points="189.5,1126.7656,179.5,1130.7656,189.5,1134.7656,185.5,1130.7656" style="stroke:#A80036;stroke-width:1.0;"/><line style="stroke:#A80036;stroke-width:1.0;stroke-dasharray:2.0,2.0;" x1="183.5" x2="279.5" y1="1130.7656" y2="1130.7656"/><path d="M121,1159.7656 L185,1159.7656 L185,1166.7656 L175,1176.7656 L121,1176.7656 L121,1159.7656 " fill="#EEEEEE" style="stroke:#000000;stroke-width:1.0;"/><rect fill="none" height="213.6641" style="stroke:#000000;stroke-width:2.0;" width="665.5" x="121" y="1159.7656"/><text fill="#000000" font-family="sans-serif" font-size="13" font-weight="bold" lengthAdjust="spacing" textLength="19" x="136" y="1172.8325">alt</text><text fill="#000000" font-family="sans-serif" font-size="11" font-weight="bold" lengthAdjust="spacing" textLength="76" x="200" y="1171.9761">[Play Mode]</text><line style="stroke:#A80036;stroke-width:1.0;" x1="178.5" x2="225.5" y1="1193.0313" y2="1193.0313"/><line style="stroke:#A80036;stroke-width:1.0;" x1="225.5" x2="225.5" y1="1193.0313" y2="1206.0313"/><line style="stroke:#A80036;stroke-width:1.0;" x1="184.5" x2="225.5" y1="1206.0313" y2="1206.0313"/><polygon fill="#A80036" points="194.5,1202.0313,184.5,1206.0313,194.5,1210.0313,190.5,1206.0313" style="stroke:#A80036;stroke-width:1.0;"/><text fill="#000000" font-family="sans-serif" font-size="13" lengthAdjust="spacing" textLength="83" x="190.5" y="1187.9653">createPrinter</text><polygon fill="#A80036" points="707.5,1236.1641,717.5,1240.1641,707.5,1244.1641,711.5,1240.1641" style="stroke:#A80036;stroke-width:1.0;"/><line style="stroke:#A80036;stroke-width:1.0;" x1="183.5" x2="713.5" y1="1240.1641" y2="1240.1641"/><text fill="#000000" font-family="sans-serif" font-size="13" lengthAdjust="spacing" textLength="25" x="190.5" y="1235.0981">new</text><polygon fill="#A80036" points="194.5,1265.2969,184.5,1269.2969,194.5,1273.2969,190.5,1269.2969" style="stroke:#A80036;stroke-width:1.0;"/><line style="stroke:#A80036;stroke-width:1.0;stroke-dasharray:2.0,2.0;" x1="188.5" x2="723.5" y1="1269.2969" y2="1269.2969"/><text fill="#000000" font-family="sans-serif" font-size="13" lengthAdjust="spacing" textLength="81" x="200.5" y="1264.231">GamePrinter</text><line style="stroke:#A80036;stroke-width:1.0;stroke-dasharray:2.0,2.0;" x1="183.5" x2="225.5" y1="1288.2969" y2="1288.2969"/><line style="stroke:#A80036;stroke-width:1.0;stroke-dasharray:2.0,2.0;" x1="225.5" x2="225.5" y1="1288.2969" y2="1301.2969"/><line style="stroke:#A80036;stroke-width:1.0;stroke-dasharray:2.0,2.0;" x1="178.5" x2="225.5" y1="1301.2969" y2="1301.2969"/><polygon fill="#A80036" points="188.5,1297.2969,178.5,1301.2969,188.5,1305.2969,184.5,1301.2969" style="stroke:#A80036;stroke-width:1.0;"/><line style="stroke:#A80036;stroke-width:1.0;" x1="178.5" x2="225.5" y1="1320.4297" y2="1320.4297"/><line style="stroke:#A80036;stroke-width:1.0;" x1="225.5" x2="225.5" y1="1320.4297" y2="1333.4297"/><line style="stroke:#A80036;stroke-width:1.0;" x1="184.5" x2="225.5" y1="1333.4297" y2="1333.4297"/><polygon fill="#A80036" points="194.5,1329.4297,184.5,1333.4297,194.5,1337.4297,190.5,1333.4297" style="stroke:#A80036;stroke-width:1.0;"/><text fill="#000000" font-family="sans-serif" font-size="13" lengthAdjust="spacing" textLength="26" x="190.5" y="1315.3638">play</text><line style="stroke:#A80036;stroke-width:1.0;stroke-dasharray:2.0,2.0;" x1="183.5" x2="225.5" y1="1357.4297" y2="1357.4297"/><line style="stroke:#A80036;stroke-width:1.0;stroke-dasharray:2.0,2.0;" x1="225.5" x2="225.5" y1="1357.4297" y2="1370.4297"/><line style="stroke:#A80036;stroke-width:1.0;stroke-dasharray:2.0,2.0;" x1="178.5" x2="225.5" y1="1370.4297" y2="1370.4297"/><polygon fill="#A80036" points="188.5,1366.4297,178.5,1370.4297,188.5,1374.4297,184.5,1370.4297" style="stroke:#A80036;stroke-width:1.0;"/><polygon fill="#A80036" points="113,1382.4297,103,1386.4297,113,1390.4297,109,1386.4297" style="stroke:#A80036;stroke-width:1.0;"/><line style="stroke:#A80036;stroke-width:1.0;stroke-dasharray:2.0,2.0;" x1="107" x2="172.5" y1="1386.4297" y2="1386.4297"/><polygon fill="#A80036" points="45,1396.4297,35,1400.4297,45,1404.4297,41,1400.4297" style="stroke:#A80036;stroke-width:1.0;"/><line style="stroke:#A80036;stroke-width:1.0;stroke-dasharray:2.0,2.0;" x1="39" x2="96" y1="1400.4297" y2="1400.4297"/><!--MD5=[f857fda8617f20e8e2f38944cb23899f]
@startuml
actor Usuario
Usuario -> Rolit : main
activate Rolit
Rolit -> Rolit : version
activate Rolit
Rolit - -> Rolit
deactivate Rolit
Rolit -> Controller : new
activate Controller
Controller -> Replay : new
activate Replay
Replay - -> Controller
deactivate Replay
Controller - -> Rolit
deactivate Controller
Rolit -> Controller : run

activate Controller

loop Not created nor loaded a game

Controller -> Controller : menu
activate Controller
Controller - -> Controller : opcion
deactivate Controller

alt New Game

Controller -> GameGenerator : createGame
activate GameGenerator
GameGenerator - -> Controller : Game
deactivate GameGenerator

else Load Game

Controller -> SaveLoadManager : showSavedGames
activate SaveLoadManager
SaveLoadManager -> SaveLoadManager : getListOfSavedGames
activate SaveLoadManager
SaveLoadManager - -> SaveLoadManager
deactivate SaveLoadManager
SaveLoadManager - -> Controller
deactivate SaveLoadManager
Controller -> SaveLoadManager : loadGame
activate SaveLoadManager
SaveLoadManager - -> Controller : return Game
deactivate SaveLoadManager

else Delete Game

Controller -> SaveLoadManager : removeGame
activate SaveLoadManager
SaveLoadManager -> SaveLoadManager : getListOfSavedGames
activate SaveLoadManager
SaveLoadManager - -> SaveLoadManager
deactivate SaveLoadManager
SaveLoadManager -> SaveLoadManager : updateListOfSavedGames
activate SaveLoadManager
SaveLoadManager - -> SaveLoadManager
deactivate SaveLoadManager
SaveLoadManager - -> Controller
deactivate SaveLoadManager

else Replay Game

Controller -> SaveLoadManager : loadReplay
activate SaveLoadManager
SaveLoadManager -> SaveLoadManager : loadReplay
activate SaveLoadManager
SaveLoadManager - -> SaveLoadManager
deactivate SaveLoadManager
SaveLoadManager - -> Controller : Replay
deactivate SaveLoadManager
Controller -> Replay : startReplay
activate Replay
Replay -> Replay : execute
activate Replay
Replay - -> Replay
deactivate Replay
Replay - -> Controller
deactivate Replay

end

end

alt Play Mode

Controller -> Controller : createPrinter
activate Controller
Controller -> GamePrinter : new
activate GamePrinter
GamePrinter - -> Controller : GamePrinter
deactivate GamePrinter
Controller - -> Controller
deactivate Controller
Controller -> Controller : play
activate Controller
Controller - -> Controller
deactivate Controller

end

Controller - -> Rolit
deactivate Controller
return
@enduml

PlantUML version 1.2021.16(Wed Dec 08 17:25:22 UTC 2021)
(GPL source distribution)
Java Runtime: OpenJDK Runtime Environment
JVM: OpenJDK 64-Bit Server VM
Default Encoding: UTF-8
Language: en
Country: US
--></g></svg>