<?xml version="1.0" encoding="UTF-8" standalone="no"?><svg xmlns="http://www.w3.org/2000/svg" xmlns:xlink="http://www.w3.org/1999/xlink" contentStyleType="text/css" height="345px" preserveAspectRatio="none" style="width:290px;height:345px;background:#FFFFFF;" version="1.1" viewBox="0 0 290 345" width="290px" zoomAndPan="magnify"><defs/><g><rect fill="#FFFFFF" height="224.5313" style="stroke:#181818;stroke-width:1.0;" width="10" x="82" y="67.4297"/><rect fill="#FFFFFF" height="25" style="stroke:#181818;stroke-width:1.0;" width="10" x="87" y="104.5625"/><rect fill="#FFFFFF" height="97.2656" style="stroke:#181818;stroke-width:1.0;" width="10" x="87" y="173.6953"/><rect fill="#FFFFFF" height="14" style="stroke:#181818;stroke-width:1.0;" width="10" x="189" y="207.8281"/><line style="stroke:#181818;stroke-width:0.5;stroke-dasharray:5.0,5.0;" x1="30" x2="30" y1="36.2969" y2="309.9609"/><line style="stroke:#181818;stroke-width:0.5;stroke-dasharray:5.0,5.0;" x1="87" x2="87" y1="36.2969" y2="309.9609"/><line style="stroke:#181818;stroke-width:0.5;stroke-dasharray:5.0,5.0;" x1="194" x2="194" y1="36.2969" y2="309.9609"/><line style="stroke:#181818;stroke-width:0.5;stroke-dasharray:5.0,5.0;" x1="256" x2="256" y1="36.2969" y2="309.9609"/><rect fill="#E2E2F0" height="30.2969" rx="2.5" ry="2.5" style="stroke:#181818;stroke-width:0.5;" width="50" x="5" y="5"/><text fill="#000000" font-family="sans-serif" font-size="14" lengthAdjust="spacing" textLength="36" x="12" y="24.9951">Actor</text><rect fill="#E2E2F0" height="30.2969" rx="2.5" ry="2.5" style="stroke:#181818;stroke-width:0.5;" width="50" x="5" y="308.9609"/><text fill="#000000" font-family="sans-serif" font-size="14" lengthAdjust="spacing" textLength="36" x="12" y="328.9561">Actor</text><rect fill="#E2E2F0" height="30.2969" rx="2.5" ry="2.5" style="stroke:#181818;stroke-width:0.5;" width="44" x="65" y="5"/><text fill="#000000" font-family="sans-serif" font-size="14" lengthAdjust="spacing" textLength="30" x="72" y="24.9951">Rolit</text><rect fill="#E2E2F0" height="30.2969" rx="2.5" ry="2.5" style="stroke:#181818;stroke-width:0.5;" width="44" x="65" y="308.9609"/><text fill="#000000" font-family="sans-serif" font-size="14" lengthAdjust="spacing" textLength="30" x="72" y="328.9561">Rolit</text><rect fill="#E2E2F0" height="30.2969" rx="2.5" ry="2.5" style="stroke:#181818;stroke-width:0.5;" width="50" x="169" y="5"/><text fill="#000000" font-family="sans-serif" font-size="14" lengthAdjust="spacing" textLength="36" x="176" y="24.9951">Color</text><rect fill="#E2E2F0" height="30.2969" rx="2.5" ry="2.5" style="stroke:#181818;stroke-width:0.5;" width="50" x="169" y="308.9609"/><text fill="#000000" font-family="sans-serif" font-size="14" lengthAdjust="spacing" textLength="36" x="176" y="328.9561">Color</text><rect fill="#E2E2F0" height="30.2969" rx="2.5" ry="2.5" style="stroke:#181818;stroke-width:0.5;" width="55" x="229" y="5"/><text fill="#000000" font-family="sans-serif" font-size="14" lengthAdjust="spacing" textLength="41" x="236" y="24.9951">Player</text><rect fill="#E2E2F0" height="30.2969" rx="2.5" ry="2.5" style="stroke:#181818;stroke-width:0.5;" width="55" x="229" y="308.9609"/><text fill="#000000" font-family="sans-serif" font-size="14" lengthAdjust="spacing" textLength="41" x="236" y="328.9561">Player</text><rect fill="#FFFFFF" height="224.5313" style="stroke:#181818;stroke-width:1.0;" width="10" x="82" y="67.4297"/><rect fill="#FFFFFF" height="25" style="stroke:#181818;stroke-width:1.0;" width="10" x="87" y="104.5625"/><rect fill="#FFFFFF" height="97.2656" style="stroke:#181818;stroke-width:1.0;" width="10" x="87" y="173.6953"/><rect fill="#FFFFFF" height="14" style="stroke:#181818;stroke-width:1.0;" width="10" x="189" y="207.8281"/><polygon fill="#181818" points="70,63.4297,80,67.4297,70,71.4297,74,67.4297" style="stroke:#181818;stroke-width:1.0;"/><line style="stroke:#181818;stroke-width:1.0;" x1="30" x2="76" y1="67.4297" y2="67.4297"/><text fill="#000000" font-family="sans-serif" font-size="13" lengthAdjust="spacing" textLength="32" x="37" y="62.3638">main</text><line style="stroke:#181818;stroke-width:1.0;" x1="92" x2="139" y1="91.5625" y2="91.5625"/><line style="stroke:#181818;stroke-width:1.0;" x1="139" x2="139" y1="91.5625" y2="104.5625"/><line style="stroke:#181818;stroke-width:1.0;" x1="98" x2="139" y1="104.5625" y2="104.5625"/><polygon fill="#181818" points="108,100.5625,98,104.5625,108,108.5625,104,104.5625" style="stroke:#181818;stroke-width:1.0;"/><text fill="#000000" font-family="sans-serif" font-size="13" lengthAdjust="spacing" textLength="46" x="104" y="86.4966">version</text><line style="stroke:#181818;stroke-width:1.0;stroke-dasharray:2.0,2.0;" x1="97" x2="139" y1="128.5625" y2="128.5625"/><line style="stroke:#181818;stroke-width:1.0;stroke-dasharray:2.0,2.0;" x1="139" x2="139" y1="128.5625" y2="141.5625"/><line style="stroke:#181818;stroke-width:1.0;stroke-dasharray:2.0,2.0;" x1="92" x2="139" y1="141.5625" y2="141.5625"/><polygon fill="#181818" points="102,137.5625,92,141.5625,102,145.5625,98,141.5625" style="stroke:#181818;stroke-width:1.0;"/><line style="stroke:#181818;stroke-width:1.0;" x1="92" x2="139" y1="160.6953" y2="160.6953"/><line style="stroke:#181818;stroke-width:1.0;" x1="139" x2="139" y1="160.6953" y2="173.6953"/><line style="stroke:#181818;stroke-width:1.0;" x1="98" x2="139" y1="173.6953" y2="173.6953"/><polygon fill="#181818" points="108,169.6953,98,173.6953,108,177.6953,104,173.6953" style="stroke:#181818;stroke-width:1.0;"/><text fill="#000000" font-family="sans-serif" font-size="13" lengthAdjust="spacing" textLength="83" x="104" y="155.6294">namePlayers</text><polygon fill="#181818" points="177,203.8281,187,207.8281,177,211.8281,181,207.8281" style="stroke:#181818;stroke-width:1.0;"/><line style="stroke:#181818;stroke-width:1.0;" x1="97" x2="183" y1="207.8281" y2="207.8281"/><text fill="#000000" font-family="sans-serif" font-size="13" lengthAdjust="spacing" textLength="51" x="104" y="202.7622">toString</text><polygon fill="#181818" points="108,217.8281,98,221.8281,108,225.8281,104,221.8281" style="stroke:#181818;stroke-width:1.0;"/><line style="stroke:#181818;stroke-width:1.0;stroke-dasharray:2.0,2.0;" x1="102" x2="193" y1="221.8281" y2="221.8281"/><polygon fill="#181818" points="244.5,246.9609,254.5,250.9609,244.5,254.9609,248.5,250.9609" style="stroke:#181818;stroke-width:1.0;"/><line style="stroke:#181818;stroke-width:1.0;stroke-dasharray:2.0,2.0;" x1="97" x2="250.5" y1="250.9609" y2="250.9609"/><text fill="#000000" font-family="sans-serif" font-size="13" lengthAdjust="spacing" textLength="25" x="104" y="245.895">new</text><line style="stroke:#181818;stroke-width:1.0;stroke-dasharray:2.0,2.0;" x1="97" x2="139" y1="269.9609" y2="269.9609"/><line style="stroke:#181818;stroke-width:1.0;stroke-dasharray:2.0,2.0;" x1="139" x2="139" y1="269.9609" y2="282.9609"/><line style="stroke:#181818;stroke-width:1.0;stroke-dasharray:2.0,2.0;" x1="92" x2="139" y1="282.9609" y2="282.9609"/><polygon fill="#181818" points="102,278.9609,92,282.9609,102,286.9609,98,282.9609" style="stroke:#181818;stroke-width:1.0;"/><polygon fill="#181818" points="41,287.9609,31,291.9609,41,295.9609,37,291.9609" style="stroke:#181818;stroke-width:1.0;"/><line style="stroke:#181818;stroke-width:1.0;stroke-dasharray:2.0,2.0;" x1="35" x2="86" y1="291.9609" y2="291.9609"/><!--MD5=[3e89c3294831af3a541b79b124cc5028]
@startuml
participant Actor
Actor -> Rolit : main
activate Rolit
Rolit -> Rolit : version
activate Rolit
Rolit - -> Rolit
deactivate Rolit
Rolit -> Rolit : namePlayers
activate Rolit
Rolit -> Color : toString
activate Color
Color - -> Rolit
deactivate Color
Rolit - -> Player : new
Rolit - -> Rolit
deactivate Rolit
return
@enduml

PlantUML version 1.2022.4(Sat Apr 09 13:29:17 UTC 2022)
(GPL source distribution)
Java Runtime: OpenJDK Runtime Environment
JVM: OpenJDK 64-Bit Server VM
Default Encoding: UTF-8
Language: en
Country: US
--></g></svg>