<?xml version="1.0" encoding="UTF-8" standalone="no"?><svg xmlns="http://www.w3.org/2000/svg" xmlns:xlink="http://www.w3.org/1999/xlink" contentStyleType="text/css" height="304px" preserveAspectRatio="none" style="width:352px;height:304px;background:#FFFFFF;" version="1.1" viewBox="0 0 352 304" width="352px" zoomAndPan="magnify"><defs/><g><rect fill="#FFFFFF" height="183.3984" style="stroke:#181818;stroke-width:1.0;" width="10" x="143" y="67.4297"/><rect fill="#FFFFFF" height="25" style="stroke:#181818;stroke-width:1.0;" width="10" x="148" y="128.6953"/><rect fill="#FFFFFF" height="25" style="stroke:#181818;stroke-width:1.0;" width="10" x="148" y="204.8281"/><rect height="86.2656" style="stroke:#000000;stroke-width:1.5;fill:none;" width="268" x="78" y="82.4297"/><line style="stroke:#181818;stroke-width:0.5;fill:none;stroke-dasharray:5.0,5.0;" x1="30" x2="30" y1="36.2969" y2="268.8281"/><line style="stroke:#181818;stroke-width:0.5;fill:none;stroke-dasharray:5.0,5.0;" x1="148" x2="148" y1="36.2969" y2="268.8281"/><rect fill="#E2E2F0" height="30.2969" rx="2.5" ry="2.5" style="stroke:#181818;stroke-width:0.5;" width="50" x="5" y="5"/><text fill="#000000" font-family="sans-serif" font-size="14" lengthAdjust="spacing" textLength="36" x="12" y="24.9951">Actor</text><rect fill="#E2E2F0" height="30.2969" rx="2.5" ry="2.5" style="stroke:#181818;stroke-width:0.5;" width="50" x="5" y="267.8281"/><text fill="#000000" font-family="sans-serif" font-size="14" lengthAdjust="spacing" textLength="36" x="12" y="287.8232">Actor</text><rect fill="#E2E2F0" height="30.2969" rx="2.5" ry="2.5" style="stroke:#181818;stroke-width:0.5;" width="120" x="88" y="5"/><text fill="#000000" font-family="sans-serif" font-size="14" lengthAdjust="spacing" textLength="106" x="95" y="24.9951">SimplifiedBoard</text><rect fill="#E2E2F0" height="30.2969" rx="2.5" ry="2.5" style="stroke:#181818;stroke-width:0.5;" width="120" x="88" y="267.8281"/><text fill="#000000" font-family="sans-serif" font-size="14" lengthAdjust="spacing" textLength="106" x="95" y="287.8232">SimplifiedBoard</text><rect fill="#FFFFFF" height="183.3984" style="stroke:#181818;stroke-width:1.0;" width="10" x="143" y="67.4297"/><rect fill="#FFFFFF" height="25" style="stroke:#181818;stroke-width:1.0;" width="10" x="148" y="128.6953"/><rect fill="#FFFFFF" height="25" style="stroke:#181818;stroke-width:1.0;" width="10" x="148" y="204.8281"/><polygon fill="#181818" points="131,63.4297,141,67.4297,131,71.4297,135,67.4297" style="stroke:#181818;stroke-width:1.0;"/><line style="stroke:#181818;stroke-width:1.0;" x1="30" x2="137" y1="67.4297" y2="67.4297"/><text fill="#000000" font-family="sans-serif" font-size="13" lengthAdjust="spacing" textLength="94" x="37" y="62.3638">revertChanges</text><path d="M78,82.4297 L155,82.4297 L155,89.5625 L145,99.5625 L78,99.5625 L78,82.4297 " fill="#EEEEEE" style="stroke:#000000;stroke-width:1.5;"/><rect fill="none" height="86.2656" style="stroke:#000000;stroke-width:1.5;" width="268" x="78" y="82.4297"/><text fill="#000000" font-family="sans-serif" font-size="13" font-weight="bold" lengthAdjust="spacing" textLength="32" x="93" y="95.4966">loop</text><text fill="#000000" font-family="sans-serif" font-size="11" font-weight="bold" lengthAdjust="spacing" textLength="171" x="170" y="94.6401">[Change c : changesStack]</text><line style="stroke:#181818;stroke-width:1.0;" x1="153" x2="200" y1="115.6953" y2="115.6953"/><line style="stroke:#181818;stroke-width:1.0;" x1="200" x2="200" y1="115.6953" y2="128.6953"/><line style="stroke:#181818;stroke-width:1.0;" x1="159" x2="200" y1="128.6953" y2="128.6953"/><polygon fill="#181818" points="169,124.6953,159,128.6953,169,132.6953,165,128.6953" style="stroke:#181818;stroke-width:1.0;"/><text fill="#000000" font-family="sans-serif" font-size="13" lengthAdjust="spacing" textLength="104" x="165" y="110.6294">revertChange(c)</text><line style="stroke:#181818;stroke-width:1.0;stroke-dasharray:2.0,2.0;" x1="158" x2="200" y1="152.6953" y2="152.6953"/><line style="stroke:#181818;stroke-width:1.0;stroke-dasharray:2.0,2.0;" x1="200" x2="200" y1="152.6953" y2="165.6953"/><line style="stroke:#181818;stroke-width:1.0;stroke-dasharray:2.0,2.0;" x1="153" x2="200" y1="165.6953" y2="165.6953"/><polygon fill="#181818" points="163,161.6953,153,165.6953,163,169.6953,159,165.6953" style="stroke:#181818;stroke-width:1.0;"/><line style="stroke:#181818;stroke-width:1.0;" x1="153" x2="200" y1="191.8281" y2="191.8281"/><line style="stroke:#181818;stroke-width:1.0;" x1="200" x2="200" y1="191.8281" y2="204.8281"/><line style="stroke:#181818;stroke-width:1.0;" x1="159" x2="200" y1="204.8281" y2="204.8281"/><polygon fill="#181818" points="169,200.8281,159,204.8281,169,208.8281,165,204.8281" style="stroke:#181818;stroke-width:1.0;"/><text fill="#000000" font-family="sans-serif" font-size="13" lengthAdjust="spacing" textLength="128" x="165" y="186.7622">updatePlayerScores</text><line style="stroke:#181818;stroke-width:1.0;stroke-dasharray:2.0,2.0;" x1="158" x2="200" y1="228.8281" y2="228.8281"/><line style="stroke:#181818;stroke-width:1.0;stroke-dasharray:2.0,2.0;" x1="200" x2="200" y1="228.8281" y2="241.8281"/><line style="stroke:#181818;stroke-width:1.0;stroke-dasharray:2.0,2.0;" x1="153" x2="200" y1="241.8281" y2="241.8281"/><polygon fill="#181818" points="163,237.8281,153,241.8281,163,245.8281,159,241.8281" style="stroke:#181818;stroke-width:1.0;"/><polygon fill="#181818" points="41,246.8281,31,250.8281,41,254.8281,37,250.8281" style="stroke:#181818;stroke-width:1.0;"/><line style="stroke:#181818;stroke-width:1.0;stroke-dasharray:2.0,2.0;" x1="35" x2="147" y1="250.8281" y2="250.8281"/><!--MD5=[4bac4d04fa24d07718422f2964eda43b]
@startuml
participant Actor
Actor -> SimplifiedBoard : revertChanges
activate SimplifiedBoard
loop Change c : changesStack
SimplifiedBoard -> SimplifiedBoard : revertChange(c)
activate SimplifiedBoard
SimplifiedBoard - -> SimplifiedBoard
deactivate SimplifiedBoard
end loop
SimplifiedBoard -> SimplifiedBoard : updatePlayerScores
activate SimplifiedBoard
SimplifiedBoard - -> SimplifiedBoard
deactivate SimplifiedBoard
return
@enduml

PlantUML version 1.2022.4(Sat Apr 09 13:29:17 UTC 2022)
(GPL source distribution)
Java Runtime: OpenJDK Runtime Environment
JVM: OpenJDK 64-Bit Server VM
Default Encoding: UTF-8
Language: en
Country: US
--></g></svg>