<?xml version="1.0" encoding="UTF-8" standalone="no"?><svg xmlns="http://www.w3.org/2000/svg" xmlns:xlink="http://www.w3.org/1999/xlink" contentStyleType="text/css" height="640px" preserveAspectRatio="none" style="width:387px;height:640px;background:#FFFFFF;" version="1.1" viewBox="0 0 387 640" width="387px" zoomAndPan="magnify"><defs/><g><rect fill="#FFFFFF" height="519.5938" style="stroke:#181818;stroke-width:1.0;" width="10" x="139" y="67.4297"/><rect fill="#FFFFFF" height="40.1328" style="stroke:#181818;stroke-width:1.0;" width="10" x="144" y="152.8281"/><rect fill="#FFFFFF" height="40.1328" style="stroke:#181818;stroke-width:1.0;" width="10" x="144" y="261.2266"/><rect fill="#FFFFFF" height="25" style="stroke:#181818;stroke-width:1.0;" width="10" x="144" y="471.8906"/><rect fill="#FFFFFF" height="25" style="stroke:#181818;stroke-width:1.0;" width="10" x="144" y="541.0234"/><rect fill="#FFFFFF" height="14" style="stroke:#181818;stroke-width:1.0;" width="10" x="292" y="385.7578"/><rect height="353.3281" style="stroke:#000000;stroke-width:1.5;fill:none;" width="347" x="34" y="82.4297"/><rect height="322.1953" style="stroke:#000000;stroke-width:1.5;fill:none;" width="327" x="44" y="106.5625"/><rect height="206.7969" style="stroke:#000000;stroke-width:1.5;fill:none;" width="307" x="54" y="214.9609"/><rect height="91.3984" style="stroke:#000000;stroke-width:1.5;fill:none;" width="287" x="64" y="323.3594"/><rect height="60.2656" style="stroke:#000000;stroke-width:1.5;fill:none;" width="267" x="74" y="347.4922"/><line style="stroke:#181818;stroke-width:0.5;fill:none;stroke-dasharray:5.0,5.0;" x1="30" x2="30" y1="36.2969" y2="605.0234"/><line style="stroke:#181818;stroke-width:0.5;fill:none;stroke-dasharray:5.0,5.0;" x1="144" x2="144" y1="36.2969" y2="605.0234"/><line style="stroke:#181818;stroke-width:0.5;fill:none;stroke-dasharray:5.0,5.0;" x1="296.5" x2="296.5" y1="36.2969" y2="605.0234"/><rect fill="#E2E2F0" height="30.2969" rx="2.5" ry="2.5" style="stroke:#181818;stroke-width:0.5;" width="50" x="5" y="5"/><text fill="#000000" font-family="sans-serif" font-size="14" lengthAdjust="spacing" textLength="36" x="12" y="24.9951">Actor</text><rect fill="#E2E2F0" height="30.2969" rx="2.5" ry="2.5" style="stroke:#181818;stroke-width:0.5;" width="50" x="5" y="604.0234"/><text fill="#000000" font-family="sans-serif" font-size="14" lengthAdjust="spacing" textLength="36" x="12" y="624.0186">Actor</text><rect fill="#E2E2F0" height="30.2969" rx="2.5" ry="2.5" style="stroke:#181818;stroke-width:0.5;" width="120" x="84" y="5"/><text fill="#000000" font-family="sans-serif" font-size="14" lengthAdjust="spacing" textLength="106" x="91" y="24.9951">SimplifiedBoard</text><rect fill="#E2E2F0" height="30.2969" rx="2.5" ry="2.5" style="stroke:#181818;stroke-width:0.5;" width="120" x="84" y="604.0234"/><text fill="#000000" font-family="sans-serif" font-size="14" lengthAdjust="spacing" textLength="106" x="91" y="624.0186">SimplifiedBoard</text><rect fill="#E2E2F0" height="30.2969" rx="2.5" ry="2.5" style="stroke:#181818;stroke-width:0.5;" width="51" x="271.5" y="5"/><text fill="#000000" font-family="sans-serif" font-size="14" lengthAdjust="spacing" textLength="37" x="278.5" y="24.9951">Cube</text><rect fill="#E2E2F0" height="30.2969" rx="2.5" ry="2.5" style="stroke:#181818;stroke-width:0.5;" width="51" x="271.5" y="604.0234"/><text fill="#000000" font-family="sans-serif" font-size="14" lengthAdjust="spacing" textLength="37" x="278.5" y="624.0186">Cube</text><rect fill="#FFFFFF" height="519.5938" style="stroke:#181818;stroke-width:1.0;" width="10" x="139" y="67.4297"/><rect fill="#FFFFFF" height="40.1328" style="stroke:#181818;stroke-width:1.0;" width="10" x="144" y="152.8281"/><rect fill="#FFFFFF" height="40.1328" style="stroke:#181818;stroke-width:1.0;" width="10" x="144" y="261.2266"/><rect fill="#FFFFFF" height="25" style="stroke:#181818;stroke-width:1.0;" width="10" x="144" y="471.8906"/><rect fill="#FFFFFF" height="25" style="stroke:#181818;stroke-width:1.0;" width="10" x="144" y="541.0234"/><rect fill="#FFFFFF" height="14" style="stroke:#181818;stroke-width:1.0;" width="10" x="292" y="385.7578"/><polygon fill="#181818" points="127,63.4297,137,67.4297,127,71.4297,131,67.4297" style="stroke:#181818;stroke-width:1.0;"/><line style="stroke:#181818;stroke-width:1.0;" x1="30" x2="133" y1="67.4297" y2="67.4297"/><text fill="#000000" font-family="sans-serif" font-size="13" lengthAdjust="spacing" textLength="90" x="37" y="62.3638">applyChanges</text><path d="M34,82.4297 L111,82.4297 L111,89.5625 L101,99.5625 L34,99.5625 L34,82.4297 " fill="#EEEEEE" style="stroke:#000000;stroke-width:1.5;"/><rect fill="none" height="353.3281" style="stroke:#000000;stroke-width:1.5;" width="347" x="34" y="82.4297"/><text fill="#000000" font-family="sans-serif" font-size="13" font-weight="bold" lengthAdjust="spacing" textLength="32" x="49" y="95.4966">loop</text><text fill="#000000" font-family="sans-serif" font-size="11" font-weight="bold" lengthAdjust="spacing" textLength="154" x="126" y="94.6401">[checks every direction]</text><path d="M44,106.5625 L121,106.5625 L121,113.6953 L111,123.6953 L44,123.6953 L44,106.5625 " fill="#EEEEEE" style="stroke:#000000;stroke-width:1.5;"/><rect fill="none" height="322.1953" style="stroke:#000000;stroke-width:1.5;" width="327" x="44" y="106.5625"/><text fill="#000000" font-family="sans-serif" font-size="13" font-weight="bold" lengthAdjust="spacing" textLength="32" x="59" y="119.6294">loop</text><text fill="#000000" font-family="sans-serif" font-size="11" font-weight="bold" lengthAdjust="spacing" textLength="190" x="136" y="118.7729">[Position p : currentDirection]</text><line style="stroke:#181818;stroke-width:1.0;" x1="149" x2="196" y1="139.8281" y2="139.8281"/><line style="stroke:#181818;stroke-width:1.0;" x1="196" x2="196" y1="139.8281" y2="152.8281"/><line style="stroke:#181818;stroke-width:1.0;" x1="155" x2="196" y1="152.8281" y2="152.8281"/><polygon fill="#181818" points="165,148.8281,155,152.8281,165,156.8281,161,152.8281" style="stroke:#181818;stroke-width:1.0;"/><text fill="#000000" font-family="sans-serif" font-size="13" lengthAdjust="spacing" textLength="129" x="161" y="134.7622">isPositionInRange(p)</text><line style="stroke:#181818;stroke-width:1.0;stroke-dasharray:2.0,2.0;" x1="154" x2="196" y1="191.9609" y2="191.9609"/><line style="stroke:#181818;stroke-width:1.0;stroke-dasharray:2.0,2.0;" x1="196" x2="196" y1="191.9609" y2="204.9609"/><line style="stroke:#181818;stroke-width:1.0;stroke-dasharray:2.0,2.0;" x1="149" x2="196" y1="204.9609" y2="204.9609"/><polygon fill="#181818" points="159,200.9609,149,204.9609,159,208.9609,155,204.9609" style="stroke:#181818;stroke-width:1.0;"/><text fill="#000000" font-family="sans-serif" font-size="13" lengthAdjust="spacing" textLength="51" x="161" y="186.895">inRange</text><path d="M54,214.9609 L118,214.9609 L118,222.0938 L108,232.0938 L54,232.0938 L54,214.9609 " fill="#EEEEEE" style="stroke:#000000;stroke-width:1.5;"/><rect fill="none" height="206.7969" style="stroke:#000000;stroke-width:1.5;" width="307" x="54" y="214.9609"/><text fill="#000000" font-family="sans-serif" font-size="13" font-weight="bold" lengthAdjust="spacing" textLength="19" x="69" y="228.0278">alt</text><text fill="#000000" font-family="sans-serif" font-size="11" font-weight="bold" lengthAdjust="spacing" textLength="114" x="133" y="227.1714">[inRange == true]</text><line style="stroke:#181818;stroke-width:1.0;" x1="149" x2="196" y1="248.2266" y2="248.2266"/><line style="stroke:#181818;stroke-width:1.0;" x1="196" x2="196" y1="248.2266" y2="261.2266"/><line style="stroke:#181818;stroke-width:1.0;" x1="155" x2="196" y1="261.2266" y2="261.2266"/><polygon fill="#181818" points="165,257.2266,155,261.2266,165,265.2266,161,261.2266" style="stroke:#181818;stroke-width:1.0;"/><text fill="#000000" font-family="sans-serif" font-size="13" lengthAdjust="spacing" textLength="88" x="161" y="243.1606">getCubeInPos</text><line style="stroke:#181818;stroke-width:1.0;stroke-dasharray:2.0,2.0;" x1="154" x2="196" y1="300.3594" y2="300.3594"/><line style="stroke:#181818;stroke-width:1.0;stroke-dasharray:2.0,2.0;" x1="196" x2="196" y1="300.3594" y2="313.3594"/><line style="stroke:#181818;stroke-width:1.0;stroke-dasharray:2.0,2.0;" x1="149" x2="196" y1="313.3594" y2="313.3594"/><polygon fill="#181818" points="159,309.3594,149,313.3594,159,317.3594,155,313.3594" style="stroke:#181818;stroke-width:1.0;"/><text fill="#000000" font-family="sans-serif" font-size="13" lengthAdjust="spacing" textLength="7" x="161" y="295.2935">c</text><path d="M64,323.3594 L128,323.3594 L128,330.4922 L118,340.4922 L64,340.4922 L64,323.3594 " fill="#EEEEEE" style="stroke:#000000;stroke-width:1.5;"/><rect fill="none" height="91.3984" style="stroke:#000000;stroke-width:1.5;" width="287" x="64" y="323.3594"/><text fill="#000000" font-family="sans-serif" font-size="13" font-weight="bold" lengthAdjust="spacing" textLength="19" x="79" y="336.4263">alt</text><text fill="#000000" font-family="sans-serif" font-size="11" font-weight="bold" lengthAdjust="spacing" textLength="175" x="143" y="335.5698">[c.color == newCube.color]</text><path d="M74,347.4922 L151,347.4922 L151,354.625 L141,364.625 L74,364.625 L74,347.4922 " fill="#EEEEEE" style="stroke:#000000;stroke-width:1.5;"/><rect fill="none" height="60.2656" style="stroke:#000000;stroke-width:1.5;" width="267" x="74" y="347.4922"/><text fill="#000000" font-family="sans-serif" font-size="13" font-weight="bold" lengthAdjust="spacing" textLength="32" x="89" y="360.5591">loop</text><text fill="#000000" font-family="sans-serif" font-size="11" font-weight="bold" lengthAdjust="spacing" textLength="170" x="166" y="359.7026">[Cube c : currentDirection]</text><polygon fill="#181818" points="280,381.7578,290,385.7578,280,389.7578,284,385.7578" style="stroke:#181818;stroke-width:1.0;"/><line style="stroke:#181818;stroke-width:1.0;" x1="149" x2="286" y1="385.7578" y2="385.7578"/><text fill="#000000" font-family="sans-serif" font-size="13" lengthAdjust="spacing" textLength="87" x="156" y="380.6919">changeOwner</text><polygon fill="#181818" points="160,395.7578,150,399.7578,160,403.7578,156,399.7578" style="stroke:#181818;stroke-width:1.0;"/><line style="stroke:#181818;stroke-width:1.0;stroke-dasharray:2.0,2.0;" x1="154" x2="296" y1="399.7578" y2="399.7578"/><line style="stroke:#181818;stroke-width:1.0;" x1="149" x2="196" y1="458.8906" y2="458.8906"/><line style="stroke:#181818;stroke-width:1.0;" x1="196" x2="196" y1="458.8906" y2="471.8906"/><line style="stroke:#181818;stroke-width:1.0;" x1="155" x2="196" y1="471.8906" y2="471.8906"/><polygon fill="#181818" points="165,467.8906,155,471.8906,165,475.8906,161,471.8906" style="stroke:#181818;stroke-width:1.0;"/><text fill="#000000" font-family="sans-serif" font-size="13" lengthAdjust="spacing" textLength="128" x="161" y="453.8247">updatePlayerScores</text><line style="stroke:#181818;stroke-width:1.0;stroke-dasharray:2.0,2.0;" x1="154" x2="196" y1="495.8906" y2="495.8906"/><line style="stroke:#181818;stroke-width:1.0;stroke-dasharray:2.0,2.0;" x1="196" x2="196" y1="495.8906" y2="508.8906"/><line style="stroke:#181818;stroke-width:1.0;stroke-dasharray:2.0,2.0;" x1="149" x2="196" y1="508.8906" y2="508.8906"/><polygon fill="#181818" points="159,504.8906,149,508.8906,159,512.8906,155,508.8906" style="stroke:#181818;stroke-width:1.0;"/><line style="stroke:#181818;stroke-width:1.0;" x1="149" x2="196" y1="528.0234" y2="528.0234"/><line style="stroke:#181818;stroke-width:1.0;" x1="196" x2="196" y1="528.0234" y2="541.0234"/><line style="stroke:#181818;stroke-width:1.0;" x1="155" x2="196" y1="541.0234" y2="541.0234"/><polygon fill="#181818" points="165,537.0234,155,541.0234,165,545.0234,161,541.0234" style="stroke:#181818;stroke-width:1.0;"/><text fill="#000000" font-family="sans-serif" font-size="13" lengthAdjust="spacing" textLength="117" x="161" y="522.9575">stackNewChanges</text><line style="stroke:#181818;stroke-width:1.0;stroke-dasharray:2.0,2.0;" x1="154" x2="196" y1="565.0234" y2="565.0234"/><line style="stroke:#181818;stroke-width:1.0;stroke-dasharray:2.0,2.0;" x1="196" x2="196" y1="565.0234" y2="578.0234"/><line style="stroke:#181818;stroke-width:1.0;stroke-dasharray:2.0,2.0;" x1="149" x2="196" y1="578.0234" y2="578.0234"/><polygon fill="#181818" points="159,574.0234,149,578.0234,159,582.0234,155,578.0234" style="stroke:#181818;stroke-width:1.0;"/><polygon fill="#181818" points="41,583.0234,31,587.0234,41,591.0234,37,587.0234" style="stroke:#181818;stroke-width:1.0;"/><line style="stroke:#181818;stroke-width:1.0;stroke-dasharray:2.0,2.0;" x1="35" x2="143" y1="587.0234" y2="587.0234"/><!--MD5=[a7f669d65b078d81f043f0252e4f01ca]
@startuml
participant Actor
Actor -> SimplifiedBoard : applyChanges
activate SimplifiedBoard
loop checks every direction
loop Position p : currentDirection
SimplifiedBoard -> SimplifiedBoard : isPositionInRange(p)
activate SimplifiedBoard
SimplifiedBoard - -> SimplifiedBoard : inRange
deactivate SimplifiedBoard
alt inRange == true
SimplifiedBoard -> SimplifiedBoard : getCubeInPos
activate SimplifiedBoard
SimplifiedBoard - -> SimplifiedBoard : c
deactivate SimplifiedBoard
alt c.color == newCube.color
loop Cube c : currentDirection
SimplifiedBoard -> Cube : changeOwner
activate Cube
Cube - -> SimplifiedBoard
deactivate Cube
end loop
end alt
end alt
end loop
end loop
SimplifiedBoard -> SimplifiedBoard : updatePlayerScores
activate SimplifiedBoard
SimplifiedBoard - -> SimplifiedBoard
deactivate SimplifiedBoard
SimplifiedBoard -> SimplifiedBoard : stackNewChanges
activate SimplifiedBoard
SimplifiedBoard - -> SimplifiedBoard
deactivate SimplifiedBoard
return
@enduml

PlantUML version 1.2022.4(Sat Apr 09 13:29:17 UTC 2022)
(GPL source distribution)
Java Runtime: OpenJDK Runtime Environment
JVM: OpenJDK 64-Bit Server VM
Default Encoding: UTF-8
Language: en
Country: US
--></g></svg>