<?xml version="1.0" encoding="UTF-8" standalone="no"?><svg xmlns="http://www.w3.org/2000/svg" xmlns:xlink="http://www.w3.org/1999/xlink" contentScriptType="application/ecmascript" contentStyleType="text/css" height="1047px" preserveAspectRatio="none" style="width:692px;height:1047px;background:#FFFFFF;" version="1.1" viewBox="0 0 692 1047" width="692px" zoomAndPan="magnify"><defs><filter height="300%" id="fnsfouik25f9b" width="300%" x="-1" y="-1"><feGaussianBlur result="blurOut" stdDeviation="2.0"/><feColorMatrix in="blurOut" result="blurOut2" type="matrix" values="0 0 0 0 0 0 0 0 0 0 0 0 0 0 0 0 0 0 .4 0"/><feOffset dx="4.0" dy="4.0" in="blurOut2" result="blurOut3"/><feBlend in="SourceGraphic" in2="blurOut3" mode="normal"/></filter></defs><g><rect fill="#FFFFFF" filter="url(#fnsfouik25f9b)" height="914.9219" style="stroke:#A80036;stroke-width:1.0;" width="10" x="294" y="71.4297"/><rect fill="#FFFFFF" filter="url(#fnsfouik25f9b)" height="813.6563" style="stroke:#A80036;stroke-width:1.0;" width="10" x="299" y="151.6953"/><rect fill="#FFFFFF" filter="url(#fnsfouik25f9b)" height="29.1328" style="stroke:#A80036;stroke-width:1.0;" width="10" x="304" y="557.2891"/><rect fill="#FFFFFF" filter="url(#fnsfouik25f9b)" height="28" style="stroke:#A80036;stroke-width:1.0;" width="10" x="304" y="784.0859"/><rect fill="#FFFFFF" filter="url(#fnsfouik25f9b)" height="28" style="stroke:#A80036;stroke-width:1.0;" width="10" x="304" y="889.3516"/><rect fill="#FFFFFF" filter="url(#fnsfouik25f9b)" height="14" style="stroke:#A80036;stroke-width:1.0;" width="10" x="525" y="100.5625"/><rect fill="#FFFFFF" filter="url(#fnsfouik25f9b)" height="29.1328" style="stroke:#A80036;stroke-width:1.0;" width="10" x="525" y="185.8281"/><rect fill="#FFFFFF" filter="url(#fnsfouik25f9b)" height="29.1328" style="stroke:#A80036;stroke-width:1.0;" width="10" x="525" y="268.2266"/><rect fill="#FFFFFF" filter="url(#fnsfouik25f9b)" height="341.0625" style="stroke:#A80036;stroke-width:1.0;" width="10" x="525" y="350.625"/><rect fill="#FFFFFF" filter="url(#fnsfouik25f9b)" height="25" style="stroke:#A80036;stroke-width:1.0;" width="10" x="530" y="387.7578"/><rect fill="#FFFFFF" filter="url(#fnsfouik25f9b)" height="40.1328" style="stroke:#A80036;stroke-width:1.0;" width="10" x="530" y="456.8906"/><rect fill="#FFFFFF" filter="url(#fnsfouik25f9b)" height="25" style="stroke:#A80036;stroke-width:1.0;" width="10" x="530" y="630.5547"/><rect fill="#FFFFFF" filter="url(#fnsfouik25f9b)" height="716.3906" style="stroke:#000000;stroke-width:2.0;" width="474" x="204" y="229.9609"/><rect fill="#FFFFFF" filter="url(#fnsfouik25f9b)" height="387.3281" style="stroke:#000000;stroke-width:2.0;" width="454" x="214" y="312.3594"/><rect fill="#FFFFFF" filter="url(#fnsfouik25f9b)" height="75.3984" style="stroke:#000000;stroke-width:2.0;" width="378" x="224" y="519.0234"/><rect fill="#FFFFFF" filter="url(#fnsfouik25f9b)" height="225.6641" style="stroke:#000000;stroke-width:2.0;" width="276" x="214" y="713.6875"/><rect fill="#FFFFFF" filter="url(#fnsfouik25f9b)" height="89.2656" style="stroke:#000000;stroke-width:2.0;" width="256" x="224" y="737.8203"/><rect fill="#FFFFFF" height="105.2656" style="stroke:none;stroke-width:1.0;" width="276" x="214" y="834.0859"/><rect fill="#FFFFFF" filter="url(#fnsfouik25f9b)" height="89.2656" style="stroke:#000000;stroke-width:2.0;" width="256" x="224" y="843.0859"/><line style="stroke:#A80036;stroke-width:1.0;stroke-dasharray:5.0,5.0;" x1="32" x2="32" y1="40.2969" y2="1004.3516"/><line style="stroke:#A80036;stroke-width:1.0;stroke-dasharray:5.0,5.0;" x1="299" x2="299" y1="40.2969" y2="1004.3516"/><line style="stroke:#A80036;stroke-width:1.0;stroke-dasharray:5.0,5.0;" x1="530" x2="530" y1="40.2969" y2="1004.3516"/><rect fill="#FEFECE" filter="url(#fnsfouik25f9b)" height="30.2969" style="stroke:#A80036;stroke-width:1.5;" width="50" x="5" y="5"/><text fill="#000000" font-family="sans-serif" font-size="14" lengthAdjust="spacing" textLength="36" x="12" y="24.9951">Actor</text><rect fill="#FEFECE" filter="url(#fnsfouik25f9b)" height="30.2969" style="stroke:#A80036;stroke-width:1.5;" width="50" x="5" y="1003.3516"/><text fill="#000000" font-family="sans-serif" font-size="14" lengthAdjust="spacing" textLength="36" x="12" y="1023.3467">Actor</text><rect fill="#FEFECE" filter="url(#fnsfouik25f9b)" height="30.2969" style="stroke:#A80036;stroke-width:1.5;" width="126" x="234" y="5"/><text fill="#000000" font-family="sans-serif" font-size="14" lengthAdjust="spacing" textLength="112" x="241" y="24.9951">MinimaxStrategy</text><rect fill="#FEFECE" filter="url(#fnsfouik25f9b)" height="30.2969" style="stroke:#A80036;stroke-width:1.5;" width="126" x="234" y="1003.3516"/><text fill="#000000" font-family="sans-serif" font-size="14" lengthAdjust="spacing" textLength="112" x="241" y="1023.3467">MinimaxStrategy</text><rect fill="#FEFECE" filter="url(#fnsfouik25f9b)" height="30.2969" style="stroke:#A80036;stroke-width:1.5;" width="120" x="468" y="5"/><text fill="#000000" font-family="sans-serif" font-size="14" lengthAdjust="spacing" textLength="106" x="475" y="24.9951">SimplifiedBoard</text><rect fill="#FEFECE" filter="url(#fnsfouik25f9b)" height="30.2969" style="stroke:#A80036;stroke-width:1.5;" width="120" x="468" y="1003.3516"/><text fill="#000000" font-family="sans-serif" font-size="14" lengthAdjust="spacing" textLength="106" x="475" y="1023.3467">SimplifiedBoard</text><rect fill="#FFFFFF" filter="url(#fnsfouik25f9b)" height="914.9219" style="stroke:#A80036;stroke-width:1.0;" width="10" x="294" y="71.4297"/><rect fill="#FFFFFF" filter="url(#fnsfouik25f9b)" height="813.6563" style="stroke:#A80036;stroke-width:1.0;" width="10" x="299" y="151.6953"/><rect fill="#FFFFFF" filter="url(#fnsfouik25f9b)" height="29.1328" style="stroke:#A80036;stroke-width:1.0;" width="10" x="304" y="557.2891"/><rect fill="#FFFFFF" filter="url(#fnsfouik25f9b)" height="28" style="stroke:#A80036;stroke-width:1.0;" width="10" x="304" y="784.0859"/><rect fill="#FFFFFF" filter="url(#fnsfouik25f9b)" height="28" style="stroke:#A80036;stroke-width:1.0;" width="10" x="304" y="889.3516"/><rect fill="#FFFFFF" filter="url(#fnsfouik25f9b)" height="14" style="stroke:#A80036;stroke-width:1.0;" width="10" x="525" y="100.5625"/><rect fill="#FFFFFF" filter="url(#fnsfouik25f9b)" height="29.1328" style="stroke:#A80036;stroke-width:1.0;" width="10" x="525" y="185.8281"/><rect fill="#FFFFFF" filter="url(#fnsfouik25f9b)" height="29.1328" style="stroke:#A80036;stroke-width:1.0;" width="10" x="525" y="268.2266"/><rect fill="#FFFFFF" filter="url(#fnsfouik25f9b)" height="341.0625" style="stroke:#A80036;stroke-width:1.0;" width="10" x="525" y="350.625"/><rect fill="#FFFFFF" filter="url(#fnsfouik25f9b)" height="25" style="stroke:#A80036;stroke-width:1.0;" width="10" x="530" y="387.7578"/><rect fill="#FFFFFF" filter="url(#fnsfouik25f9b)" height="40.1328" style="stroke:#A80036;stroke-width:1.0;" width="10" x="530" y="456.8906"/><rect fill="#FFFFFF" filter="url(#fnsfouik25f9b)" height="25" style="stroke:#A80036;stroke-width:1.0;" width="10" x="530" y="630.5547"/><polygon fill="#A80036" points="282,67.4297,292,71.4297,282,75.4297,286,71.4297" style="stroke:#A80036;stroke-width:1.0;"/><line style="stroke:#A80036;stroke-width:1.0;" x1="32" x2="288" y1="71.4297" y2="71.4297"/><text fill="#000000" font-family="sans-serif" font-size="13" lengthAdjust="spacing" textLength="243" x="39" y="66.3638">calculateNextMove(ownerColor, state)</text><polygon fill="#A80036" points="513,96.5625,523,100.5625,513,104.5625,517,100.5625" style="stroke:#A80036;stroke-width:1.0;"/><line style="stroke:#A80036;stroke-width:1.0;" x1="304" x2="519" y1="100.5625" y2="100.5625"/><text fill="#000000" font-family="sans-serif" font-size="13" lengthAdjust="spacing" textLength="99" x="311" y="95.4966">new(state, this)</text><polygon fill="#A80036" points="315,110.5625,305,114.5625,315,118.5625,311,114.5625" style="stroke:#A80036;stroke-width:1.0;"/><line style="stroke:#A80036;stroke-width:1.0;stroke-dasharray:2.0,2.0;" x1="309" x2="529" y1="114.5625" y2="114.5625"/><line style="stroke:#A80036;stroke-width:1.0;" x1="304" x2="351" y1="138.6953" y2="138.6953"/><line style="stroke:#A80036;stroke-width:1.0;" x1="351" x2="351" y1="138.6953" y2="151.6953"/><line style="stroke:#A80036;stroke-width:1.0;" x1="310" x2="351" y1="151.6953" y2="151.6953"/><polygon fill="#A80036" points="320,147.6953,310,151.6953,320,155.6953,316,151.6953" style="stroke:#A80036;stroke-width:1.0;"/><text fill="#000000" font-family="sans-serif" font-size="13" lengthAdjust="spacing" textLength="176" x="316" y="133.6294">simulate(color, initialDepth)</text><polygon fill="#A80036" points="513,181.8281,523,185.8281,513,189.8281,517,185.8281" style="stroke:#A80036;stroke-width:1.0;"/><line style="stroke:#A80036;stroke-width:1.0;" x1="309" x2="519" y1="185.8281" y2="185.8281"/><text fill="#000000" font-family="sans-serif" font-size="13" lengthAdjust="spacing" textLength="123" x="316" y="180.7622">getSimulatedScore</text><polygon fill="#A80036" points="320,210.9609,310,214.9609,320,218.9609,316,214.9609" style="stroke:#A80036;stroke-width:1.0;"/><line style="stroke:#A80036;stroke-width:1.0;stroke-dasharray:2.0,2.0;" x1="314" x2="529" y1="214.9609" y2="214.9609"/><text fill="#000000" font-family="sans-serif" font-size="13" lengthAdjust="spacing" textLength="83" x="326" y="209.895">currentScore</text><path d="M204,229.9609 L281,229.9609 L281,236.9609 L271,246.9609 L204,246.9609 L204,229.9609 " fill="#EEEEEE" style="stroke:#000000;stroke-width:1.0;"/><rect fill="none" height="716.3906" style="stroke:#000000;stroke-width:2.0;" width="474" x="204" y="229.9609"/><text fill="#000000" font-family="sans-serif" font-size="13" font-weight="bold" lengthAdjust="spacing" textLength="32" x="219" y="243.0278">loop</text><text fill="#000000" font-family="sans-serif" font-size="11" font-weight="bold" lengthAdjust="spacing" textLength="114" x="296" y="242.1714">[positionInRange]</text><polygon fill="#A80036" points="513,264.2266,523,268.2266,513,272.2266,517,268.2266" style="stroke:#A80036;stroke-width:1.0;"/><line style="stroke:#A80036;stroke-width:1.0;" x1="309" x2="519" y1="268.2266" y2="268.2266"/><text fill="#000000" font-family="sans-serif" font-size="13" lengthAdjust="spacing" textLength="90" x="316" y="263.1606">tryToAddCube</text><polygon fill="#A80036" points="320,293.3594,310,297.3594,320,301.3594,316,297.3594" style="stroke:#A80036;stroke-width:1.0;"/><line style="stroke:#A80036;stroke-width:1.0;stroke-dasharray:2.0,2.0;" x1="314" x2="529" y1="297.3594" y2="297.3594"/><text fill="#000000" font-family="sans-serif" font-size="13" lengthAdjust="spacing" textLength="79" x="326" y="292.2935">validPosition</text><path d="M214,312.3594 L278,312.3594 L278,319.3594 L268,329.3594 L214,329.3594 L214,312.3594 " fill="#EEEEEE" style="stroke:#000000;stroke-width:1.0;"/><rect fill="none" height="387.3281" style="stroke:#000000;stroke-width:2.0;" width="454" x="214" y="312.3594"/><text fill="#000000" font-family="sans-serif" font-size="13" font-weight="bold" lengthAdjust="spacing" textLength="19" x="229" y="325.4263">alt</text><text fill="#000000" font-family="sans-serif" font-size="11" font-weight="bold" lengthAdjust="spacing" textLength="145" x="293" y="324.5698">[validPosition == true]</text><polygon fill="#A80036" points="513,346.625,523,350.625,513,354.625,517,350.625" style="stroke:#A80036;stroke-width:1.0;"/><line style="stroke:#A80036;stroke-width:1.0;" x1="309" x2="519" y1="350.625" y2="350.625"/><text fill="#000000" font-family="sans-serif" font-size="13" lengthAdjust="spacing" textLength="136" x="316" y="345.5591">simulateMove(depth)</text><line style="stroke:#A80036;stroke-width:1.0;" x1="535" x2="582" y1="374.7578" y2="374.7578"/><line style="stroke:#A80036;stroke-width:1.0;" x1="582" x2="582" y1="374.7578" y2="387.7578"/><line style="stroke:#A80036;stroke-width:1.0;" x1="541" x2="582" y1="387.7578" y2="387.7578"/><polygon fill="#A80036" points="551,383.7578,541,387.7578,551,391.7578,547,387.7578" style="stroke:#A80036;stroke-width:1.0;"/><text fill="#000000" font-family="sans-serif" font-size="13" lengthAdjust="spacing" textLength="90" x="547" y="369.6919">applyChanges</text><line style="stroke:#A80036;stroke-width:1.0;stroke-dasharray:2.0,2.0;" x1="540" x2="582" y1="411.7578" y2="411.7578"/><line style="stroke:#A80036;stroke-width:1.0;stroke-dasharray:2.0,2.0;" x1="582" x2="582" y1="411.7578" y2="424.7578"/><line style="stroke:#A80036;stroke-width:1.0;stroke-dasharray:2.0,2.0;" x1="535" x2="582" y1="424.7578" y2="424.7578"/><polygon fill="#A80036" points="545,420.7578,535,424.7578,545,428.7578,541,424.7578" style="stroke:#A80036;stroke-width:1.0;"/><line style="stroke:#A80036;stroke-width:1.0;" x1="535" x2="582" y1="443.8906" y2="443.8906"/><line style="stroke:#A80036;stroke-width:1.0;" x1="582" x2="582" y1="443.8906" y2="456.8906"/><line style="stroke:#A80036;stroke-width:1.0;" x1="541" x2="582" y1="456.8906" y2="456.8906"/><polygon fill="#A80036" points="551,452.8906,541,456.8906,551,460.8906,547,456.8906" style="stroke:#A80036;stroke-width:1.0;"/><text fill="#000000" font-family="sans-serif" font-size="13" lengthAdjust="spacing" textLength="109" x="547" y="438.8247">updateNewScore</text><line style="stroke:#A80036;stroke-width:1.0;stroke-dasharray:2.0,2.0;" x1="540" x2="582" y1="496.0234" y2="496.0234"/><line style="stroke:#A80036;stroke-width:1.0;stroke-dasharray:2.0,2.0;" x1="582" x2="582" y1="496.0234" y2="509.0234"/><line style="stroke:#A80036;stroke-width:1.0;stroke-dasharray:2.0,2.0;" x1="535" x2="582" y1="509.0234" y2="509.0234"/><polygon fill="#A80036" points="545,505.0234,535,509.0234,545,513.0234,541,509.0234" style="stroke:#A80036;stroke-width:1.0;"/><text fill="#000000" font-family="sans-serif" font-size="13" lengthAdjust="spacing" textLength="62" x="547" y="490.9575">newScore</text><path d="M224,519.0234 L288,519.0234 L288,526.0234 L278,536.0234 L224,536.0234 L224,519.0234 " fill="#EEEEEE" style="stroke:#000000;stroke-width:1.0;"/><rect fill="none" height="75.3984" style="stroke:#000000;stroke-width:2.0;" width="378" x="224" y="519.0234"/><text fill="#000000" font-family="sans-serif" font-size="13" font-weight="bold" lengthAdjust="spacing" textLength="19" x="239" y="532.0903">alt</text><text fill="#000000" font-family="sans-serif" font-size="11" font-weight="bold" lengthAdjust="spacing" textLength="72" x="303" y="531.2339">[depth &gt; 0]</text><polygon fill="#A80036" points="325,553.2891,315,557.2891,325,561.2891,321,557.2891" style="stroke:#A80036;stroke-width:1.0;"/><line style="stroke:#A80036;stroke-width:1.0;" x1="319" x2="524" y1="557.2891" y2="557.2891"/><text fill="#000000" font-family="sans-serif" font-size="13" lengthAdjust="spacing" textLength="192" x="331" y="552.2231">simulate(nextColor, depth - 1)</text><polygon fill="#A80036" points="513,582.4219,523,586.4219,513,590.4219,517,586.4219" style="stroke:#A80036;stroke-width:1.0;"/><line style="stroke:#A80036;stroke-width:1.0;stroke-dasharray:2.0,2.0;" x1="309" x2="519" y1="586.4219" y2="586.4219"/><text fill="#000000" font-family="sans-serif" font-size="13" lengthAdjust="spacing" textLength="62" x="316" y="581.356">newScore</text><line style="stroke:#A80036;stroke-width:1.0;" x1="535" x2="582" y1="617.5547" y2="617.5547"/><line style="stroke:#A80036;stroke-width:1.0;" x1="582" x2="582" y1="617.5547" y2="630.5547"/><line style="stroke:#A80036;stroke-width:1.0;" x1="541" x2="582" y1="630.5547" y2="630.5547"/><polygon fill="#A80036" points="551,626.5547,541,630.5547,551,634.5547,547,630.5547" style="stroke:#A80036;stroke-width:1.0;"/><text fill="#000000" font-family="sans-serif" font-size="13" lengthAdjust="spacing" textLength="94" x="547" y="612.4888">revertChanges</text><line style="stroke:#A80036;stroke-width:1.0;stroke-dasharray:2.0,2.0;" x1="540" x2="582" y1="654.5547" y2="654.5547"/><line style="stroke:#A80036;stroke-width:1.0;stroke-dasharray:2.0,2.0;" x1="582" x2="582" y1="654.5547" y2="667.5547"/><line style="stroke:#A80036;stroke-width:1.0;stroke-dasharray:2.0,2.0;" x1="535" x2="582" y1="667.5547" y2="667.5547"/><polygon fill="#A80036" points="545,663.5547,535,667.5547,545,671.5547,541,667.5547" style="stroke:#A80036;stroke-width:1.0;"/><polygon fill="#A80036" points="320,687.6875,310,691.6875,320,695.6875,316,691.6875" style="stroke:#A80036;stroke-width:1.0;"/><line style="stroke:#A80036;stroke-width:1.0;stroke-dasharray:2.0,2.0;" x1="314" x2="529" y1="691.6875" y2="691.6875"/><text fill="#000000" font-family="sans-serif" font-size="13" lengthAdjust="spacing" textLength="62" x="326" y="686.6216">newScore</text><path d="M214,713.6875 L278,713.6875 L278,720.6875 L268,730.6875 L214,730.6875 L214,713.6875 " fill="#EEEEEE" style="stroke:#000000;stroke-width:1.0;"/><rect fill="none" height="225.6641" style="stroke:#000000;stroke-width:2.0;" width="276" x="214" y="713.6875"/><text fill="#000000" font-family="sans-serif" font-size="13" font-weight="bold" lengthAdjust="spacing" textLength="19" x="229" y="726.7544">alt</text><text fill="#000000" font-family="sans-serif" font-size="11" font-weight="bold" lengthAdjust="spacing" textLength="148" x="293" y="725.8979">[color == currentColor]</text><path d="M224,737.8203 L288,737.8203 L288,744.8203 L278,754.8203 L224,754.8203 L224,737.8203 " fill="#EEEEEE" style="stroke:#000000;stroke-width:1.0;"/><rect fill="none" height="89.2656" style="stroke:#000000;stroke-width:2.0;" width="256" x="224" y="737.8203"/><text fill="#000000" font-family="sans-serif" font-size="13" font-weight="bold" lengthAdjust="spacing" textLength="19" x="239" y="750.8872">alt</text><text fill="#000000" font-family="sans-serif" font-size="11" font-weight="bold" lengthAdjust="spacing" textLength="172" x="303" y="750.0308">[newScore &gt; currentScore]</text><line style="stroke:#A80036;stroke-width:1.0;" x1="314" x2="356" y1="776.0859" y2="776.0859"/><line style="stroke:#A80036;stroke-width:1.0;" x1="356" x2="356" y1="776.0859" y2="789.0859"/><line style="stroke:#A80036;stroke-width:1.0;" x1="315" x2="356" y1="789.0859" y2="789.0859"/><polygon fill="#A80036" points="325,785.0859,315,789.0859,325,793.0859,321,789.0859" style="stroke:#A80036;stroke-width:1.0;"/><text fill="#000000" font-family="sans-serif" font-size="13" lengthAdjust="spacing" textLength="84" x="321" y="771.02">updateResult</text><line style="stroke:#000000;stroke-width:1.0;stroke-dasharray:2.0,2.0;" x1="214" x2="490" y1="835.0859" y2="835.0859"/><path d="M224,843.0859 L288,843.0859 L288,850.0859 L278,860.0859 L224,860.0859 L224,843.0859 " fill="#EEEEEE" style="stroke:#000000;stroke-width:1.0;"/><rect fill="none" height="89.2656" style="stroke:#000000;stroke-width:2.0;" width="256" x="224" y="843.0859"/><text fill="#000000" font-family="sans-serif" font-size="13" font-weight="bold" lengthAdjust="spacing" textLength="19" x="239" y="856.1528">alt</text><text fill="#000000" font-family="sans-serif" font-size="11" font-weight="bold" lengthAdjust="spacing" textLength="172" x="303" y="855.2964">[newScore &lt; currentScore]</text><line style="stroke:#A80036;stroke-width:1.0;" x1="314" x2="356" y1="881.3516" y2="881.3516"/><line style="stroke:#A80036;stroke-width:1.0;" x1="356" x2="356" y1="881.3516" y2="894.3516"/><line style="stroke:#A80036;stroke-width:1.0;" x1="315" x2="356" y1="894.3516" y2="894.3516"/><polygon fill="#A80036" points="325,890.3516,315,894.3516,325,898.3516,321,894.3516" style="stroke:#A80036;stroke-width:1.0;"/><text fill="#000000" font-family="sans-serif" font-size="13" lengthAdjust="spacing" textLength="84" x="321" y="876.2856">updateResult</text><line style="stroke:#A80036;stroke-width:1.0;stroke-dasharray:2.0,2.0;" x1="309" x2="351" y1="964.3516" y2="964.3516"/><line style="stroke:#A80036;stroke-width:1.0;stroke-dasharray:2.0,2.0;" x1="351" x2="351" y1="964.3516" y2="977.3516"/><line style="stroke:#A80036;stroke-width:1.0;stroke-dasharray:2.0,2.0;" x1="304" x2="351" y1="977.3516" y2="977.3516"/><polygon fill="#A80036" points="314,973.3516,304,977.3516,314,981.3516,310,977.3516" style="stroke:#A80036;stroke-width:1.0;"/><polygon fill="#A80036" points="43,982.3516,33,986.3516,43,990.3516,39,986.3516" style="stroke:#A80036;stroke-width:1.0;"/><line style="stroke:#A80036;stroke-width:1.0;stroke-dasharray:2.0,2.0;" x1="37" x2="298" y1="986.3516" y2="986.3516"/><!--MD5=[7607ed87f1d788241dad0e4bb9515f88]
@startuml
participant Actor
Actor -> MinimaxStrategy : calculateNextMove(ownerColor, state)
activate MinimaxStrategy
MinimaxStrategy -> SimplifiedBoard : new(state, this)
activate SimplifiedBoard
SimplifiedBoard - -> MinimaxStrategy
deactivate SimplifiedBoard
MinimaxStrategy -> MinimaxStrategy : simulate(color, initialDepth)
activate MinimaxStrategy
MinimaxStrategy -> SimplifiedBoard : getSimulatedScore
activate SimplifiedBoard
SimplifiedBoard - -> MinimaxStrategy : currentScore
loop positionInRange
deactivate SimplifiedBoard
MinimaxStrategy -> SimplifiedBoard : tryToAddCube
activate SimplifiedBoard
SimplifiedBoard - -> MinimaxStrategy : validPosition
alt validPosition == true
deactivate SimplifiedBoard
MinimaxStrategy -> SimplifiedBoard : simulateMove(depth)
activate SimplifiedBoard
SimplifiedBoard -> SimplifiedBoard : applyChanges
activate SimplifiedBoard
SimplifiedBoard - -> SimplifiedBoard
deactivate SimplifiedBoard
SimplifiedBoard -> SimplifiedBoard : updateNewScore
activate SimplifiedBoard
SimplifiedBoard - -> SimplifiedBoard : newScore
deactivate SimplifiedBoard
alt depth > 0
SimplifiedBoard -> MinimaxStrategy : simulate(nextColor, depth - 1)
activate MinimaxStrategy
MinimaxStrategy - -> SimplifiedBoard : newScore
deactivate MinimaxStrategy
end alt
SimplifiedBoard -> SimplifiedBoard : revertChanges
activate SimplifiedBoard
SimplifiedBoard - -> SimplifiedBoard
deactivate SimplifiedBoard
SimplifiedBoard - -> MinimaxStrategy : newScore
deactivate SimplifiedBoard
end alt
alt color == currentColor
alt newScore > currentScore
MinimaxStrategy -> MinimaxStrategy : updateResult
activate MinimaxStrategy
deactivate MinimaxStrategy
end alt
else 
alt newScore < currentScore
MinimaxStrategy -> MinimaxStrategy : updateResult
activate MinimaxStrategy
deactivate MinimaxStrategy
end alt
end
end loop
MinimaxStrategy - -> MinimaxStrategy
deactivate MinimaxStrategy
return
@enduml

PlantUML version 1.2021.16(Wed Dec 08 17:25:22 UTC 2021)
(GPL source distribution)
Java Runtime: OpenJDK Runtime Environment
JVM: OpenJDK 64-Bit Server VM
Default Encoding: UTF-8
Language: en
Country: US
--></g></svg>