<?xml version="1.0" encoding="UTF-8" standalone="no"?><svg xmlns="http://www.w3.org/2000/svg" xmlns:xlink="http://www.w3.org/1999/xlink" contentScriptType="application/ecmascript" contentStyleType="text/css" height="1254px" preserveAspectRatio="none" style="width:772px;height:1254px;background:#FFFFFF;" version="1.1" viewBox="0 0 772 1254" width="772px" zoomAndPan="magnify"><defs><filter height="300%" id="fljhfvgv39wl" width="300%" x="-1" y="-1"><feGaussianBlur result="blurOut" stdDeviation="2.0"/><feColorMatrix in="blurOut" result="blurOut2" type="matrix" values="0 0 0 0 0 0 0 0 0 0 0 0 0 0 0 0 0 0 .4 0"/><feOffset dx="4.0" dy="4.0" in="blurOut2" result="blurOut3"/><feBlend in="SourceGraphic" in2="blurOut3" mode="normal"/></filter></defs><g><rect fill="#FFFFFF" filter="url(#fljhfvgv39wl)" height="1121.4531" style="stroke:#A80036;stroke-width:1.0;" width="10" x="294" y="71.4297"/><rect fill="#FFFFFF" filter="url(#fljhfvgv39wl)" height="1020.1875" style="stroke:#A80036;stroke-width:1.0;" width="10" x="299" y="151.6953"/><rect fill="#FFFFFF" filter="url(#fljhfvgv39wl)" height="29.1328" style="stroke:#A80036;stroke-width:1.0;" width="10" x="304" y="557.2891"/><rect fill="#FFFFFF" filter="url(#fljhfvgv39wl)" height="28" style="stroke:#A80036;stroke-width:1.0;" width="10" x="304" y="784.0859"/><rect fill="#FFFFFF" filter="url(#fljhfvgv39wl)" height="28" style="stroke:#A80036;stroke-width:1.0;" width="10" x="304" y="887.3516"/><rect fill="#FFFFFF" filter="url(#fljhfvgv39wl)" height="28" style="stroke:#A80036;stroke-width:1.0;" width="10" x="304" y="992.6172"/><rect fill="#FFFFFF" filter="url(#fljhfvgv39wl)" height="28" style="stroke:#A80036;stroke-width:1.0;" width="10" x="304" y="1095.8828"/><rect fill="#FFFFFF" filter="url(#fljhfvgv39wl)" height="14" style="stroke:#A80036;stroke-width:1.0;" width="10" x="605" y="100.5625"/><rect fill="#FFFFFF" filter="url(#fljhfvgv39wl)" height="29.1328" style="stroke:#A80036;stroke-width:1.0;" width="10" x="605" y="185.8281"/><rect fill="#FFFFFF" filter="url(#fljhfvgv39wl)" height="29.1328" style="stroke:#A80036;stroke-width:1.0;" width="10" x="605" y="268.2266"/><rect fill="#FFFFFF" filter="url(#fljhfvgv39wl)" height="341.0625" style="stroke:#A80036;stroke-width:1.0;" width="10" x="605" y="350.625"/><rect fill="#FFFFFF" filter="url(#fljhfvgv39wl)" height="25" style="stroke:#A80036;stroke-width:1.0;" width="10" x="610" y="387.7578"/><rect fill="#FFFFFF" filter="url(#fljhfvgv39wl)" height="40.1328" style="stroke:#A80036;stroke-width:1.0;" width="10" x="610" y="456.8906"/><rect fill="#FFFFFF" filter="url(#fljhfvgv39wl)" height="25" style="stroke:#A80036;stroke-width:1.0;" width="10" x="610" y="630.5547"/><rect fill="#FFFFFF" filter="url(#fljhfvgv39wl)" height="922.9219" style="stroke:#000000;stroke-width:2.0;" width="554" x="204" y="229.9609"/><rect fill="#FFFFFF" filter="url(#fljhfvgv39wl)" height="387.3281" style="stroke:#000000;stroke-width:2.0;" width="534" x="214" y="312.3594"/><rect fill="#FFFFFF" filter="url(#fljhfvgv39wl)" height="75.3984" style="stroke:#000000;stroke-width:2.0;" width="458" x="224" y="519.0234"/><rect fill="#FFFFFF" filter="url(#fljhfvgv39wl)" height="432.1953" style="stroke:#000000;stroke-width:2.0;" width="276" x="214" y="713.6875"/><rect fill="#FFFFFF" filter="url(#fljhfvgv39wl)" height="89.2656" style="stroke:#000000;stroke-width:2.0;" width="256" x="224" y="737.8203"/><rect fill="#FFFFFF" filter="url(#fljhfvgv39wl)" height="89.2656" style="stroke:#000000;stroke-width:2.0;" width="231" x="224" y="841.0859"/><rect fill="#FFFFFF" height="208.5313" style="stroke:none;stroke-width:1.0;" width="276" x="214" y="937.3516"/><rect fill="#FFFFFF" filter="url(#fljhfvgv39wl)" height="89.2656" style="stroke:#000000;stroke-width:2.0;" width="256" x="224" y="946.3516"/><rect fill="#FFFFFF" filter="url(#fljhfvgv39wl)" height="89.2656" style="stroke:#000000;stroke-width:2.0;" width="238" x="224" y="1049.6172"/><line style="stroke:#A80036;stroke-width:1.0;stroke-dasharray:5.0,5.0;" x1="32" x2="32" y1="40.2969" y2="1210.8828"/><line style="stroke:#A80036;stroke-width:1.0;stroke-dasharray:5.0,5.0;" x1="299" x2="299" y1="40.2969" y2="1210.8828"/><line style="stroke:#A80036;stroke-width:1.0;stroke-dasharray:5.0,5.0;" x1="610" x2="610" y1="40.2969" y2="1210.8828"/><rect fill="#FEFECE" filter="url(#fljhfvgv39wl)" height="30.2969" style="stroke:#A80036;stroke-width:1.5;" width="50" x="5" y="5"/><text fill="#000000" font-family="sans-serif" font-size="14" lengthAdjust="spacing" textLength="36" x="12" y="24.9951">Actor</text><rect fill="#FEFECE" filter="url(#fljhfvgv39wl)" height="30.2969" style="stroke:#A80036;stroke-width:1.5;" width="50" x="5" y="1209.8828"/><text fill="#000000" font-family="sans-serif" font-size="14" lengthAdjust="spacing" textLength="36" x="12" y="1229.8779">Actor</text><rect fill="#FEFECE" filter="url(#fljhfvgv39wl)" height="30.2969" style="stroke:#A80036;stroke-width:1.5;" width="126" x="234" y="5"/><text fill="#000000" font-family="sans-serif" font-size="14" lengthAdjust="spacing" textLength="112" x="241" y="24.9951">MinimaxStrategy</text><rect fill="#FEFECE" filter="url(#fljhfvgv39wl)" height="30.2969" style="stroke:#A80036;stroke-width:1.5;" width="126" x="234" y="1209.8828"/><text fill="#000000" font-family="sans-serif" font-size="14" lengthAdjust="spacing" textLength="112" x="241" y="1229.8779">MinimaxStrategy</text><rect fill="#FEFECE" filter="url(#fljhfvgv39wl)" height="30.2969" style="stroke:#A80036;stroke-width:1.5;" width="120" x="548" y="5"/><text fill="#000000" font-family="sans-serif" font-size="14" lengthAdjust="spacing" textLength="106" x="555" y="24.9951">SimplifiedBoard</text><rect fill="#FEFECE" filter="url(#fljhfvgv39wl)" height="30.2969" style="stroke:#A80036;stroke-width:1.5;" width="120" x="548" y="1209.8828"/><text fill="#000000" font-family="sans-serif" font-size="14" lengthAdjust="spacing" textLength="106" x="555" y="1229.8779">SimplifiedBoard</text><rect fill="#FFFFFF" filter="url(#fljhfvgv39wl)" height="1121.4531" style="stroke:#A80036;stroke-width:1.0;" width="10" x="294" y="71.4297"/><rect fill="#FFFFFF" filter="url(#fljhfvgv39wl)" height="1020.1875" style="stroke:#A80036;stroke-width:1.0;" width="10" x="299" y="151.6953"/><rect fill="#FFFFFF" filter="url(#fljhfvgv39wl)" height="29.1328" style="stroke:#A80036;stroke-width:1.0;" width="10" x="304" y="557.2891"/><rect fill="#FFFFFF" filter="url(#fljhfvgv39wl)" height="28" style="stroke:#A80036;stroke-width:1.0;" width="10" x="304" y="784.0859"/><rect fill="#FFFFFF" filter="url(#fljhfvgv39wl)" height="28" style="stroke:#A80036;stroke-width:1.0;" width="10" x="304" y="887.3516"/><rect fill="#FFFFFF" filter="url(#fljhfvgv39wl)" height="28" style="stroke:#A80036;stroke-width:1.0;" width="10" x="304" y="992.6172"/><rect fill="#FFFFFF" filter="url(#fljhfvgv39wl)" height="28" style="stroke:#A80036;stroke-width:1.0;" width="10" x="304" y="1095.8828"/><rect fill="#FFFFFF" filter="url(#fljhfvgv39wl)" height="14" style="stroke:#A80036;stroke-width:1.0;" width="10" x="605" y="100.5625"/><rect fill="#FFFFFF" filter="url(#fljhfvgv39wl)" height="29.1328" style="stroke:#A80036;stroke-width:1.0;" width="10" x="605" y="185.8281"/><rect fill="#FFFFFF" filter="url(#fljhfvgv39wl)" height="29.1328" style="stroke:#A80036;stroke-width:1.0;" width="10" x="605" y="268.2266"/><rect fill="#FFFFFF" filter="url(#fljhfvgv39wl)" height="341.0625" style="stroke:#A80036;stroke-width:1.0;" width="10" x="605" y="350.625"/><rect fill="#FFFFFF" filter="url(#fljhfvgv39wl)" height="25" style="stroke:#A80036;stroke-width:1.0;" width="10" x="610" y="387.7578"/><rect fill="#FFFFFF" filter="url(#fljhfvgv39wl)" height="40.1328" style="stroke:#A80036;stroke-width:1.0;" width="10" x="610" y="456.8906"/><rect fill="#FFFFFF" filter="url(#fljhfvgv39wl)" height="25" style="stroke:#A80036;stroke-width:1.0;" width="10" x="610" y="630.5547"/><polygon fill="#A80036" points="282,67.4297,292,71.4297,282,75.4297,286,71.4297" style="stroke:#A80036;stroke-width:1.0;"/><line style="stroke:#A80036;stroke-width:1.0;" x1="32" x2="288" y1="71.4297" y2="71.4297"/><text fill="#000000" font-family="sans-serif" font-size="13" lengthAdjust="spacing" textLength="243" x="39" y="66.3638">calculateNextMove(ownerColor, state)</text><polygon fill="#A80036" points="593,96.5625,603,100.5625,593,104.5625,597,100.5625" style="stroke:#A80036;stroke-width:1.0;"/><line style="stroke:#A80036;stroke-width:1.0;" x1="304" x2="599" y1="100.5625" y2="100.5625"/><text fill="#000000" font-family="sans-serif" font-size="13" lengthAdjust="spacing" textLength="99" x="311" y="95.4966">new(state, this)</text><polygon fill="#A80036" points="315,110.5625,305,114.5625,315,118.5625,311,114.5625" style="stroke:#A80036;stroke-width:1.0;"/><line style="stroke:#A80036;stroke-width:1.0;stroke-dasharray:2.0,2.0;" x1="309" x2="609" y1="114.5625" y2="114.5625"/><line style="stroke:#A80036;stroke-width:1.0;" x1="304" x2="351" y1="138.6953" y2="138.6953"/><line style="stroke:#A80036;stroke-width:1.0;" x1="351" x2="351" y1="138.6953" y2="151.6953"/><line style="stroke:#A80036;stroke-width:1.0;" x1="310" x2="351" y1="151.6953" y2="151.6953"/><polygon fill="#A80036" points="320,147.6953,310,151.6953,320,155.6953,316,151.6953" style="stroke:#A80036;stroke-width:1.0;"/><text fill="#000000" font-family="sans-serif" font-size="13" lengthAdjust="spacing" textLength="251" x="316" y="133.6294">simulate(color, initialDepth, -infty, infty)</text><polygon fill="#A80036" points="593,181.8281,603,185.8281,593,189.8281,597,185.8281" style="stroke:#A80036;stroke-width:1.0;"/><line style="stroke:#A80036;stroke-width:1.0;" x1="309" x2="599" y1="185.8281" y2="185.8281"/><text fill="#000000" font-family="sans-serif" font-size="13" lengthAdjust="spacing" textLength="123" x="316" y="180.7622">getSimulatedScore</text><polygon fill="#A80036" points="320,210.9609,310,214.9609,320,218.9609,316,214.9609" style="stroke:#A80036;stroke-width:1.0;"/><line style="stroke:#A80036;stroke-width:1.0;stroke-dasharray:2.0,2.0;" x1="314" x2="609" y1="214.9609" y2="214.9609"/><text fill="#000000" font-family="sans-serif" font-size="13" lengthAdjust="spacing" textLength="83" x="326" y="209.895">currentScore</text><path d="M204,229.9609 L281,229.9609 L281,236.9609 L271,246.9609 L204,246.9609 L204,229.9609 " fill="#EEEEEE" style="stroke:#000000;stroke-width:1.0;"/><rect fill="none" height="922.9219" style="stroke:#000000;stroke-width:2.0;" width="554" x="204" y="229.9609"/><text fill="#000000" font-family="sans-serif" font-size="13" font-weight="bold" lengthAdjust="spacing" textLength="32" x="219" y="243.0278">loop</text><text fill="#000000" font-family="sans-serif" font-size="11" font-weight="bold" lengthAdjust="spacing" textLength="114" x="296" y="242.1714">[positionInRange]</text><polygon fill="#A80036" points="593,264.2266,603,268.2266,593,272.2266,597,268.2266" style="stroke:#A80036;stroke-width:1.0;"/><line style="stroke:#A80036;stroke-width:1.0;" x1="309" x2="599" y1="268.2266" y2="268.2266"/><text fill="#000000" font-family="sans-serif" font-size="13" lengthAdjust="spacing" textLength="90" x="316" y="263.1606">tryToAddCube</text><polygon fill="#A80036" points="320,293.3594,310,297.3594,320,301.3594,316,297.3594" style="stroke:#A80036;stroke-width:1.0;"/><line style="stroke:#A80036;stroke-width:1.0;stroke-dasharray:2.0,2.0;" x1="314" x2="609" y1="297.3594" y2="297.3594"/><text fill="#000000" font-family="sans-serif" font-size="13" lengthAdjust="spacing" textLength="79" x="326" y="292.2935">validPosition</text><path d="M214,312.3594 L278,312.3594 L278,319.3594 L268,329.3594 L214,329.3594 L214,312.3594 " fill="#EEEEEE" style="stroke:#000000;stroke-width:1.0;"/><rect fill="none" height="387.3281" style="stroke:#000000;stroke-width:2.0;" width="534" x="214" y="312.3594"/><text fill="#000000" font-family="sans-serif" font-size="13" font-weight="bold" lengthAdjust="spacing" textLength="19" x="229" y="325.4263">alt</text><text fill="#000000" font-family="sans-serif" font-size="11" font-weight="bold" lengthAdjust="spacing" textLength="320" x="293" y="324.5698">[validPosition == true &amp;&amp; keepSearching == true]</text><polygon fill="#A80036" points="593,346.625,603,350.625,593,354.625,597,350.625" style="stroke:#A80036;stroke-width:1.0;"/><line style="stroke:#A80036;stroke-width:1.0;" x1="309" x2="599" y1="350.625" y2="350.625"/><text fill="#000000" font-family="sans-serif" font-size="13" lengthAdjust="spacing" textLength="216" x="316" y="345.5591">simulateMove(depth, alpha, beta)</text><line style="stroke:#A80036;stroke-width:1.0;" x1="615" x2="662" y1="374.7578" y2="374.7578"/><line style="stroke:#A80036;stroke-width:1.0;" x1="662" x2="662" y1="374.7578" y2="387.7578"/><line style="stroke:#A80036;stroke-width:1.0;" x1="621" x2="662" y1="387.7578" y2="387.7578"/><polygon fill="#A80036" points="631,383.7578,621,387.7578,631,391.7578,627,387.7578" style="stroke:#A80036;stroke-width:1.0;"/><text fill="#000000" font-family="sans-serif" font-size="13" lengthAdjust="spacing" textLength="90" x="627" y="369.6919">applyChanges</text><line style="stroke:#A80036;stroke-width:1.0;stroke-dasharray:2.0,2.0;" x1="620" x2="662" y1="411.7578" y2="411.7578"/><line style="stroke:#A80036;stroke-width:1.0;stroke-dasharray:2.0,2.0;" x1="662" x2="662" y1="411.7578" y2="424.7578"/><line style="stroke:#A80036;stroke-width:1.0;stroke-dasharray:2.0,2.0;" x1="615" x2="662" y1="424.7578" y2="424.7578"/><polygon fill="#A80036" points="625,420.7578,615,424.7578,625,428.7578,621,424.7578" style="stroke:#A80036;stroke-width:1.0;"/><line style="stroke:#A80036;stroke-width:1.0;" x1="615" x2="662" y1="443.8906" y2="443.8906"/><line style="stroke:#A80036;stroke-width:1.0;" x1="662" x2="662" y1="443.8906" y2="456.8906"/><line style="stroke:#A80036;stroke-width:1.0;" x1="621" x2="662" y1="456.8906" y2="456.8906"/><polygon fill="#A80036" points="631,452.8906,621,456.8906,631,460.8906,627,456.8906" style="stroke:#A80036;stroke-width:1.0;"/><text fill="#000000" font-family="sans-serif" font-size="13" lengthAdjust="spacing" textLength="109" x="627" y="438.8247">updateNewScore</text><line style="stroke:#A80036;stroke-width:1.0;stroke-dasharray:2.0,2.0;" x1="620" x2="662" y1="496.0234" y2="496.0234"/><line style="stroke:#A80036;stroke-width:1.0;stroke-dasharray:2.0,2.0;" x1="662" x2="662" y1="496.0234" y2="509.0234"/><line style="stroke:#A80036;stroke-width:1.0;stroke-dasharray:2.0,2.0;" x1="615" x2="662" y1="509.0234" y2="509.0234"/><polygon fill="#A80036" points="625,505.0234,615,509.0234,625,513.0234,621,509.0234" style="stroke:#A80036;stroke-width:1.0;"/><text fill="#000000" font-family="sans-serif" font-size="13" lengthAdjust="spacing" textLength="62" x="627" y="490.9575">newScore</text><path d="M224,519.0234 L288,519.0234 L288,526.0234 L278,536.0234 L224,536.0234 L224,519.0234 " fill="#EEEEEE" style="stroke:#000000;stroke-width:1.0;"/><rect fill="none" height="75.3984" style="stroke:#000000;stroke-width:2.0;" width="458" x="224" y="519.0234"/><text fill="#000000" font-family="sans-serif" font-size="13" font-weight="bold" lengthAdjust="spacing" textLength="19" x="239" y="532.0903">alt</text><text fill="#000000" font-family="sans-serif" font-size="11" font-weight="bold" lengthAdjust="spacing" textLength="72" x="303" y="531.2339">[depth &gt; 0]</text><polygon fill="#A80036" points="325,553.2891,315,557.2891,325,561.2891,321,557.2891" style="stroke:#A80036;stroke-width:1.0;"/><line style="stroke:#A80036;stroke-width:1.0;" x1="319" x2="604" y1="557.2891" y2="557.2891"/><text fill="#000000" font-family="sans-serif" font-size="13" lengthAdjust="spacing" textLength="272" x="331" y="552.2231">simulate(nextColor, depth - 1, alpha, beta)</text><polygon fill="#A80036" points="593,582.4219,603,586.4219,593,590.4219,597,586.4219" style="stroke:#A80036;stroke-width:1.0;"/><line style="stroke:#A80036;stroke-width:1.0;stroke-dasharray:2.0,2.0;" x1="309" x2="599" y1="586.4219" y2="586.4219"/><text fill="#000000" font-family="sans-serif" font-size="13" lengthAdjust="spacing" textLength="62" x="316" y="581.356">newScore</text><line style="stroke:#A80036;stroke-width:1.0;" x1="615" x2="662" y1="617.5547" y2="617.5547"/><line style="stroke:#A80036;stroke-width:1.0;" x1="662" x2="662" y1="617.5547" y2="630.5547"/><line style="stroke:#A80036;stroke-width:1.0;" x1="621" x2="662" y1="630.5547" y2="630.5547"/><polygon fill="#A80036" points="631,626.5547,621,630.5547,631,634.5547,627,630.5547" style="stroke:#A80036;stroke-width:1.0;"/><text fill="#000000" font-family="sans-serif" font-size="13" lengthAdjust="spacing" textLength="94" x="627" y="612.4888">revertChanges</text><line style="stroke:#A80036;stroke-width:1.0;stroke-dasharray:2.0,2.0;" x1="620" x2="662" y1="654.5547" y2="654.5547"/><line style="stroke:#A80036;stroke-width:1.0;stroke-dasharray:2.0,2.0;" x1="662" x2="662" y1="654.5547" y2="667.5547"/><line style="stroke:#A80036;stroke-width:1.0;stroke-dasharray:2.0,2.0;" x1="615" x2="662" y1="667.5547" y2="667.5547"/><polygon fill="#A80036" points="625,663.5547,615,667.5547,625,671.5547,621,667.5547" style="stroke:#A80036;stroke-width:1.0;"/><polygon fill="#A80036" points="320,687.6875,310,691.6875,320,695.6875,316,691.6875" style="stroke:#A80036;stroke-width:1.0;"/><line style="stroke:#A80036;stroke-width:1.0;stroke-dasharray:2.0,2.0;" x1="314" x2="609" y1="691.6875" y2="691.6875"/><text fill="#000000" font-family="sans-serif" font-size="13" lengthAdjust="spacing" textLength="62" x="326" y="686.6216">newScore</text><path d="M214,713.6875 L278,713.6875 L278,720.6875 L268,730.6875 L214,730.6875 L214,713.6875 " fill="#EEEEEE" style="stroke:#000000;stroke-width:1.0;"/><rect fill="none" height="432.1953" style="stroke:#000000;stroke-width:2.0;" width="276" x="214" y="713.6875"/><text fill="#000000" font-family="sans-serif" font-size="13" font-weight="bold" lengthAdjust="spacing" textLength="19" x="229" y="726.7544">alt</text><text fill="#000000" font-family="sans-serif" font-size="11" font-weight="bold" lengthAdjust="spacing" textLength="148" x="293" y="725.8979">[color == currentColor]</text><path d="M224,737.8203 L288,737.8203 L288,744.8203 L278,754.8203 L224,754.8203 L224,737.8203 " fill="#EEEEEE" style="stroke:#000000;stroke-width:1.0;"/><rect fill="none" height="89.2656" style="stroke:#000000;stroke-width:2.0;" width="256" x="224" y="737.8203"/><text fill="#000000" font-family="sans-serif" font-size="13" font-weight="bold" lengthAdjust="spacing" textLength="19" x="239" y="750.8872">alt</text><text fill="#000000" font-family="sans-serif" font-size="11" font-weight="bold" lengthAdjust="spacing" textLength="172" x="303" y="750.0308">[newScore &gt; currentScore]</text><line style="stroke:#A80036;stroke-width:1.0;" x1="314" x2="356" y1="776.0859" y2="776.0859"/><line style="stroke:#A80036;stroke-width:1.0;" x1="356" x2="356" y1="776.0859" y2="789.0859"/><line style="stroke:#A80036;stroke-width:1.0;" x1="315" x2="356" y1="789.0859" y2="789.0859"/><polygon fill="#A80036" points="325,785.0859,315,789.0859,325,793.0859,321,789.0859" style="stroke:#A80036;stroke-width:1.0;"/><text fill="#000000" font-family="sans-serif" font-size="13" lengthAdjust="spacing" textLength="84" x="321" y="771.02">updateResult</text><path d="M224,841.0859 L288,841.0859 L288,848.0859 L278,858.0859 L224,858.0859 L224,841.0859 " fill="#EEEEEE" style="stroke:#000000;stroke-width:1.0;"/><rect fill="none" height="89.2656" style="stroke:#000000;stroke-width:2.0;" width="231" x="224" y="841.0859"/><text fill="#000000" font-family="sans-serif" font-size="13" font-weight="bold" lengthAdjust="spacing" textLength="19" x="239" y="854.1528">alt</text><text fill="#000000" font-family="sans-serif" font-size="11" font-weight="bold" lengthAdjust="spacing" textLength="147" x="303" y="853.2964">[currentScore &gt;= beta]</text><line style="stroke:#A80036;stroke-width:1.0;" x1="314" x2="356" y1="879.3516" y2="879.3516"/><line style="stroke:#A80036;stroke-width:1.0;" x1="356" x2="356" y1="879.3516" y2="892.3516"/><line style="stroke:#A80036;stroke-width:1.0;" x1="315" x2="356" y1="892.3516" y2="892.3516"/><polygon fill="#A80036" points="325,888.3516,315,892.3516,325,896.3516,321,892.3516" style="stroke:#A80036;stroke-width:1.0;"/><text fill="#000000" font-family="sans-serif" font-size="13" lengthAdjust="spacing" textLength="92" x="321" y="874.2856">stopSearching</text><line style="stroke:#000000;stroke-width:1.0;stroke-dasharray:2.0,2.0;" x1="214" x2="490" y1="938.3516" y2="938.3516"/><path d="M224,946.3516 L288,946.3516 L288,953.3516 L278,963.3516 L224,963.3516 L224,946.3516 " fill="#EEEEEE" style="stroke:#000000;stroke-width:1.0;"/><rect fill="none" height="89.2656" style="stroke:#000000;stroke-width:2.0;" width="256" x="224" y="946.3516"/><text fill="#000000" font-family="sans-serif" font-size="13" font-weight="bold" lengthAdjust="spacing" textLength="19" x="239" y="959.4185">alt</text><text fill="#000000" font-family="sans-serif" font-size="11" font-weight="bold" lengthAdjust="spacing" textLength="172" x="303" y="958.562">[newScore &lt; currentScore]</text><line style="stroke:#A80036;stroke-width:1.0;" x1="314" x2="356" y1="984.6172" y2="984.6172"/><line style="stroke:#A80036;stroke-width:1.0;" x1="356" x2="356" y1="984.6172" y2="997.6172"/><line style="stroke:#A80036;stroke-width:1.0;" x1="315" x2="356" y1="997.6172" y2="997.6172"/><polygon fill="#A80036" points="325,993.6172,315,997.6172,325,1001.6172,321,997.6172" style="stroke:#A80036;stroke-width:1.0;"/><text fill="#000000" font-family="sans-serif" font-size="13" lengthAdjust="spacing" textLength="84" x="321" y="979.5513">updateResult</text><path d="M224,1049.6172 L288,1049.6172 L288,1056.6172 L278,1066.6172 L224,1066.6172 L224,1049.6172 " fill="#EEEEEE" style="stroke:#000000;stroke-width:1.0;"/><rect fill="none" height="89.2656" style="stroke:#000000;stroke-width:2.0;" width="238" x="224" y="1049.6172"/><text fill="#000000" font-family="sans-serif" font-size="13" font-weight="bold" lengthAdjust="spacing" textLength="19" x="239" y="1062.6841">alt</text><text fill="#000000" font-family="sans-serif" font-size="11" font-weight="bold" lengthAdjust="spacing" textLength="154" x="303" y="1061.8276">[currentScore &lt;= alpha]</text><line style="stroke:#A80036;stroke-width:1.0;" x1="314" x2="356" y1="1087.8828" y2="1087.8828"/><line style="stroke:#A80036;stroke-width:1.0;" x1="356" x2="356" y1="1087.8828" y2="1100.8828"/><line style="stroke:#A80036;stroke-width:1.0;" x1="315" x2="356" y1="1100.8828" y2="1100.8828"/><polygon fill="#A80036" points="325,1096.8828,315,1100.8828,325,1104.8828,321,1100.8828" style="stroke:#A80036;stroke-width:1.0;"/><text fill="#000000" font-family="sans-serif" font-size="13" lengthAdjust="spacing" textLength="92" x="321" y="1082.8169">stopSearching</text><line style="stroke:#A80036;stroke-width:1.0;stroke-dasharray:2.0,2.0;" x1="309" x2="351" y1="1170.8828" y2="1170.8828"/><line style="stroke:#A80036;stroke-width:1.0;stroke-dasharray:2.0,2.0;" x1="351" x2="351" y1="1170.8828" y2="1183.8828"/><line style="stroke:#A80036;stroke-width:1.0;stroke-dasharray:2.0,2.0;" x1="304" x2="351" y1="1183.8828" y2="1183.8828"/><polygon fill="#A80036" points="314,1179.8828,304,1183.8828,314,1187.8828,310,1183.8828" style="stroke:#A80036;stroke-width:1.0;"/><polygon fill="#A80036" points="43,1188.8828,33,1192.8828,43,1196.8828,39,1192.8828" style="stroke:#A80036;stroke-width:1.0;"/><line style="stroke:#A80036;stroke-width:1.0;stroke-dasharray:2.0,2.0;" x1="37" x2="298" y1="1192.8828" y2="1192.8828"/><!--MD5=[d7ddb752f37b4ebfb732aec688ed038e]
@startuml
participant Actor
Actor -> MinimaxStrategy : calculateNextMove(ownerColor, state)
activate MinimaxStrategy
MinimaxStrategy -> SimplifiedBoard : new(state, this)
activate SimplifiedBoard
SimplifiedBoard - -> MinimaxStrategy
deactivate SimplifiedBoard
MinimaxStrategy -> MinimaxStrategy : simulate(color, initialDepth, -infty, infty)
activate MinimaxStrategy
MinimaxStrategy -> SimplifiedBoard : getSimulatedScore
activate SimplifiedBoard
SimplifiedBoard - -> MinimaxStrategy : currentScore
loop positionInRange
deactivate SimplifiedBoard
MinimaxStrategy -> SimplifiedBoard : tryToAddCube
activate SimplifiedBoard
SimplifiedBoard - -> MinimaxStrategy : validPosition
alt validPosition == true && keepSearching == true
deactivate SimplifiedBoard
MinimaxStrategy -> SimplifiedBoard : simulateMove(depth, alpha, beta)
activate SimplifiedBoard
SimplifiedBoard -> SimplifiedBoard : applyChanges
activate SimplifiedBoard
SimplifiedBoard - -> SimplifiedBoard
deactivate SimplifiedBoard
SimplifiedBoard -> SimplifiedBoard : updateNewScore
activate SimplifiedBoard
SimplifiedBoard - -> SimplifiedBoard : newScore
deactivate SimplifiedBoard
alt depth > 0
SimplifiedBoard -> MinimaxStrategy : simulate(nextColor, depth - 1, alpha, beta)
activate MinimaxStrategy
MinimaxStrategy - -> SimplifiedBoard : newScore
deactivate MinimaxStrategy
end alt
SimplifiedBoard -> SimplifiedBoard : revertChanges
activate SimplifiedBoard
SimplifiedBoard - -> SimplifiedBoard
deactivate SimplifiedBoard
SimplifiedBoard - -> MinimaxStrategy : newScore
deactivate SimplifiedBoard
end alt
alt color == currentColor
alt newScore > currentScore
MinimaxStrategy -> MinimaxStrategy : updateResult
activate MinimaxStrategy
deactivate MinimaxStrategy
end alt
alt currentScore >= beta
MinimaxStrategy -> MinimaxStrategy : stopSearching
activate MinimaxStrategy
deactivate MinimaxStrategy
end alt
else 
alt newScore < currentScore
MinimaxStrategy -> MinimaxStrategy : updateResult
activate MinimaxStrategy
deactivate MinimaxStrategy
end alt
alt currentScore <= alpha
MinimaxStrategy -> MinimaxStrategy : stopSearching
activate MinimaxStrategy
deactivate MinimaxStrategy
end alt
end
end loop
MinimaxStrategy - -> MinimaxStrategy
deactivate MinimaxStrategy
return
@enduml

PlantUML version 1.2021.16(Wed Dec 08 17:25:22 UTC 2021)
(GPL source distribution)
Java Runtime: OpenJDK Runtime Environment
JVM: OpenJDK 64-Bit Server VM
Default Encoding: UTF-8
Language: en
Country: US
--></g></svg>